<?xml version="1.0" encoding="UTF-8" standalone="no"?>
<svg width="48px" height="48px" viewBox="0 0 48 48" version="1.1" xmlns="http://www.w3.org/2000/svg" xmlns:xlink="http://www.w3.org/1999/xlink" xmlns:sketch="http://www.bohemiancoding.com/sketch/ns">
    <!-- Generator: Sketch 3.3 (11970) - http://www.bohemiancoding.com/sketch -->
    <title>icon-follow</title>
    <desc>Created with Sketch.</desc>
    <defs></defs>
    <g id="Page-1" stroke="none" stroke-width="1" fill="none" fill-rule="evenodd" sketch:type="MSPage">
        <g id="icon-favorite" sketch:type="MSLayerGroup" transform="translate(9.000000, 9.000000)" stroke-width="1.5" stroke="#000000">
            <g id="Page-1" sketch:type="MSShapeGroup">
                <path d="M29.8274412,11.9188644 C29.6199084,12.0655041 22.8794232,17.215961 21.5304591,18.2462188 L21.0314985,18.6277845 L21.2236399,19.2427644 C22.3392018,22.82856 24.1927629,28.7760871 24.3836035,29.3578841 L24.3821584,29.3578841 C24.4114962,29.4494962 24.4181443,29.510193 24.4181443,29.5446609 C24.4181443,29.7913785 24.2216671,30 23.9885539,30 C23.9006125,30 23.8173681,29.9718059 23.7506714,29.9232786 C23.5955275,29.8077054 18.2861671,25.7636228 15.5009479,23.6417304 L14.9993858,23.2598623 L6.26002313,29.9152664 C6.18125887,29.9717303 6.09700288,29.9999244 6.00971187,29.9999244 C5.7740695,29.9999244 5.58135,29.7953846 5.58135,29.5445853 C5.58135,29.5089836 5.58763663,29.44806 5.61719138,29.3536513 L5.61683,29.3536513 C5.80571963,28.7760115 7.4206035,23.5953953 8.77542075,19.2426888 L8.96712863,18.6277089 L8.46780662,18.2461431 C7.1188425,17.2152051 0.379658125,12.0661844 0.185493375,11.9289175 C0.069225875,11.8438816 0,11.7029865 0,11.5527941 C0,11.2880111 0.194020125,11.0554284 0.41586075,11.0554284 L11.273837,11.0554284 L14.5921964,0.330695325 C14.6361309,0.165838987 14.7793518,0 14.9997471,0 C15.2199256,0 15.3630742,0.165838987 15.4070811,0.32993945 L18.7395313,11.0553527 L29.5972907,11.0553527 C29.8155182,11.0553527 30,11.2796965 30,11.5451598 C29.998627,11.7009456 29.929329,11.8438816 29.8274412,11.9188644 L29.8274412,11.9188644 L29.8274412,11.9188644 Z" id="list-title-icon-favorite"></path>
            </g>
        </g>
    </g>
</svg>