<?xml version="1.0" encoding="UTF-8" standalone="no"?>
<svg width="33px" height="33px" viewBox="0 0 33 33" version="1.1" xmlns="http://www.w3.org/2000/svg" xmlns:xlink="http://www.w3.org/1999/xlink" xmlns:sketch="http://www.bohemiancoding.com/sketch/ns">
    <!-- Generator: Sketch 3.3 (11970) - http://www.bohemiancoding.com/sketch -->
    <title>icon-sns-mail</title>
    <desc>Created with Sketch.</desc>
    <defs></defs>
    <g id="Page-1" stroke="none" stroke-width="1" fill="none" fill-rule="evenodd" sketch:type="MSPage">
        <g id="Group" sketch:type="MSLayerGroup" transform="translate(-5.000000, -385.000000)"></g>
        <g id="mail" sketch:type="MSLayerGroup" transform="translate(4.345796, 7.807897)" stroke="#000000" fill="#000000">
            <path d="M22.9150301,0.264041449 L1.27701282,0.264041449 C0.626219713,0.264041449 0.0960472988,0.817504042 0.0960472988,1.49778267 L0.0960472988,16.7211649 C0.0960472988,17.0462289 0.217650747,17.3416828 0.414978333,17.5619223 C0.425219713,17.5764032 0.433599023,17.5925592 0.445702471,17.6061215 C0.488581782,17.6573991 0.539736954,17.6950602 0.593426609,17.7253189 C0.786409368,17.8694255 1.02221971,17.9548521 1.27701282,17.9548521 L22.9150301,17.9548521 C23.5659266,17.9548521 24.0960473,17.4013355 24.0960473,16.7211649 L24.0960473,1.49756654 C24.0960473,0.817504042 23.5663921,0.264041449 22.9150301,0.264041449 L22.9150301,0.264041449 Z M15.6943921,9.60666075 C15.4725473,9.40160457 15.1337025,9.4231098 14.9369956,9.65485841 C14.7402887,9.88709333 14.7614439,10.2410652 14.9831335,10.4464996 L21.8944094,16.8337702 L2.09239213,16.8337702 L9.00340937,10.4464996 C9.22535764,10.2410111 9.24620247,9.88709333 9.0497542,9.65485841 C8.8530473,9.4231098 8.51420247,9.40122633 8.29240937,9.60666075 L1.17040937,16.1888834 L1.17040937,2.08658301 L11.796099,9.57467307 C11.8869266,9.63864844 11.9917197,9.67058209 12.0963059,9.67058209 C12.2030128,9.67058209 12.3099783,9.63729761 12.4015818,9.57067461 L23.0228232,1.89525127 L23.0228232,16.3794586 L15.6943921,9.60666075 L15.6943921,9.60666075 Z M2.0953404,1.38560965 L21.8405645,1.38560965 L12.0924266,8.43024881 L2.0953404,1.38560965 L2.0953404,1.38560965 Z" id="Shape" sketch:type="MSShapeGroup"></path>
        </g>
    </g>
</svg>