<?xml version="1.0" encoding="UTF-8" standalone="no"?>
<svg width="32px" height="32px" viewBox="0 0 32 32" version="1.1" xmlns="http://www.w3.org/2000/svg" xmlns:xlink="http://www.w3.org/1999/xlink" xmlns:sketch="http://www.bohemiancoding.com/sketch/ns">
    <!-- Generator: Sketch 3.3.2 (12043) - http://www.bohemiancoding.com/sketch -->
    <title>icon-sns-twitter</title>
    <desc>Created with Sketch.</desc>
    <defs></defs>
    <g id="Page-1" stroke="none" stroke-width="1" fill="none" fill-rule="evenodd" sketch:type="MSPage">
        <path d="M27.99925,8.308875 C27.116125,8.700375 26.167375,8.965125 25.171375,9.084 C26.188,8.474625 26.96875,7.50975 27.33625,6.36 C26.384875,6.924375 25.331125,7.333875 24.2095,7.55475 C23.311375,6.59775 22.0315,6 20.6155,6 C17.896375,6 15.69175,8.204625 15.69175,10.92375 C15.69175,11.309625 15.73525,11.685375 15.81925,12.04575 C11.72725,11.84025 8.09875,9.880125 5.67025,6.901125 C5.2465,7.62825 5.0035,8.47425 5.0035,9.3765 C5.0035,11.085 5.87275,12.592125 7.193875,13.474875 C6.386875,13.449375 5.6275,13.22775 4.96375,12.859125 C4.963375,12.87975 4.963375,12.900375 4.963375,12.921 C4.963375,15.30675 6.660625,17.2965 8.91325,17.749125 C8.5,17.861625 8.065,17.922 7.616125,17.922 C7.298875,17.922 6.99025,17.890875 6.689875,17.8335 C7.3165,19.7895 9.134875,21.213375 11.289625,21.25275 C9.604375,22.5735 7.4815,23.360625 5.1745,23.360625 C4.777,23.360625 4.385125,23.337375 4,23.291625 C6.179125,24.688875 8.767375,25.504125 11.548,25.504125 C20.604625,25.504125 25.55725,18.001125 25.55725,11.4945 C25.55725,11.281125 25.552375,11.0685 25.543,10.857375 C26.50525,10.16325 27.34,9.295875 28,8.3085 L27.99925,8.308875 Z" id="Shape" fill="#000000" sketch:type="MSShapeGroup"></path>
    </g>
</svg>