<?xml version="1.0" encoding="UTF-8" standalone="no"?>
<svg width="64px" height="65px" viewBox="0 0 64 65" version="1.1" xmlns="http://www.w3.org/2000/svg" xmlns:xlink="http://www.w3.org/1999/xlink" xmlns:sketch="http://www.bohemiancoding.com/sketch/ns">
    <!-- Generator: Sketch 3.3 (11970) - http://www.bohemiancoding.com/sketch -->
    <title>icon-tab-notice</title>
    <desc>Created with Sketch.</desc>
    <defs></defs>
    <g id="Page-1" stroke="none" stroke-width="1" fill="none" fill-rule="evenodd" sketch:type="MSPage">
        <g id="bell-alt" sketch:type="MSLayerGroup" transform="translate(16.000000, 12.463794)" fill="#000000">
            <g id="Group" transform="translate(0.000000, 0.000000)" sketch:type="MSShapeGroup">
                <path d="M27.8146605,13.2114258 C27.9480833,7.19677735 22.364917,2.93701172 15.8937439,2.93701172 C9.42318605,2.93701172 3.86812823,6.9753418 3.86812823,13.0245361 L3.86812823,24.3428955 C1.60579651,24.6987474 0.0668558346,26.135498 0.0668558346,28.6949143 L0.0668558346,32.9342464 L31.8814329,32.9342461 L31.8814324,28.4528805 C31.8815349,26.3830026 30.185069,24.3926589 27.8146605,24.1143799 L27.8146605,13.2114258 Z M25.7261662,13.3449597 L25.7261668,24.2750251 L6.01546706,24.2750251 L6.01546705,13.151489 C6.01546705,8.538357 10.4851731,4.97821111 15.967249,4.97821111 C21.4503503,4.97821111 25.7261662,8.73182777 25.7261662,13.3449597 Z M29.9287526,31.0709228 L1.8588383,31.0709228 L1.8588383,28.6946555 C1.8588383,27.2629641 3.24271306,26.097989 4.94425557,26.097989 L26.8427201,26.097989 C28.5441601,26.097989 29.9285476,27.2626189 29.9285476,28.6946555 L29.9287526,31.4263627 L29.9287526,31.0709228 Z" id="Shape"></path>
                <path d="M18.9792153,34.3084138 C18.9792153,35.6911173 17.6421982,36.8158406 15.9996532,36.8158406 C14.3564146,36.8158406 13.0197443,35.6907282 13.0197443,34.3084138 C13.0197443,33.8391468 12.5679837,33.4587915 12.0098721,33.4587915 C11.4518762,33.4587915 11,33.8391468 11,34.3084138 C11,36.6282894 13.2430814,38.5155716 16.0002312,38.5155716 C18.756803,38.5155716 21,36.6282894 21,34.3084138 C20.9991908,33.8391468 20.5475458,33.4587915 19.9889719,33.4587915 C19.4314383,33.4587915 18.9792153,33.8391468 18.9792153,34.3084138 Z" id="Shape"></path>
                <path d="M15.8934506,4.772023 C17.3545422,4.772023 18.5435388,3.70151691 18.5435388,2.38583524 C18.5435388,1.07024169 17.3546401,1.59872116e-14 15.8934506,1.59872116e-14 C14.4325547,1.59872116e-14 13.2439496,1.07032982 13.2439496,2.38583524 C13.2439496,3.7017813 14.4320653,4.772023 15.8934506,4.772023 L15.8934506,4.772023 Z M16.8334509,2.38592337 C16.8334509,2.85256778 16.4116057,3.23231675 15.8934506,3.23231675 C15.3752955,3.23231675 14.9543312,2.8529203 14.9543312,2.38592337 C14.9540375,1.91963147 15.374904,1.54032315 15.8934506,1.54032315 C16.4116057,1.54032315 16.8334509,1.91927895 16.8334509,2.38592337 Z" id="Shape"></path>
            </g>
        </g>
    </g>
</svg>