<?xml version="1.0" encoding="UTF-8" standalone="no"?>
<svg width="64px" height="65px" viewBox="0 0 64 65" version="1.1" xmlns="http://www.w3.org/2000/svg" xmlns:xlink="http://www.w3.org/1999/xlink" xmlns:sketch="http://www.bohemiancoding.com/sketch/ns">
    <!-- Generator: Sketch 3.3 (11970) - http://www.bohemiancoding.com/sketch -->
    <title>icon-item-food</title>
    <desc>Created with Sketch.</desc>
    <defs></defs>
    <g id="Page-1" stroke="none" stroke-width="1" fill="none" fill-rule="evenodd" sketch:type="MSPage">
        <g id="Group" sketch:type="MSLayerGroup" transform="translate(-386.000000, 0.000000)"></g>
        <g id="food" sketch:type="MSLayerGroup" transform="translate(10.500000, 9.952514)">
            <path d="M12.8128528,4.09603869 C13.6122103,4.05211795 14.2283556,3.36695439 14.1844348,2.5675969 C14.141769,1.76572966 13.4566054,1.15209416 12.655993,1.19476002 C11.8528709,1.23742589 11.2379805,1.92258945 11.2819013,2.72320181 C11.325822,3.52381418 12.0109856,4.13870455 12.8128528,4.09603869" id="Fill-2" fill="#000000" sketch:type="MSShapeGroup"></path>
            <path d="M18.4284333,6.63465752 C19.2277908,6.59073678 19.8426812,5.90557322 19.8000153,5.10370598 C19.7560945,4.30183873 19.070931,3.68820324 18.2715735,3.7308691 C17.4684514,3.77478984 16.853561,4.45869852 16.8962269,5.26056576 C16.9401476,6.06243301 17.6253112,6.67732338 18.4284333,6.63465752" id="Fill-3" fill="#000000" sketch:type="MSShapeGroup"></path>
            <path d="M11.3873111,8.5972872 C11.450055,9.73797159 12.4263503,10.6151315 13.5645249,10.5523876 C14.708974,10.4896437 15.584879,9.51585813 15.5246449,8.37391886 C15.461901,7.2319796 14.4843507,6.35607453 13.3411566,6.41881845 C12.202982,6.48030749 11.325822,7.45534794 11.3873111,8.5972872" id="Fill-4" fill="#000000" sketch:type="MSShapeGroup"></path>
            <g id="GLASS" transform="translate(29.599236, 21.293293) rotate(-17.000000) translate(-29.599236, -21.293293) translate(16.265903, 3.693293)" stroke="#000000" stroke-width="2" sketch:type="MSShapeGroup">
                <path d="M6.40440896,4.59814754 L19.7407535,4.65098297 L21.4540951,18.6781387 C21.4540951,18.6781387 21.9335635,24.7320306 13.0623679,24.7653928 C4.19117225,24.7987549 4.65334682,18.6842659 4.65334682,18.6842659 L6.40440896,4.59814754 L6.40440896,4.59814754 Z" id="Path-83"></path>
                <path d="M13.2025015,26.0496807 L13.2025015,32.4496807" id="Line" stroke-linecap="square"></path>
                <path d="M17.5354202,33.1907694 L9.00208684,33.1907694" id="Line-Copy-3" stroke-linecap="round"></path>
                <path d="M5.24765625,11.7831237 C5.24765625,11.7831237 9.49063619,11.1127327 12.681218,14.0246464 C15.8717997,16.93656 19.3236745,17.7899835 21.1481537,15.8330831" id="Path-86"></path>
            </g>
            <g id="GLASS" transform="translate(10.991080, 28.764854) rotate(8.000000) translate(-10.991080, -28.764854) translate(1.924414, 14.364854)" stroke="#000000" stroke-width="2" sketch:type="MSShapeGroup">
                <path d="M2.20374006,0.61640902 L15.7557595,0.667849222 L17.4968092,14.324591 C17.4968092,14.324591 17.9840316,20.2186183 8.96937129,20.2510994 C-0.0452890386,20.2835805 0.424359795,14.3305564 0.424359795,14.3305564 L2.20374006,0.61640902 L2.20374006,0.61640902 Z" id="Path-83"></path>
                <path d="M8.7567578,20.936923 L8.7567578,26.9103465" id="Line" stroke-linecap="square"></path>
                <path d="M12.8008762,27.6020397 L4.8363117,27.6020397" id="Line-Copy-3" stroke-linecap="round"></path>
                <path d="M0.972309571,9.09562266 C0.972309571,9.09562266 4.79654775,8.28211197 8.00697454,10.7992795 C11.2174013,13.316447 15.2188233,13.1925581 16.9216962,11.3660902" id="Path-86" transform="translate(8.947003, 10.843014) scale(1, -1) translate(-8.947003, -10.843014) "></path>
            </g>
        </g>
    </g>
</svg>