<?xml version="1.0" encoding="UTF-8" standalone="no"?>
<svg width="64px" height="64px" viewBox="0 0 64 64" version="1.1" xmlns="http://www.w3.org/2000/svg" xmlns:xlink="http://www.w3.org/1999/xlink" xmlns:sketch="http://www.bohemiancoding.com/sketch/ns">
    <!-- Generator: Sketch 3.3.2 (12043) - http://www.bohemiancoding.com/sketch -->
    <title>icon-logo-utravel</title>
    <desc>Created with Sketch.</desc>
    <defs></defs>
    <g id="Page-1" stroke="none" stroke-width="1" fill="none" fill-rule="evenodd" sketch:type="MSPage">
        <path d="M25.9770543,24.5769483 C33.8510388,15.6923591 45.6022326,14.4971963 53.9142946,21.7306847 C61.3973333,28.2433049 62.6113488,39.3207622 57.027969,47.2577545 C58.7604341,44.035925 59.4684031,40.3695684 59.027845,36.6615374 C58.4622636,31.8952739 56.0734264,27.6345607 52.3023876,24.6642661 C48.432124,21.6150878 43.6752868,20.2745607 38.9179535,20.8902506 C34.0460155,21.5188397 29.6096744,24.1874909 26.4265426,28.4025607 C23.0087442,32.9291963 15.7018295,43.8042351 11.5562171,50.0271188 L15.1362481,50.0271188 C19.3671938,43.6955839 25.7537984,34.2340025 28.8024806,30.1960491 C31.4994109,26.6244522 35.2267907,24.3680801 39.2984806,23.8421886 C43.2590388,23.3321731 47.2235659,24.4529173 50.4607752,27.0024987 C53.6066977,29.4806382 55.5996279,33.0353669 56.071938,37.0127932 C56.5035659,40.6424366 55.6169922,44.2249483 53.5650233,47.2289793 C56.444031,41.1246692 54.4833488,33.6510568 48.6935814,29.8175064 C45.4553798,27.6732584 41.4754729,26.9310568 37.771907,27.7843901 C34.1392868,28.6208553 31.0538915,30.9179095 29.0852713,34.2523591 C27.1657674,37.5029638 23.9002791,44.3350878 21.259907,50.0271188 L24.5462326,50.0271188 C27.0452093,44.6699715 29.9405891,38.6584366 31.6482481,35.7660335 C33.1986357,33.1410413 35.6102946,31.3371343 38.440186,30.6852273 C41.3504496,30.0164522 44.4889302,30.603863 47.0504186,32.2991188 C51.9630388,35.5527002 53.3551628,42.143708 50.2365271,47.1054444 C51.8791938,42.3495994 49.648124,37.0256925 44.9716589,34.9255994 C42.4002481,33.7721111 39.4542636,33.7254754 36.8927752,34.7990878 C34.4746667,35.8126692 32.6385116,37.731677 31.7221705,40.2023746 C30.9244031,42.3550568 29.8954419,46.1236149 28.9141085,50.0271188 L31.9861085,50.0271188 C32.888062,46.4748708 33.8063876,43.1443901 34.5133643,41.2372894 C35.139969,39.5469948 36.3931783,38.2362351 38.0432868,37.5441421 C39.8491783,36.7875529 41.9289302,36.8227777 43.7526822,37.6413824 C47.1531163,39.1684522 48.6980465,43.1394289 47.2612713,46.5572273 L47.2612713,46.5011653 C47.2726822,44.7806072 46.6128372,43.1592739 45.4037829,41.9353359 C44.1952248,40.7109018 42.5818295,40.0312118 40.8617674,40.0202971 L40.8205891,40.0202971 C39.111938,40.0202971 37.5030078,40.6816304 36.2875039,41.8847312 C35.0655504,43.0942816 34.3883411,44.7066847 34.3813953,46.42377 C34.3774264,47.3535064 34.3734574,48.6017545 34.3699845,50.0271188 L37.3467287,50.0271188 C37.3502016,48.6072118 37.3546667,47.3634289 37.3581395,46.4361731 C37.3621085,45.5148708 37.7257674,44.6501266 38.3816434,44.0007002 C39.0355349,43.3527622 39.9012713,42.9970413 40.8210853,42.9970413 L40.8434109,42.9970413 C41.768186,43.0029948 42.635907,43.3686382 43.2858295,44.0269948 C43.9357519,44.6848553 44.2904806,45.5570413 44.2845271,46.491739 L44.2850233,50.0271188 L58.668155,50.0271188 C66.0093023,40.8021886 64.8468837,27.2991808 55.868031,19.4857235 C46.2660465,11.1285142 32.7585736,12.43977 23.7494574,22.6018785 C17.7815814,29.3332894 0.814139535,49.0790258 0,50.0271188 L3.92582946,50.0271188 C8.49513178,44.7146227 21.0316899,30.1548708 25.9770543,24.5769483" id="Imported-Layers" fill="#424242" sketch:type="MSShapeGroup"></path>
    </g>
</svg>