<?xml version="1.0" encoding="UTF-8" standalone="no"?>
<svg width="65px" height="65px" viewBox="0 0 65 65" version="1.1" xmlns="http://www.w3.org/2000/svg" xmlns:xlink="http://www.w3.org/1999/xlink" xmlns:sketch="http://www.bohemiancoding.com/sketch/ns">
    <!-- Generator: Sketch 3.3 (11970) - http://www.bohemiancoding.com/sketch -->
    <title>icon-tab-flight</title>
    <desc>Created with Sketch.</desc>
    <defs></defs>
    <g id="Page-1" stroke="none" stroke-width="1" fill="none" fill-rule="evenodd" sketch:type="MSPage">
        <g id="plane" sketch:type="MSLayerGroup" transform="translate(8.456410, 12.077405)" fill="#000000">
            <path d="M48.1311533,17.2234358 L29.6843833,11.7748827 L29.6843833,5.23243618 C29.6843833,2.36186356 27.342649,0.0265128691 24.4643027,0.0265128691 C21.5858504,0.0265128691 19.2445398,2.36175793 19.2445398,5.23243618 L19.2445398,11.8759697 L0.802535369,17.2220626 C0.364307426,17.3493455 0.062271153,17.7492567 0.062271153,18.2043063 L0.062271153,21.6953434 C0.062271153,22.2608809 0.521467954,22.7185712 1.08815663,22.7185712 L19.3282034,22.7185712 L20.2831336,33.9185155 L14.1663696,35.691392 C13.7281416,35.8184636 13.4267408,36.2181636 13.4267408,36.6734244 L13.4267408,39.7228269 C13.4267408,40.2880474 13.885514,40.7460546 14.4525204,40.7460546 L34.4752377,40.7460546 C35.0419264,40.7460546 35.5011232,40.2880474 35.5011232,39.7228269 L35.5011232,36.6734244 C35.5011232,36.220593 35.2018404,35.8205762 34.7662601,35.692237 L28.6482252,33.8856649 L29.600296,22.7184656 L47.8392838,22.7184656 C48.4062901,22.7184656 48.8651692,22.2608809 48.8651692,21.6952378 L48.8651692,18.2042007 C48.8661224,17.7513693 48.566416,17.351775 48.1311533,17.2234358 L48.1311533,17.2234358 Z M33.4493522,38.7009723 L15.4786176,38.7009723 L15.4786176,37.4424032 L24.555909,34.8118196 L33.4493522,37.438495 L33.4493522,38.7009723 L33.4493522,38.7009723 Z M46.8145632,20.6727495 L28.6584978,20.6727495 C28.1251687,20.6727495 27.681116,21.0787872 27.6358953,21.6087277 L26.6397687,33.2925583 L24.8502144,32.7642022 C24.6621301,32.7083245 24.4615492,32.7074795 24.2732531,32.7630403 L22.2938141,33.3357605 L21.2932395,21.6087277 C21.2481247,21.0795266 20.8046016,20.6727495 20.2710606,20.6727495 L2.11446571,20.6727495 L2.11446571,18.9725457 L20.5567878,13.6263472 C20.9949098,13.4994868 21.2964166,13.099153 21.2964166,12.644526 L21.2964166,5.23254181 C21.2964166,3.49019211 22.7179569,2.07296835 24.465044,2.07296835 C26.2112838,2.07296835 27.6326123,3.49019211 27.6326123,5.23254181 L27.6326123,12.5394252 C27.6326123,12.9920452 27.9318951,13.391534 28.3674755,13.5200844 L46.8145632,18.9685318 L46.8145632,20.6727495 L46.8145632,20.6727495 Z" id="Shape" sketch:type="MSShapeGroup"></path>
        </g>
    </g>
</svg>