<?xml version="1.0" encoding="UTF-8" standalone="no"?>
<svg width="65px" height="65px" viewBox="0 0 65 65" version="1.1" xmlns="http://www.w3.org/2000/svg" xmlns:xlink="http://www.w3.org/1999/xlink" xmlns:sketch="http://www.bohemiancoding.com/sketch/ns">
    <!-- Generator: Sketch 3.3 (11970) - http://www.bohemiancoding.com/sketch -->
    <title>icon-item-music-wt</title>
    <desc>Created with Sketch.</desc>
    <defs></defs>
    <g id="Page-1" stroke="none" stroke-width="1" fill="none" fill-rule="evenodd" sketch:type="MSPage">
        <g id="Group" sketch:type="MSLayerGroup" transform="translate(-258.000000, 0.000000)"></g>
        <path d="M48.7581066,13.5297496 C48.7581047,12.9770483 48.3192033,12.617656 47.7725437,12.7280849 L22.5041969,17.832459 C21.9598875,17.9424131 21.5186375,18.4786342 21.5186375,19.037856 L21.5186375,26.8039626 L21.5186375,42.7994852 C20.5367591,41.9746663 19.273538,41.4750203 17.8934265,41.4750203 C14.7829359,41.4750203 12.2524629,44.0042768 12.2524629,47.1137674 C12.2524629,50.223258 14.7829359,52.7525145 17.8934265,52.7525145 C21.0039172,52.7525145 23.5339871,50.223258 23.5339871,47.1137674 L23.5339871,27.632005 L46.7431566,22.9437942 L46.7431566,37.7047076 C45.7612783,36.8782769 44.497251,36.3794368 43.1171395,36.3794368 C40.0058428,36.3794368 37.4757728,38.9078874 37.4757728,42.017378 C37.4757728,45.1268686 40.0058428,47.6561251 43.1171395,47.6561251 C46.2244056,47.6561251 48.7528633,45.1313009 48.7577001,42.0250339 C48.7577001,42.0218103 48.7585062,21.7172438 48.7585062,21.7172438 C48.7581032,21.7168409 48.7581066,13.5297496 48.7581066,13.5297496 Z M17.8930235,50.7374098 C15.8937966,50.7374098 14.2674095,49.1115456 14.2674095,47.1133644 C14.2674095,45.1151833 15.8937966,43.4893191 17.8930235,43.4893191 C19.8918472,43.4893191 21.5182344,45.1151833 21.5182344,47.1133644 C21.5182344,49.1115456 19.8918472,50.7374098 17.8930235,50.7374098 L17.8930235,50.7374098 Z M23.5339871,25.5766064 L23.5339871,19.6791716 L46.7427535,14.9917667 L46.7427535,20.8892014 L23.5339871,25.5766064 L23.5339871,25.5766064 Z M43.1167365,45.6426322 C41.1171066,45.6426322 39.4907194,44.016768 39.4907194,42.0185868 C39.4907194,40.0204057 41.1171066,38.3945414 43.1167365,38.3945414 C45.1155602,38.3945414 46.7419474,40.0204057 46.7419474,42.0185868 C46.7419474,44.016768 45.1155602,45.6426322 43.1167365,45.6426322 L43.1167365,45.6426322 Z" id="music" fill="#FFFFFF" sketch:type="MSShapeGroup"></path>
    </g>
</svg>