<?xml version="1.0" encoding="UTF-8" standalone="no"?>
<svg width="65px" height="65px" viewBox="0 0 65 65" version="1.1" xmlns="http://www.w3.org/2000/svg" xmlns:xlink="http://www.w3.org/1999/xlink" xmlns:sketch="http://www.bohemiancoding.com/sketch/ns">
    <!-- Generator: Sketch 3.3 (11970) - http://www.bohemiancoding.com/sketch -->
    <title>icon-item-camp</title>
    <desc>Created with Sketch.</desc>
    <defs></defs>
    <g id="Page-1" stroke="none" stroke-width="1" fill="none" fill-rule="evenodd" sketch:type="MSPage">
        <g id="camp" sketch:type="MSLayerGroup" transform="translate(4.827378, 8.730347)">
            <path d="M27.9,5.4 L27.9,16.2" id="Line" stroke="#000000" stroke-width="2" stroke-linecap="round" sketch:type="MSShapeGroup"></path>
            <path d="M26.1,0 L49.5,42.3" id="Line-Copy" stroke="#000000" stroke-width="2" stroke-linecap="round" sketch:type="MSShapeGroup"></path>
            <path d="M6.3,0 L29.7,42.3" id="Line-Copy-2" stroke="#000000" stroke-width="2" stroke-linecap="round" sketch:type="MSShapeGroup" transform="translate(18.000000, 21.150000) scale(-1, 1) translate(-18.000000, -21.150000) "></path>
            <path d="M31.0967738,19.1357787 C31.5926096,19.1357787 31.9945639,19.535257 31.9945639,20.0357787 L31.9945639,20.0357787 C31.9945639,20.532835 31.5928837,20.9357787 31.0967738,20.9357787 L24.7923541,20.9357787 C24.2965183,20.9357787 23.8945639,20.5363004 23.8945639,20.0357787 L23.8945639,20.0357787 C23.8945639,19.5387224 24.2962442,19.1357787 24.7923541,19.1357787 L31.0967738,19.1357787 L31.0967738,19.1357787 Z" id="Rectangle-6-Copy" fill="#000000" sketch:type="MSShapeGroup"></path>
            <path d="M52.5053492,42.3748528 C53.0201619,42.3748528 53.4375,42.7743311 53.4375,43.2748528 L53.4375,43.2748528 C53.4375,43.7719091 53.0254691,44.1748528 52.5053492,44.1748528 L3.18215076,44.1748528 C2.66733811,44.1748528 2.25,43.7753745 2.25,43.2748528 L2.25,43.2748528 C2.25,42.7777965 2.66203088,42.3748528 3.18215076,42.3748528 L52.5053492,42.3748528 L52.5053492,42.3748528 Z" id="Rectangle-6-Copy-3" fill="#000000" sketch:type="MSShapeGroup"></path>
            <path d="M54.0779764,45.2357787 C54.587196,45.2357787 55,45.635257 55,46.1357787 L55,46.1357787 C55,46.632835 54.5931176,47.0357787 54.0779764,47.0357787 L1.48452359,47.0357787 C0.975304022,47.0357787 0.5625,46.6363004 0.5625,46.1357787 L0.5625,46.1357787 C0.5625,45.6387224 0.969382383,45.2357787 1.48452359,45.2357787 L54.0779764,45.2357787 L54.0779764,45.2357787 Z" id="Rectangle-6-Copy-4" fill="#000000" sketch:type="MSShapeGroup"></path>
            <path d="M27.9493286,20.00896 C27.9493286,20.00896 32.0525605,34.6559096 42.752091,43.2" id="Path-77" stroke="#000000" stroke-width="2" sketch:type="MSShapeGroup"></path>
            <path d="M12.6,20.00896 C12.6,20.00896 16.8547365,34.6559096 27.9493286,43.2" id="Path-77-Copy" stroke="#000000" stroke-width="2" sketch:type="MSShapeGroup" transform="translate(20.274664, 31.604480) scale(-1, 1) translate(-20.274664, -31.604480) "></path>
        </g>
    </g>
</svg>