<?xml version="1.0" encoding="UTF-8" standalone="no"?>
<svg width="65px" height="65px" viewBox="0 0 65 65" version="1.1" xmlns="http://www.w3.org/2000/svg" xmlns:xlink="http://www.w3.org/1999/xlink" xmlns:sketch="http://www.bohemiancoding.com/sketch/ns">
    <!-- Generator: Sketch 3.3 (11970) - http://www.bohemiancoding.com/sketch -->
    <title>icon-item-special</title>
    <desc>Created with Sketch.</desc>
    <defs></defs>
    <g id="Page-1" stroke="none" stroke-width="1" fill="none" fill-rule="evenodd" sketch:type="MSPage">
        <g id="Group" sketch:type="MSLayerGroup" transform="translate(-121.172622, -0.211007)"></g>
        <g id="uni" sketch:type="MSLayerGroup" transform="translate(10.000000, 12.000000)">
            <path d="M34.4796402,18.9532388 C34.4864268,15.6554925 34.5,6.06 34.5,6.06 C34.4999982,2.9104275 36.2526334,1.18355983 38.8166334,1.18355983 C38.8993023,1.18355983 39.8435499,1.08370631 39.7715894,2.1106228 C39.699629,3.13753928 38.3278386,2.9633109 37.907942,3.14724391 C36.6725904,3.6883816 36.6896802,6.24221461 36.6896802,6.24221461 C36.6896802,6.24221461 36.6530779,12.7404406 36.6347767,15.9895536 M36.5877999,24.3296211 C36.5542973,30.277528 36.521,36.189 36.521,36.189 C36.521,38.909 34.496,41.209 32.002,41.209 C31.588,41.209 8.646,41.081 5.408,40.916 M2.973,33.88 C2.988,35.233 3.211,37.299 4.111,38.321 C4.447,38.703 4.839,38.893 5.343,38.918 C7.849,39.046 21.922,39.101 27.94,39.118 C26.99,37.558 26.877,35.466 26.871,33.995 L2.973,33.88 L2.973,33.88 Z M5.408,40.916 C4.373,40.863 3.379,40.422 2.691,39.64 C0.781,37.466 0.882782944,33.55589 0.919782944,33.08389 L0.953759365,32.8498398 C1.0323167,32.3086892 1.54377043,31.8721752 2.10147851,31.8748845 L27.8805215,32.0001155 C28.4358319,32.0028131 28.8833805,32.4542441 28.880186,33.002095 L28.878,33.377 C28.867,34.773 28.847,37.371 30.015,38.548 C30.456,38.993 31.05,39.209 31.835,39.209 C33.325,39.209 34.438,37.614 34.438,36.187 L34.459681,25.4699707" id="Fill-1" fill="#1A1A1A" sketch:type="MSShapeGroup"></path>
            <path d="M6.5,32.56 C6.5,32.56 6.562,13.311 6.562,7.562 C6.562,5.325 7.177,3.602 8.388,2.441 C9.962,0.932 11.96,0.994 12.042,1.001 L39.007,1.166 L37.5057201,3.0770534 L11.994,3 C11.938,2.996 10.701,2.978 9.753,3.903 C8.963,4.673 8.563,5.905 8.563,7.562 C8.563,13.313 8.5,32.565 8.5,32.565 L6.5,32.56 Z" id="Fill-2" fill="#1A1A1A" sketch:type="MSShapeGroup"></path>
            <path d="M18.603,22.481 L13.874625,19.89575 C13.3910307,19.6313437 13.3841856,19.2063301 13.874625,18.9380938 L18.603,16.352 L21.18825,11.6244688 C21.4526563,11.1409607 21.8776011,11.1341169 22.14575,11.6244688 L24.731,16.352 L29.459375,18.9380938 C29.9429693,19.2025864 29.9498144,19.6276011 29.459375,19.89575 L24.731,22.481 L22.1323558,27.3843966 C21.875347,27.869348 21.4563991,27.8650943 21.2016445,27.3843966 L18.603,22.481 Z M17.167,19.417 L20.076,21.008 L21.667,23.916 L23.258,21.008 L26.167,19.417 L23.257,17.826 L21.667,14.918 L20.077,17.826 L17.167,19.417 L17.167,19.417 Z" id="Fill-6" fill="#1A1A1A" sketch:type="MSShapeGroup"></path>
            <g id="Fill-5-+-Rectangle-4" transform="translate(37.620850, 19.177490) rotate(30.000000) translate(-37.620850, -19.177490) translate(33.120850, 5.177490)" sketch:type="MSShapeGroup">
                <path d="M2.83498607,26.5647758 C2.26778633,26.9855522 1.39648676,26.6700745 1.39648676,25.8093197 C1.39648676,25.2086769 1.63262867,21.7907828 1.80209366,20.1119322 C1.8754815,19.3848957 1.99726457,19.4618792 1.99726457,19.4618792 C1.99726457,19.4618792 3.01201368,20.0907234 3.70493341,20.4956362 C4.39785314,20.900549 4.5943985,21.0403361 5.52054644,21.4058535 C6.44669438,21.7713709 7.39921973,21.9492002 7.39921973,21.9492002 C6.83455584,22.8774928 2.83498607,26.5647758 2.83498607,26.5647758 Z M3.05969072,21.6458339 C3.02233072,22.0484339 2.74127189,24.6200308 2.70577989,25.0118948 L4.91575418,22.6191497 L3.05969072,21.6458339 Z" id="Fill-5" fill="#1A1A1A" transform="translate(4.397853, 23.104693) rotate(-25.000000) translate(-4.397853, -23.104693) "></path>
                <rect id="Rectangle-4" stroke="#000000" stroke-width="2" x="0.635359116" y="0.528591564" width="6" height="22" rx="2"></rect>
            </g>
        </g>
    </g>
</svg>