<?xml version="1.0" encoding="UTF-8" standalone="no"?>
<svg width="64px" height="64px" viewBox="0 0 64 64" version="1.1" xmlns="http://www.w3.org/2000/svg" xmlns:xlink="http://www.w3.org/1999/xlink" xmlns:sketch="http://www.bohemiancoding.com/sketch/ns">
    <!-- Generator: Sketch 3.3.2 (12043) - http://www.bohemiancoding.com/sketch -->
    <title>icon-item-camp-wt</title>
    <desc>Created with Sketch.</desc>
    <defs></defs>
    <g id="Page-1" stroke="none" stroke-width="1" fill="none" fill-rule="evenodd" sketch:type="MSPage">
        <path d="M49.6028297,40.4315954 C51.7845689,36.9396823 53.0291776,32.8373345 53.0291776,28.5156823 C53.0291776,22.2926388 50.417308,16.2883345 45.862221,12.0424214 C41.244395,7.73716057 35.2146558,5.61363883 28.8870471,6.0578997 C17.782221,6.84016057 8.82578627,15.8045084 8.05426453,26.9110301 C7.73435148,31.5209432 8.84217757,35.9618562 11.0278732,39.7510736 C11.0465254,39.7838562 11.0646124,39.8166388 11.0832645,39.8494214 C11.1454384,39.9562475 11.2098732,40.061378 11.2737428,40.1670736 C11.3681341,40.3236388 11.4636558,40.4802041 11.5636993,40.6345084 C14.498308,45.2274649 19.0686558,48.7470736 24.6111776,50.2488562 C25.7681776,50.5625519 26.6917428,51.358378 27.1574819,52.4611171 C27.758308,53.8865954 28.1918297,55.0673345 28.5219167,56.1774214 C28.7858732,57.0636823 29.586221,57.658291 30.514308,57.658291 C31.4418297,57.658291 32.2427428,57.0636823 32.5061341,56.1774214 C32.8379167,55.0622475 33.2714384,53.8815084 33.8807428,52.4362475 C34.3340471,51.3628997 35.2762645,50.5608562 36.4654819,50.235291 C42.006308,48.7205084 46.5947428,45.1822475 49.5270906,40.5542475 C49.5530906,40.5135519 49.577395,40.472291 49.6028297,40.4315954 L49.6028297,40.4315954 Z M20.7179602,40.277291 C21.0474819,36.7085084 24.9429602,33.8208127 29.7789602,33.5591171 C30.020308,33.5461171 30.2599602,33.5393345 30.4996124,33.5393345 C33.5184384,33.5393345 36.3784384,34.5657693 38.2606124,36.3484649 C39.6160037,37.6332041 40.3326993,39.1649432 40.3326993,40.7803345 C40.3326993,43.2605084 38.5810906,45.5281606 35.8527863,46.8439867 C35.5944819,46.9129432 35.3299602,46.9739867 35.0648732,47.0338997 C35.3282645,46.5138997 35.4763515,45.9413345 35.4763515,45.3388127 C35.4763515,42.9892041 33.2505254,41.0776388 30.514308,41.0776388 C27.7775254,41.0776388 25.5511341,42.9892041 25.5511341,45.3388127 C25.5511341,45.9407693 25.6986558,46.5133345 25.9620471,47.0327693 C25.699221,46.9734214 25.4375254,46.9129432 25.1814819,46.8445519 C22.2626993,45.4354649 20.4726558,42.9372041 20.7179602,40.277291 L20.7179602,40.277291 Z M30.514308,46.9412041 C29.2651776,46.9412041 28.2104819,46.2075519 28.2104819,45.3388127 C28.2104819,44.4706388 29.2651776,43.7369867 30.514308,43.7369867 C31.762308,43.7369867 32.8170037,44.4706388 32.8170037,45.3388127 C32.8170037,46.2075519 31.762308,46.9412041 30.514308,46.9412041 L30.514308,46.9412041 Z M42.5670037,43.332291 C42.8422645,42.513291 42.9920471,41.6581171 42.9920471,40.7803345 C42.9920471,38.4510736 41.9616558,36.1907693 40.0896558,34.4176823 C37.4998297,31.9646388 33.6857428,30.6810301 29.635395,30.9031606 C23.4920471,31.2360736 18.520395,35.1609432 18.0699167,40.0325519 C17.9647863,41.1720301 18.1134384,42.2849432 18.4689602,43.3385084 C16.0096993,41.1341606 14.6627863,38.2781171 14.9436993,35.2898127 C15.4744384,29.6523345 21.6703515,25.093291 29.3578732,24.6857693 C34.5900906,24.4088127 39.6436993,26.0643345 42.864308,29.1187693 C44.9957428,31.1405519 46.122221,33.5534649 46.122221,36.0969432 C46.122221,38.7969867 44.7990471,41.3325519 42.5670037,43.332291 L42.5670037,43.332291 Z M48.766308,35.5351171 C48.6086124,32.4891606 47.1774819,29.5449432 44.6939167,27.1891171 C40.9538732,23.6429432 35.1660471,21.7149867 29.2171341,22.0298127 C20.223395,22.5068562 12.9490471,28.1002475 12.296221,35.0405519 C12.2809602,35.199378 12.2730471,35.3570736 12.2651341,35.5153345 C12.0814384,35.038291 11.9175254,34.5522041 11.7711341,34.0593345 C11.5902645,33.0018127 11.5376993,31.918291 11.6315254,30.8206388 C12.2826558,23.1636388 19.8034384,16.9773345 29.1250037,16.4307693 C29.5918732,16.4036388 30.0564819,16.3900736 30.5188297,16.3900736 C36.0087863,16.3900736 41.1488732,18.3016388 44.7911341,21.7364649 C47.791308,24.5670736 49.4440037,28.1901171 49.4440037,31.9386388 C49.4440037,32.6960301 49.3648732,33.4409867 49.2337428,34.1746388 C49.0941341,34.6347258 48.9381341,35.0885954 48.766308,35.5351171 L48.766308,35.5351171 Z M29.0950471,9.00607362 C29.5749167,8.97159535 30.0530906,8.95520405 30.5284384,8.95520405 C35.501221,8.95520405 40.1857428,10.7910301 43.847221,14.204378 C46.3912645,16.5748997 48.2321776,19.5784649 49.2269602,22.8567258 C48.4876558,21.7732041 47.6177863,20.7473345 46.6150906,19.802291 C42.136308,15.5778562 35.706395,13.3791606 28.9690037,13.7759432 C21.6279602,14.2066388 15.2607863,17.7878562 11.7700037,22.914378 C14.0529167,15.2929867 20.8982645,9.58259535 29.0950471,9.00607362 L29.0950471,9.00607362 Z" id="Imported-Layers-Copy-2" fill="#FFFFFF" sketch:type="MSShapeGroup"></path>
    </g>
</svg>