<?xml version="1.0" encoding="UTF-8" standalone="no"?>
<svg width="65px" height="64px" viewBox="0 0 65 64" version="1.1" xmlns="http://www.w3.org/2000/svg" xmlns:xlink="http://www.w3.org/1999/xlink" xmlns:sketch="http://www.bohemiancoding.com/sketch/ns">
    <!-- Generator: Sketch 3.3 (11970) - http://www.bohemiancoding.com/sketch -->
    <title>icon-item-photography</title>
    <desc>Created with Sketch.</desc>
    <defs></defs>
    <g id="Page-1" stroke="none" stroke-width="1" fill="none" fill-rule="evenodd" sketch:type="MSPage">
        <g id="Group" sketch:type="MSLayerGroup" transform="translate(10.420077, 14.500000)" fill="#000000">
            <path d="M42.744375,3.24971382 L31.6173214,3.24971382 C31.2460714,3.24971382 30.6192857,2.96402912 30.3741964,2.68398558 L29.1491518,1.28014145 C28.5251786,0.566131173 27.3411161,0.0269970026 26.3941071,0.0269970026 L18.4921875,0.0269970026 C17.5455804,0.0269970026 16.3607143,0.566131173 15.7375446,1.28014145 L14.5125,2.68398558 C14.2682143,2.96402912 13.640625,3.24971382 13.2689732,3.24971382 L2.255625,3.24971382 C1.03700893,3.24971382 0.0458035714,4.24417057 0.0458035714,5.46588567 L0.0458035714,32.4101031 C0.0458035714,33.6322211 1.03700893,34.6262749 2.255625,34.6262749 L42.7439732,34.6262749 C43.9625893,34.6262749 44.9537946,33.6322211 44.9537946,32.4101031 L44.9537946,5.46588567 C44.9541964,4.24417057 43.9633929,3.24971382 42.744375,3.24971382 L42.744375,3.24971382 Z M42.744375,32.6123791 L2.255625,32.6123791 C2.14674107,32.6123791 2.05473214,32.5201058 2.05473214,32.4109089 L2.05473214,20.5737307 L7.768125,20.5737307 C8.32299107,20.5737307 8.77258929,20.1236463 8.77258929,19.5663798 C8.77258929,19.0099192 8.32299107,18.559029 7.768125,18.559029 L2.05473214,18.559029 L2.05473214,5.46628861 C2.05473214,5.35709178 2.14674107,5.26481844 2.255625,5.26481844 L13.2689732,5.26481844 C14.2159821,5.26481844 15.4008482,4.72528133 16.0240179,4.01127105 L17.2490625,2.60742692 C17.4933482,2.32778633 18.1209375,2.04210163 18.4921875,2.04210163 L26.3941071,2.04210163 C26.7657589,2.04210163 27.3925446,2.32778633 27.6376339,2.60742692 L28.8626786,4.01127105 C29.4866518,4.72528133 30.6707143,5.26481844 31.6173214,5.26481844 L42.7439732,5.26481844 C42.8528571,5.26481844 42.9448661,5.35709178 42.9448661,5.46628861 L42.9448661,18.559029 L37.6332589,18.559029 C37.0783929,18.559029 36.6287946,19.0099192 36.6287946,19.5663798 C36.6287946,20.1236463 37.0783929,20.5737307 37.6332589,20.5737307 L42.9448661,20.5737307 L42.9448661,32.4109089 C42.9452679,32.5201058 42.8536607,32.6123791 42.744375,32.6123791 L42.744375,32.6123791 Z" id="Shape" sketch:type="MSShapeGroup"></path>
            <path d="M22.5,8.7776523 C16.7026339,8.7776523 11.986875,13.507366 11.986875,19.3209892 C11.986875,25.1346123 16.7026339,29.864326 22.5,29.864326 C28.2973661,29.864326 33.0135268,25.1346123 33.0135268,19.3209892 C33.0135268,13.507366 28.2969643,8.7776523 22.5,8.7776523 L22.5,8.7776523 Z M22.5,27.8492214 C17.8107589,27.8492214 13.9958036,24.0237058 13.9958036,19.3205862 C13.9958036,14.6182725 17.8107589,10.791951 22.5,10.791951 C27.1896429,10.791951 31.0045982,14.6178695 31.0045982,19.3205862 C31.0045982,24.0237058 27.1896429,27.8492214 22.5,27.8492214 L22.5,27.8492214 Z" id="Shape" sketch:type="MSShapeGroup"></path>
            <path d="M22.5004018,12.9916023 C19.0201339,12.9916023 16.18875,15.8311229 16.18875,19.3213921 C16.18875,22.8108554 19.0201339,25.650376 22.5004018,25.650376 C25.9802679,25.650376 28.8116518,22.8108554 28.8116518,19.3213921 C28.8116518,15.8311229 25.9802679,12.9916023 22.5004018,12.9916023 L22.5004018,12.9916023 Z M22.5004018,23.6356743 C20.1278571,23.6356743 18.1976786,21.7003518 18.1976786,19.3213921 C18.1976786,16.9416265 20.1278571,15.006304 22.5004018,15.006304 C24.8721429,15.006304 26.8027232,16.9420294 26.8027232,19.3213921 C26.8027232,21.6999489 24.8721429,23.6356743 22.5004018,23.6356743 L22.5004018,23.6356743 Z" id="Shape" sketch:type="MSShapeGroup"></path>
        </g>
    </g>
</svg>