<?xml version="1.0" encoding="UTF-8" standalone="no"?>
<svg width="65px" height="65px" viewBox="0 0 65 65" version="1.1" xmlns="http://www.w3.org/2000/svg" xmlns:xlink="http://www.w3.org/1999/xlink" xmlns:sketch="http://www.bohemiancoding.com/sketch/ns">
    <!-- Generator: Sketch 3.3 (11970) - http://www.bohemiancoding.com/sketch -->
    <title>icon-item-design</title>
    <desc>Created with Sketch.</desc>
    <defs></defs>
    <g id="Page-1" stroke="none" stroke-width="1" fill="none" fill-rule="evenodd" sketch:type="MSPage">
        <g id="Group" sketch:type="MSLayerGroup" transform="translate(16.693310, 8.553926)" fill="#000000">
            <path d="M22.4264077,42.8982371 L8.20690679,42.8982371 C7.65026722,42.8982371 7.19923197,43.3491273 7.19923197,43.9055879 C7.19923197,44.4620485 7.65026722,44.9129388 8.20690679,44.9129388 L11.6519455,44.9129388 C11.8949966,46.7205291 13.4435913,48.1207468 15.3170603,48.1207468 C17.1905293,48.1207468 18.739124,46.7205291 18.9821752,44.9129388 L22.4264077,44.9129388 C22.9830473,44.9129388 23.4340825,44.4620485 23.4340825,43.9055879 C23.4340825,43.3491273 22.9822411,42.8982371 22.4264077,42.8982371 L22.4264077,42.8982371 Z M15.3166572,46.1060451 C14.5592888,46.1060451 13.9256629,45.6007579 13.712842,44.9129388 L16.9212786,44.9129388 C16.7084577,45.6007579 16.0740256,46.1060451 15.3166572,46.1060451 L15.3166572,46.1060451 Z" id="Shape" sketch:type="MSShapeGroup"></path>
            <path d="M22.4264077,38.4965168 L8.20690679,38.4965168 C7.65026722,38.4965168 7.19923197,38.9474071 7.19923197,39.5038677 C7.19923197,40.0611342 7.65026722,40.5112185 8.20690679,40.5112185 L22.4264077,40.5112185 C22.9830473,40.5112185 23.4340825,40.0611342 23.4340825,39.5038677 C23.4340825,38.9474071 22.9822411,38.4965168 22.4264077,38.4965168 L22.4264077,38.4965168 Z" id="Shape" sketch:type="MSShapeGroup"></path>
            <path d="M15.3166572,0.232496574 C7.05654522,0.232496574 0.336160319,6.95112375 0.336160319,15.208983 C0.336160319,20.4609074 3.09194941,25.3183531 7.56723482,28.0265151 L7.56723482,36.1231983 L23.0648705,36.1231983 L23.0648705,28.0265151 C27.540962,25.3175472 30.2971542,20.4613103 30.2971542,15.208983 C30.2979603,6.95031787 23.5763662,0.232496574 15.3166572,0.232496574 L15.3166572,0.232496574 Z M21.5706902,26.5634388 L21.050327,26.8507352 L21.050327,34.1076907 L16.3243321,34.1076907 L16.3243321,19.2097776 C16.940626,19.578468 17.6597027,19.7952499 18.4295663,19.7952499 C20.7008653,19.7952499 22.549344,17.9473655 22.549344,15.6759909 C22.549344,15.1195303 22.0983088,14.66864 21.5416692,14.66864 C20.9850296,14.66864 20.5339944,15.1195303 20.5339944,15.6759909 C20.5339944,16.8360561 19.5900046,17.7805482 18.4295663,17.7805482 C17.2683218,17.7805482 16.3243321,16.8360561 16.3243321,15.6759909 L16.3243321,15.3612945 C16.3243321,14.8048339 15.8732968,14.3539436 15.3166572,14.3539436 C14.7600177,14.3539436 14.3089824,14.8048339 14.3089824,15.3612945 C14.3089824,16.5213597 13.3641865,17.4658518 12.2033451,17.4658518 C11.0429068,17.4658518 10.098917,16.5213597 10.098917,15.3612945 C10.098917,14.8048339 9.64788178,14.3539436 9.09124221,14.3539436 C8.53460264,14.3539436 8.08356739,14.8048339 8.08356739,15.3612945 C8.08356739,17.6330721 9.93164301,19.4805535 12.2033451,19.4805535 C12.9728056,19.4805535 13.6914793,19.2653834 14.3089824,18.8970959 L14.3089824,34.1076907 L9.58258446,34.1076907 L9.58258446,26.8507352 L9.06181811,26.5634388 C4.92228995,24.27917 2.35150996,19.9278173 2.35150996,15.2081771 C2.35150996,8.06162732 8.16780901,2.24719826 15.3166572,2.24719826 C22.4659085,2.24719826 28.2826107,8.06162732 28.2826107,15.2081771 C28.2826107,19.9278173 25.7106215,24.2787671 21.5706902,26.5634388 L21.5706902,26.5634388 Z" id="Shape" sketch:type="MSShapeGroup"></path>
        </g>
    </g>
</svg>