<?xml version="1.0" encoding="UTF-8" standalone="no"?>
<svg width="64px" height="64px" viewBox="0 0 64 64" version="1.1" xmlns="http://www.w3.org/2000/svg" xmlns:xlink="http://www.w3.org/1999/xlink" xmlns:sketch="http://www.bohemiancoding.com/sketch/ns">
    <!-- Generator: Sketch 3.3 (11970) - http://www.bohemiancoding.com/sketch -->
    <title>icon-item-camp</title>
    <desc>Created with Sketch.</desc>
    <defs></defs>
    <g id="Page-1" stroke="none" stroke-width="1" fill="none" fill-rule="evenodd" sketch:type="MSPage">
        <g id="icon-item-camp" sketch:type="MSLayerGroup" transform="translate(8.000000, 11.840000)">
            <g id="Page-1" sketch:type="MSShapeGroup">
                <g id="group" transform="translate(0.000000, 0.874285)">
                    <g id="Group">
                        <path d="M0.63316009,16.6873687 C0.63316009,29.4043338 10.1744695,34.761687 22.5306707,34.761687 C34.8868718,34.761687 45.3789228,29.4043338 45.3789228,16.6873687" id="Oval-7" stroke="#000000" stroke-width="2"></path>
                        <path d="M23.1475108,7.09804215 L23.1475108,0.818196052" id="Line" stroke="#000000" stroke-width="2"></path>
                        <path d="M27.1670255,7.09804215 L29.2009237,3.60923876" id="Line-Copy-4" stroke="#000000" stroke-width="2"></path>
                        <path d="M18.9421844,7.09804215 L16.9082861,3.60923876" id="Line-Copy-5" stroke="#000000" stroke-width="2"></path>
                        <path d="M43.0860203,15.2134892 C43.0860203,15.2134892 45.7054588,16.8464445 47.9804853,16.8464445" id="Path-90" stroke="#000000" stroke-width="2"></path>
                        <g id="Oval-5-+-Path-81-+-Path-81-Copy-2-+-Oval-5-+-Path-81-+-Path-81-Copy-3-+-Path-92" transform="translate(5.935839, 9.867987)">
                            <g id="Oval-5-+-Path-81-+-Path-81-Copy-2" transform="translate(19.317236, 0.778467)" stroke="#000000" stroke-width="2">
                                <ellipse id="Oval-5" cx="5.4932638" cy="5.23320509" rx="5.21512386" ry="5.23320509"></ellipse>
                                <path d="M9.20530476,8.98877928 C9.20530476,8.98877928 13.5509018,14.2492406 13.5509018,19.642917" id="Path-81"></path>
                            </g>
                            <g id="Oval-5-+-Path-81-+-Path-81-Copy-3" transform="translate(0.000000, 0.778467)">
                                <ellipse id="Oval-5" stroke="#000000" stroke-width="2" cx="8.95652325" cy="5.23320509" rx="5.21512386" ry="5.23320509"></ellipse>
                                <g id="Path-81-Copy" transform="translate(0.000000, 8.640000)">
                                    <g id="path-1-link" transform="translate(2.915103, 5.760000) scale(-1, 1) translate(-2.915103, -5.760000) translate(0.515103, 0.000000)" stroke="#000000" stroke-width="2">
                                        <path d="M0.0047533681,0.34877928 C0.0047533681,0.34877928 4.35035039,5.60924064 4.35035039,11.002917" id="path-1"></path>
                                    </g>
                                    <path d="M0.964753368,0.34877928 C0.964753368,0.34877928 5.31035039,5.60924064 5.31035039,11.002917" id="path-1"></path>
                                </g>
                            </g>
                            <path d="M12.8284811,10.6010046 C12.8284811,10.6010046 15.8886995,15.39511 16.7363608,18.3173391 C17.6174853,21.3549292 18.3242234,22.0664452 16.5028007,22.0664452 C14.6813779,22.0664452 16.2487671,19.6477007 16.7363608,18.3173391 C17.2239545,16.9869777 17.5542797,15.1806404 20.7594419,10.6010046" id="Path-92" stroke="#000000" stroke-width="2"></path>
                        </g>
                    </g>
                    <path d="M2.4955627,31.7142857 L2.4955627,31.7142857 C7.17487576,35.8846131 14.5200356,38.5714285 22.7789406,38.5714285 C31.0178438,38.5714285 38.3474224,35.8976114 43.028274,31.7445592" id="Oval-7" stroke="#000000" stroke-width="2"></path>
                </g>
            </g>
        </g>
    </g>
</svg>