<?xml version="1.0" encoding="UTF-8" standalone="no"?>
<svg width="64px" height="64px" viewBox="0 0 64 64" version="1.1" xmlns="http://www.w3.org/2000/svg" xmlns:xlink="http://www.w3.org/1999/xlink" xmlns:sketch="http://www.bohemiancoding.com/sketch/ns">
    <!-- Generator: Sketch 3.3.2 (12043) - http://www.bohemiancoding.com/sketch -->
    <title>icon-logo-udncamp</title>
    <desc>Created with Sketch.</desc>
    <defs></defs>
    <g id="Page-1" stroke="none" stroke-width="1" fill="none" fill-rule="evenodd" sketch:type="MSPage">
        <path d="M50.6028297,40.4315954 C52.7845689,36.9396823 54.0291776,32.8373345 54.0291776,28.5156823 C54.0291776,22.2926388 51.417308,16.2883345 46.862221,12.0424214 C42.244395,7.73716057 36.2146558,5.61363883 29.8870471,6.0578997 C18.782221,6.84016057 9.82578627,15.8045084 9.05426453,26.9110301 C8.73435148,31.5209432 9.84217757,35.9618562 12.0278732,39.7510736 C12.0465254,39.7838562 12.0646124,39.8166388 12.0832645,39.8494214 C12.1454384,39.9562475 12.2098732,40.061378 12.2737428,40.1670736 C12.3681341,40.3236388 12.4636558,40.4802041 12.5636993,40.6345084 C15.498308,45.2274649 20.0686558,48.7470736 25.6111776,50.2488562 C26.7681776,50.5625519 27.6917428,51.358378 28.1574819,52.4611171 C28.758308,53.8865954 29.1918297,55.0673345 29.5219167,56.1774214 C29.7858732,57.0636823 30.586221,57.658291 31.514308,57.658291 C32.4418297,57.658291 33.2427428,57.0636823 33.5061341,56.1774214 C33.8379167,55.0622475 34.2714384,53.8815084 34.8807428,52.4362475 C35.3340471,51.3628997 36.2762645,50.5608562 37.4654819,50.235291 C43.006308,48.7205084 47.5947428,45.1822475 50.5270906,40.5542475 C50.5530906,40.5135519 50.577395,40.472291 50.6028297,40.4315954 L50.6028297,40.4315954 Z M21.7179602,40.277291 C22.0474819,36.7085084 25.9429602,33.8208127 30.7789602,33.5591171 C31.020308,33.5461171 31.2599602,33.5393345 31.4996124,33.5393345 C34.5184384,33.5393345 37.3784384,34.5657693 39.2606124,36.3484649 C40.6160037,37.6332041 41.3326993,39.1649432 41.3326993,40.7803345 C41.3326993,43.2605084 39.5810906,45.5281606 36.8527863,46.8439867 C36.5944819,46.9129432 36.3299602,46.9739867 36.0648732,47.0338997 C36.3282645,46.5138997 36.4763515,45.9413345 36.4763515,45.3388127 C36.4763515,42.9892041 34.2505254,41.0776388 31.514308,41.0776388 C28.7775254,41.0776388 26.5511341,42.9892041 26.5511341,45.3388127 C26.5511341,45.9407693 26.6986558,46.5133345 26.9620471,47.0327693 C26.699221,46.9734214 26.4375254,46.9129432 26.1814819,46.8445519 C23.2626993,45.4354649 21.4726558,42.9372041 21.7179602,40.277291 L21.7179602,40.277291 Z M31.514308,46.9412041 C30.2651776,46.9412041 29.2104819,46.2075519 29.2104819,45.3388127 C29.2104819,44.4706388 30.2651776,43.7369867 31.514308,43.7369867 C32.762308,43.7369867 33.8170037,44.4706388 33.8170037,45.3388127 C33.8170037,46.2075519 32.762308,46.9412041 31.514308,46.9412041 L31.514308,46.9412041 Z M43.5670037,43.332291 C43.8422645,42.513291 43.9920471,41.6581171 43.9920471,40.7803345 C43.9920471,38.4510736 42.9616558,36.1907693 41.0896558,34.4176823 C38.4998297,31.9646388 34.6857428,30.6810301 30.635395,30.9031606 C24.4920471,31.2360736 19.520395,35.1609432 19.0699167,40.0325519 C18.9647863,41.1720301 19.1134384,42.2849432 19.4689602,43.3385084 C17.0096993,41.1341606 15.6627863,38.2781171 15.9436993,35.2898127 C16.4744384,29.6523345 22.6703515,25.093291 30.3578732,24.6857693 C35.5900906,24.4088127 40.6436993,26.0643345 43.864308,29.1187693 C45.9957428,31.1405519 47.122221,33.5534649 47.122221,36.0969432 C47.122221,38.7969867 45.7990471,41.3325519 43.5670037,43.332291 L43.5670037,43.332291 Z M49.766308,35.5351171 C49.6086124,32.4891606 48.1774819,29.5449432 45.6939167,27.1891171 C41.9538732,23.6429432 36.1660471,21.7149867 30.2171341,22.0298127 C21.223395,22.5068562 13.9490471,28.1002475 13.296221,35.0405519 C13.2809602,35.199378 13.2730471,35.3570736 13.2651341,35.5153345 C13.0814384,35.038291 12.9175254,34.5522041 12.7711341,34.0593345 C12.5902645,33.0018127 12.5376993,31.918291 12.6315254,30.8206388 C13.2826558,23.1636388 20.8034384,16.9773345 30.1250037,16.4307693 C30.5918732,16.4036388 31.0564819,16.3900736 31.5188297,16.3900736 C37.0087863,16.3900736 42.1488732,18.3016388 45.7911341,21.7364649 C48.791308,24.5670736 50.4440037,28.1901171 50.4440037,31.9386388 C50.4440037,32.6960301 50.3648732,33.4409867 50.2337428,34.1746388 C50.0941341,34.6347258 49.9381341,35.0885954 49.766308,35.5351171 L49.766308,35.5351171 Z M30.0950471,9.00607362 C30.5749167,8.97159535 31.0530906,8.95520405 31.5284384,8.95520405 C36.501221,8.95520405 41.1857428,10.7910301 44.847221,14.204378 C47.3912645,16.5748997 49.2321776,19.5784649 50.2269602,22.8567258 C49.4876558,21.7732041 48.6177863,20.7473345 47.6150906,19.802291 C43.136308,15.5778562 36.706395,13.3791606 29.9690037,13.7759432 C22.6279602,14.2066388 16.2607863,17.7878562 12.7700037,22.914378 C15.0529167,15.2929867 21.8982645,9.58259535 30.0950471,9.00607362 L30.0950471,9.00607362 Z" id="Imported-Layers" fill="#4D4D4C" sketch:type="MSShapeGroup"></path>
    </g>
</svg>