<?xml version="1.0" encoding="UTF-8" standalone="no"?>
<svg width="65px" height="65px" viewBox="0 0 65 65" version="1.1" xmlns="http://www.w3.org/2000/svg" xmlns:xlink="http://www.w3.org/1999/xlink" xmlns:sketch="http://www.bohemiancoding.com/sketch/ns">
    <!-- Generator: Sketch 3.3 (11970) - http://www.bohemiancoding.com/sketch -->
    <title>icon-item-build-wt</title>
    <desc>Created with Sketch.</desc>
    <defs></defs>
    <g id="Page-1" stroke="none" stroke-width="1" fill="none" fill-rule="evenodd" sketch:type="MSPage">
        <g id="Group" sketch:type="MSLayerGroup" transform="translate(-514.000000, 0.000000)"></g>
        <g id="Group" sketch:type="MSLayerGroup" transform="translate(10.000000, 9.165688)" fill="#FFFFFF">
            <path d="M1.50425697,12.5350709 L43.6387688,12.5350709 C44.107136,12.5350709 44.5142366,12.2115098 44.6206471,11.7549784 C44.7270576,11.298447 44.5033538,10.8286186 44.0821457,10.6223132 L23.0144867,0.307040537 C22.7351593,0.170040822 22.4074634,0.170040822 22.1281359,0.307040537 L1.06088005,10.6223132 C0.639671975,10.8286186 0.415968165,11.298447 0.522378626,11.7549784 C0.628386017,12.2115098 1.03548664,12.5350709 1.50425697,12.5350709 L1.50425697,12.5350709 Z M22.5719159,2.33383043 L39.2908535,10.5195634 L5.85297842,10.5195634 L22.5719159,2.33383043 L22.5719159,2.33383043 Z" id="Shape" sketch:type="MSShapeGroup"></path>
            <path d="M44.0684413,38.5170668 L41.5170087,38.5170668 L41.5170087,16.8924677 L44.0684413,16.8924677 C44.6250809,16.8924677 45.0761161,16.4415775 45.0761161,15.8851169 C45.0761161,15.3286563 44.6250809,14.8777661 44.0684413,14.8777661 L40.51014,14.8777661 C39.9526943,14.8777661 39.5024652,15.3286563 39.5024652,15.8851169 C39.5024652,15.9487815 39.5097204,16.0112372 39.5214095,16.0720812 C39.5089143,16.1353428 39.501659,16.1998133 39.501659,16.2667014 L39.501659,38.5166639 L37.3077494,38.5166639 L37.3077494,16.2671043 C37.3077494,16.2066633 37.3004942,16.1474311 37.2904174,16.0902135 C37.3037187,16.0241313 37.310974,15.9556315 37.310974,15.8855198 C37.310974,15.3290592 36.8607449,14.878169 36.3032992,14.878169 L29.8864259,14.878169 C29.3297863,14.878169 28.8787511,15.3290592 28.8787511,15.8855198 C28.8787511,15.9499903 28.8868125,16.012446 28.8976954,16.0744989 C28.8860064,16.1369546 28.877945,16.2010221 28.877945,16.2675073 L28.877945,38.5174697 L26.6856476,38.5174697 L26.6856476,16.2671043 C26.6856476,16.2042456 26.6775862,16.1417899 26.6667033,16.0821547 C26.6791985,16.0188931 26.6864538,15.9532138 26.6864538,15.8859228 C26.6864538,15.3290592 26.2354185,14.8785719 25.6787789,14.8785719 L19.4662621,14.8785719 C18.9096226,14.8785719 18.4585873,15.3290592 18.4585873,15.8859228 C18.4585873,15.9528109 18.4662457,16.0168784 18.4783378,16.08014 C18.4670518,16.1405811 18.4593935,16.2034398 18.4593935,16.2671043 L18.4593935,38.5170668 L16.2666931,38.5170668 L16.2666931,16.2671043 C16.2666931,16.2002162 16.2590347,16.1361487 16.2465396,16.0728871 C16.2578255,16.012446 16.2658869,15.9499903 16.2658869,15.8859228 C16.2658869,15.3290592 15.8148517,14.8785719 15.2582121,14.8785719 L8.84295114,14.8785719 C8.28631157,14.8785719 7.83527632,15.3290592 7.83527632,15.8859228 C7.83527632,15.9528109 7.84333772,16.0168784 7.85542982,16.08014 C7.84414386,16.1405811 7.83608246,16.2034398 7.83608246,16.2671043 L7.83608246,38.5170668 L5.64297898,38.5170668 L5.64297898,16.2671043 C5.64297898,16.2054545 5.63532066,16.1450134 5.62443777,16.0865871 C5.63773908,16.0217137 5.64499433,15.9544226 5.64499433,15.8859228 C5.64499433,15.3290592 5.19395909,14.8785719 4.63731952,14.8785719 L1.07539057,14.8785719 C0.518750997,14.8785719 0.0677157478,15.3290592 0.0677157478,15.8859228 C0.0677157478,16.4423834 0.518750997,16.8932736 1.07539057,16.8932736 L3.62762935,16.8932736 L3.62762935,38.5174697 L1.07539057,38.5174697 C0.518750997,38.5174697 0.0677157478,38.96836 0.0677157478,39.5248206 C0.0677157478,40.0812812 0.518750997,40.5321714 1.07539057,40.5321714 L44.0692474,40.5321714 C44.6266932,40.5321714 45.0769223,40.0812812 45.0769223,39.5248206 C45.0769223,38.96836 44.6250809,38.5170668 44.0684413,38.5170668 L44.0684413,38.5170668 Z M30.8932946,16.8924677 L35.2923998,16.8924677 L35.2923998,38.5170668 L30.8932946,38.5170668 L30.8932946,16.8924677 L30.8932946,16.8924677 Z M20.47434,16.8924677 L24.6690888,16.8924677 L24.6690888,38.5170668 L20.47434,38.5170668 L20.47434,16.8924677 L20.47434,16.8924677 Z M9.85062596,16.8924677 L14.2501342,16.8924677 L14.2501342,38.5170668 L9.85062596,38.5170668 L9.85062596,16.8924677 L9.85062596,16.8924677 Z" id="Shape" sketch:type="MSShapeGroup"></path>
            <path d="M44.0684413,42.9099224 L1.07458443,42.9099224 C0.517944857,42.9099224 0.066909608,43.3608126 0.066909608,43.9172732 C0.066909608,44.4737338 0.517944857,44.924624 1.07458443,44.924624 L44.0688444,44.924624 C44.6254839,44.924624 45.0765192,44.4737338 45.0765192,43.9172732 C45.0765192,43.3608126 44.6250809,42.9099224 44.0684413,42.9099224 L44.0684413,42.9099224 Z" id="Shape" sketch:type="MSShapeGroup"></path>
        </g>
    </g>
</svg>