<?xml version="1.0" encoding="UTF-8" standalone="no"?>
<svg width="49px" height="49px" viewBox="0 0 49 49" version="1.1" xmlns="http://www.w3.org/2000/svg" xmlns:xlink="http://www.w3.org/1999/xlink" xmlns:sketch="http://www.bohemiancoding.com/sketch/ns">
    <!-- Generator: Sketch 3.3 (11970) - http://www.bohemiancoding.com/sketch -->
    <title>icon-tab-fee</title>
    <desc>Created with Sketch.</desc>
    <defs></defs>
    <g id="Page-1" stroke="none" stroke-width="1" fill="none" fill-rule="evenodd" sketch:type="MSPage">
        <g id="icon-tab-fee" sketch:type="MSLayerGroup" transform="translate(8.500000, 8.500000)">
            <g id="Page-1" sketch:type="MSShapeGroup">
                <g id="money" transform="translate(0.174774, 0.907100)">
                    <ellipse id="Oval-1" stroke="#000000" stroke-width="1.5" cx="15.7176314" cy="15.3399104" rx="14.9012861" ry="14.8327917"></ellipse>
                    <path d="M16.3822943,14.6302196 L16.3822943,10.1257253 C16.8722881,10.2498069 17.3139387,10.5070382 17.6436682,10.8779227 C17.924979,11.193492 18.4090148,11.2218297 18.7241131,10.939888 C19.0392869,10.6578706 19.0673426,10.1733327 18.7856546,9.85700781 C18.1671478,9.1612592 17.3135615,8.712238 16.381691,8.56412599 L16.381691,7.6134887 C16.381691,7.18963142 16.0390649,6.84663121 15.6163443,6.84663121 C15.1936238,6.84663121 14.8509977,7.18963142 14.8509977,7.6134887 L14.8509977,8.59782903 C13.0542281,8.97445671 11.7054442,10.4926804 11.7054442,12.3055412 C11.7054442,14.1190821 13.0542281,15.6379102 14.8509977,16.0149913 L14.8509977,20.4934904 C13.9093981,20.1717247 13.2361375,19.3437332 13.2361375,18.3734484 C13.2361375,17.9495912 12.8935114,17.6066664 12.4707909,17.6066664 C12.0480703,17.6066664 11.7054442,17.9495912 11.7054442,18.3734484 C11.7054442,20.1860824 13.0542281,21.7042306 14.8509977,22.0813872 L14.8509977,23.066332 C14.8509977,23.4898871 15.1936238,23.8331896 15.6163443,23.8331896 C16.0390649,23.8331896 16.381691,23.4898871 16.381691,23.066332 L16.381691,22.1162238 C18.2780883,21.8154657 19.7298184,20.2540931 19.7298184,18.373524 C19.7298184,16.4929548 18.2786917,14.9309777 16.3822943,14.6302196 L16.3822943,14.6302196 L16.3822943,14.6302196 Z M13.2364391,12.3062213 C13.2364391,11.3352564 13.9096998,10.507416 14.8512994,10.1852724 L14.8512994,14.4277747 C13.9100015,14.1060088 13.2364391,13.2774129 13.2364391,12.3062213 L13.2364391,12.3062213 L13.2364391,12.3062213 Z M16.3822943,20.5543222 L16.3822943,16.1921212 C17.4286501,16.4581183 18.1997285,17.3340195 18.1997285,18.3725416 C18.1991252,19.4124239 17.4286501,20.2883251 16.3822943,20.5543222 L16.3822943,20.5543222 L16.3822943,20.5543222 Z" id="Shape-Copy" fill="#000000"></path>
                </g>
            </g>
        </g>
    </g>
</svg>