<?xml version="1.0" encoding="UTF-8" standalone="no"?>
<svg width="64px" height="65px" viewBox="0 0 64 65" version="1.1" xmlns="http://www.w3.org/2000/svg" xmlns:xlink="http://www.w3.org/1999/xlink" xmlns:sketch="http://www.bohemiancoding.com/sketch/ns">
    <!-- Generator: Sketch 3.3 (11970) - http://www.bohemiancoding.com/sketch -->
    <title>icon-tab-summary</title>
    <desc>Created with Sketch.</desc>
    <defs></defs>
    <g id="Page-1" stroke="none" stroke-width="1" fill="none" fill-rule="evenodd" sketch:type="MSPage">
        <g id="clipboard" sketch:type="MSLayerGroup" transform="translate(17.500000, 11.963794)" fill="#000000">
            <g id="Group" sketch:type="MSShapeGroup">
                <path d="M0.0786651111,5.81233715 L0.0786651111,40.8588196 L28.6390335,40.8588196 L28.6390335,5.81233715 L0.0786651111,5.81233715 L0.0786651111,5.81233715 Z M26.8987111,39.1088915 L1.81889946,39.1088915 L1.81889946,7.56191095 L26.898623,7.56191095 L26.898623,39.1088915 L26.8987111,39.1088915 Z" id="Shape"></path>
                <path d="M10.1331763,10.6753941 L18.5845224,10.6753941 C19.065146,10.6753941 19.4546836,10.2837064 19.4546836,9.80043005 C19.4546836,9.31679938 19.065146,8.92546599 18.5845224,8.92546599 L10.1331763,8.92546599 C9.65255269,8.92546599 9.26301504,9.31679938 9.26301504,9.80043005 C9.26292695,10.283795 9.65255269,10.6753941 10.1331763,10.6753941 L10.1331763,10.6753941 Z" id="Shape"></path>
                <path d="M6.74414585,4.70662989 L21.974698,4.70662989 C22.4554096,4.70662989 22.8449473,4.31538508 22.8449473,3.83166584 C22.8449473,3.34838948 22.4554096,2.95670178 21.974698,2.95670178 L17.4424248,2.95670178 C17.3302852,1.34371378 15.9916569,0.0636868957 14.3590695,0.0636868957 C12.726306,0.0636868957 11.387942,1.34300516 11.2756262,2.95670178 L6.74379348,2.95670178 C6.26316992,2.95670178 5.87363227,3.34838948 5.87363227,3.83166584 C5.87389654,4.31547366 6.26352228,4.70662989 6.74414585,4.70662989 L6.74414585,4.70662989 Z M14.3590695,1.81396932 C15.0318192,1.81396932 15.5865272,2.31044366 15.6911791,2.95705609 L13.02696,2.95705609 C13.1314357,2.31035508 13.6865842,1.81396932 14.3590695,1.81396932 L14.3590695,1.81396932 Z" id="Shape"></path>
            </g>
            <rect id="Rectangle-1" sketch:type="MSShapeGroup" x="5.29656807" y="15.922595" width="18" height="2" rx="9"></rect>
            <rect id="Rectangle-1-Copy" sketch:type="MSShapeGroup" x="5.29656807" y="21.922595" width="18" height="2" rx="9"></rect>
            <rect id="Rectangle-1-Copy-2" sketch:type="MSShapeGroup" x="5.29656807" y="27.922595" width="18" height="2" rx="9"></rect>
        </g>
    </g>
</svg>