<?xml version="1.0" encoding="UTF-8" standalone="no"?>
<svg width="47px" height="47px" viewBox="0 0 47 47" version="1.1" xmlns="http://www.w3.org/2000/svg" xmlns:xlink="http://www.w3.org/1999/xlink" xmlns:sketch="http://www.bohemiancoding.com/sketch/ns">
    <!-- Generator: Sketch 3.3 (11970) - http://www.bohemiancoding.com/sketch -->
    <title>icon-tab-place</title>
    <desc>Created with Sketch.</desc>
    <defs></defs>
    <g id="Page-1" stroke="none" stroke-width="1" fill="none" fill-rule="evenodd" sketch:type="MSPage">
        <g id="map2" sketch:type="MSLayerGroup" transform="translate(9.500000, 7.500000)" stroke="#000000" stroke-width="1.5" stroke-linecap="round">
            <g id="Group-Copy-2-+-Group-Copy-3" transform="translate(0.000000, 18.620485)" sketch:type="MSShapeGroup">
                <g id="Group-Copy-2" transform="translate(0.000000, 0.100614)">
                    <path d="M0.182001073,10.3760198 L7.11921879,6.32002367 L19.524905,11.5982122" id="Path-105"></path>
                    <path d="M3.3492033,2.922311 L7.82032493,0.510725481 L10.8556829,1.77238216 L13.632855,4.72076165 L14.8129031,3.41721396 L19.4241557,5.33389652" id="Path-105-Copy-2"></path>
                    <path d="M3.26932329,3.04769899 L0.111634113,10.3548622" id="Line"></path>
                    <path d="M7.13693706,6.34235264 L7.81114953,0.716862551" id="Line"></path>
                </g>
                <g id="Group-Copy-3" transform="translate(22.765710, 7.481681) scale(-1, 1) translate(-22.765710, -7.481681) translate(18.265710, 2.481681)">
                    <path d="M0.726656226,5.58307223 L7.75105966,9.14855334" id="Path-105"></path>
                    <path d="M3.72791371,0.602395151 L7.902094,3.02078528" id="Path-105-Copy-2"></path>
                    <path d="M0.702548285,5.57073304 L3.71370082,0.58043867" id="Line"></path>
                    <path d="M7.75,9.08377269 L7.75,2.92488449" id="Line"></path>
                </g>
            </g>
            <path d="M13.632855,23.6429916 C13.632855,23.6429916 21.8325959,13.0921677 21.8325959,8.56483908 C21.8325959,4.03751045 18.1614469,0.367385435 13.632855,0.367385435 C9.10426318,0.367385435 5.43311414,4.03751045 5.43311414,8.56483908 C5.43311414,13.0921677 13.632855,23.6429916 13.632855,23.6429916 Z M13.632855,10.8005083 C15.2796157,10.8005083 16.614579,9.46591735 16.614579,7.81961602 C16.614579,6.1733147 15.2796157,4.83872379 13.632855,4.83872379 C11.9860944,4.83872379 10.6511311,6.1733147 10.6511311,7.81961602 C10.6511311,9.46591735 11.9860944,10.8005083 13.632855,10.8005083 Z" id="Oval-10-Copy" sketch:type="MSShapeGroup"></path>
        </g>
    </g>
</svg>