<?xml version="1.0" encoding="UTF-8" standalone="no"?>
<svg width="65px" height="65px" viewBox="0 0 65 65" version="1.1" xmlns="http://www.w3.org/2000/svg" xmlns:xlink="http://www.w3.org/1999/xlink" xmlns:sketch="http://www.bohemiancoding.com/sketch/ns">
    <!-- Generator: Sketch 3.3 (11970) - http://www.bohemiancoding.com/sketch -->
    <title>icon-tab-fee</title>
    <desc>Created with Sketch.</desc>
    <defs></defs>
    <g id="Page-1" stroke="none" stroke-width="1" fill="none" fill-rule="evenodd" sketch:type="MSPage">
        <g id="money" sketch:type="MSLayerGroup" transform="translate(15.191159, 15.963794)">
            <ellipse id="Oval-1" stroke="#000000" stroke-width="2" sketch:type="MSShapeGroup" cx="17.1911593" cy="16.2986548" rx="16.2982817" ry="15.7598412"></ellipse>
            <path d="M17.9181344,15.5446083 L17.9181344,10.7585831 C18.4540651,10.8904198 18.9371204,11.1637281 19.2977621,11.5577929 C19.6054458,11.8930853 20.1348599,11.9231941 20.4794987,11.623631 C20.8242201,11.3239875 20.854906,10.809166 20.5468097,10.4730708 C19.8703179,9.7338379 18.9367079,9.25675287 17.9174745,9.09938386 L17.9174745,8.08933174 C17.9174745,7.63898338 17.5427272,7.27454566 17.0803766,7.27454566 C16.618026,7.27454566 16.2432787,7.63898338 16.2432787,8.08933174 L16.2432787,9.13519334 C14.278062,9.53536025 12.8028296,11.1484729 12.8028296,13.0746375 C12.8028296,15.0015247 14.278062,16.6152796 16.2432787,17.0159283 L16.2432787,21.7743336 C15.2134042,21.4324575 14.4770254,20.5527165 14.4770254,19.5217889 C14.4770254,19.0714406 14.1022781,18.7070831 13.6399275,18.7070831 C13.1775769,18.7070831 12.8028296,19.0714406 12.8028296,19.5217889 C12.8028296,21.4477126 14.278062,23.060745 16.2432787,23.4614739 L16.2432787,24.5079778 C16.2432787,24.958005 16.618026,25.3227639 17.0803766,25.3227639 C17.5427272,25.3227639 17.9174745,24.958005 17.9174745,24.5079778 L17.9174745,23.4984878 C19.9916591,23.1789323 21.5794889,21.5199739 21.5794889,19.5218692 C21.5794889,17.5237645 19.992319,15.8641638 17.9181344,15.5446083 L17.9181344,15.5446083 Z M14.4773553,13.0753601 C14.4773553,12.0437099 15.2137342,11.1641295 16.2436087,10.8218519 L16.2436087,15.3295106 C15.2140641,14.9876344 14.4773553,14.1072512 14.4773553,13.0753601 L14.4773553,13.0753601 Z M17.9181344,21.8389673 L17.9181344,17.2041288 C19.0625861,17.4867507 19.9059531,18.4173957 19.9059531,19.5208254 C19.9052932,20.6257004 19.0625861,21.5563454 17.9181344,21.8389673 L17.9181344,21.8389673 Z" id="Shape-Copy" fill="#000000" sketch:type="MSShapeGroup"></path>
        </g>
    </g>
</svg>