<?xml version="1.0" encoding="UTF-8" standalone="no"?>
<svg width="64px" height="65px" viewBox="0 0 64 65" version="1.1" xmlns="http://www.w3.org/2000/svg" xmlns:xlink="http://www.w3.org/1999/xlink" xmlns:sketch="http://www.bohemiancoding.com/sketch/ns">
    <!-- Generator: Sketch 3.3 (11970) - http://www.bohemiancoding.com/sketch -->
    <title>icon-item-food-wt</title>
    <desc>Created with Sketch.</desc>
    <defs></defs>
    <g id="Page-1" stroke="none" stroke-width="1" fill="none" fill-rule="evenodd" sketch:type="MSPage">
        <g id="Group" sketch:type="MSLayerGroup" transform="translate(-386.000000, 0.000000)"></g>
        <g id="food" sketch:type="MSLayerGroup" transform="translate(9.500000, 10.952514)">
            <path d="M13.8128528,3.09603869 C14.6122103,3.05211795 15.2283556,2.36695439 15.1844348,1.5675969 C15.141769,0.765729656 14.4566054,0.15209416 13.655993,0.194760023 C12.8528709,0.237425885 12.2379805,0.922589446 12.2819013,1.72320181 C12.325822,2.52381418 13.0109856,3.13870455 13.8128528,3.09603869" id="Fill-2" fill="#FFFFFF" sketch:type="MSShapeGroup"></path>
            <path d="M19.4284333,5.63465752 C20.2277908,5.59073678 20.8426812,4.90557322 20.8000153,4.10370598 C20.7560945,3.30183873 20.070931,2.68820324 19.2715735,2.7308691 C18.4684514,2.77478984 17.853561,3.45869852 17.8962269,4.26056576 C17.9401476,5.06243301 18.6253112,5.67732338 19.4284333,5.63465752" id="Fill-3" fill="#FFFFFF" sketch:type="MSShapeGroup"></path>
            <path d="M12.3873111,7.5972872 C12.450055,8.73797159 13.4263503,9.61513154 14.5645249,9.55238762 C15.708974,9.4896437 16.584879,8.51585813 16.5246449,7.37391886 C16.461901,6.2319796 15.4843507,5.35607453 14.3411566,5.41881845 C13.202982,5.48030749 12.325822,6.45534794 12.3873111,7.5972872" id="Fill-4" fill="#FFFFFF" sketch:type="MSShapeGroup"></path>
            <g id="GLASS" transform="translate(30.835974, 22.207730) rotate(-17.000000) translate(-30.835974, -22.207730) translate(21.835974, 6.707730)" stroke="#FFFFFF" stroke-width="2" sketch:type="MSShapeGroup">
                <path d="M2.40440896,0.598147544 L15.7407535,0.650982966 L17.4540951,14.6781387 C17.4540951,14.6781387 17.9335635,20.7320306 9.0623679,20.7653928 C0.191172255,20.7987549 0.653346817,14.6842659 0.653346817,14.6842659 L2.40440896,0.598147544 L2.40440896,0.598147544 Z" id="Path-83"></path>
                <path d="M9.20250147,22.0496807 L9.20250147,28.4496807" id="Line" stroke-linecap="square"></path>
                <path d="M13.5354202,29.1907694 L5.00208684,29.1907694" id="Line-Copy-3" stroke-linecap="round"></path>
                <path d="M1.24765625,7.78312367 C1.24765625,7.78312367 5.49063619,7.1127327 8.68121796,10.0246464 C11.8717997,12.93656 15.3236745,13.7899835 17.1481537,11.8330831" id="Path-86"></path>
            </g>
            <g id="GLASS" transform="translate(11.911145, 27.854603) rotate(8.000000) translate(-11.911145, -27.854603) translate(2.911145, 13.354603)" stroke="#FFFFFF" stroke-width="2" sketch:type="MSShapeGroup">
                <path d="M2.20374006,0.61640902 L15.7557595,0.667849222 L17.4968092,14.324591 C17.4968092,14.324591 17.9840316,20.2186183 8.96937129,20.2510994 C-0.0452890386,20.2835805 0.424359795,14.3305564 0.424359795,14.3305564 L2.20374006,0.61640902 L2.20374006,0.61640902 Z" id="Path-83"></path>
                <path d="M8.7567578,20.936923 L8.7567578,26.9103465" id="Line" stroke-linecap="square"></path>
                <path d="M12.8008762,27.6020397 L4.8363117,27.6020397" id="Line-Copy-3" stroke-linecap="round"></path>
                <path d="M0.972309571,9.09562266 C0.972309571,9.09562266 4.79654775,8.28211197 8.00697454,10.7992795 C11.2174013,13.316447 15.2188233,13.1925581 16.9216962,11.3660902" id="Path-86" transform="translate(8.947003, 10.843014) scale(1, -1) translate(-8.947003, -10.843014) "></path>
            </g>
        </g>
    </g>
</svg>