<?xml version="1.0" encoding="UTF-8" standalone="no"?>
<svg width="64px" height="64px" viewBox="0 0 64 64" version="1.1" xmlns="http://www.w3.org/2000/svg" xmlns:xlink="http://www.w3.org/1999/xlink" xmlns:sketch="http://www.bohemiancoding.com/sketch/ns">
    <!-- Generator: Sketch 3.3.2 (12043) - http://www.bohemiancoding.com/sketch -->
    <title>icon-item-speech-wt</title>
    <desc>Created with Sketch.</desc>
    <defs></defs>
    <g id="Page-1" stroke="none" stroke-width="1" fill="none" fill-rule="evenodd" sketch:type="MSPage">
        <g id="icon-item-speech" sketch:type="MSLayerGroup" transform="translate(5.000000, 8.000000)">
            <g id="Page-1" sketch:type="MSShapeGroup">
                <g id="icon-item-speech">
                    <g id="Page-1">
                        <g id="Group">
                            <path d="M13,21.5 L13,40.5" id="Line" stroke="#FFFFFF" stroke-width="2"></path>
                            <path d="M42,21.5 L42,40.5" id="Line-Copy-6" stroke="#FFFFFF" stroke-width="2"></path>
                            <path d="M29.2399215,31.6295277 C29.0666206,30.8060729 28.3360047,30.1878812 27.4610023,30.1878812 C26.5898544,30.1878812 25.8618236,30.8006386 25.6844057,31.6186577 C22.9900065,31.4421238 20.3489893,30.8815525 17.8423206,30.0479392 C16.7693357,29.6911093 15.7999234,29.3093803 14.952494,28.929007 C14.452118,28.7044104 14.109401,28.5335038 13.9425358,28.4427341 L12.7042384,29.7191416 C12.9272158,29.8404346 13.3286803,30.0406375 13.8913212,30.293182 C14.8155866,30.7080436 15.8656974,31.1215495 17.0245601,31.5069388 C20.336429,32.6083281 23.8707115,33.2696457 27.4913704,33.2696457 C31.0906828,33.2696457 34.7045696,32.6873673 38.1658017,31.7177613 C39.3758973,31.3787734 40.4819883,31.0152129 41.4627385,30.6507331 C42.0578692,30.4295625 42.4839071,30.2549357 42.719295,30.1503824 L41.6673572,28.7820838 C41.4795293,28.8655122 41.1029824,29.0198533 40.5600063,29.2216415 C39.6439119,29.5620931 38.6053301,29.903464 37.4667716,30.222412 C34.7835347,30.9740757 32.006795,31.4770948 29.2399215,31.6295277 L29.2399215,31.6295277 Z" id="Oval-11" fill="#FFFFFF"></path>
                            <path d="M7.17525923,11.685137 C7.28699044,11.1464369 7.82865928,10.7097342 8.37046096,10.7097342 L46.5515437,10.7097342 C47.0999041,10.7097342 47.639378,11.1504336 47.7545691,11.685137 L49.6112819,20.3037754 C49.727334,20.8424755 49.3796342,21.2791782 48.8265426,21.2791782 L6.18023964,21.2791782 C5.63078796,21.2791782 5.27677437,20.8384788 5.38767663,20.3037754 L7.17525923,11.685137 L7.17525923,11.685137 Z" id="Rectangle-9" stroke="#FFFFFF" stroke-width="2"></path>
                            <path d="M53.7967264,40 C54.305946,40 54.71875,40.3994783 54.71875,40.9 L54.71875,40.9 C54.71875,41.3970563 54.3118676,41.8 53.7967264,41.8 L1.20327359,41.8 C0.694054022,41.8 0.28125,41.4005217 0.28125,40.9 L0.28125,40.9 C0.28125,40.4029437 0.688132383,40 1.20327359,40 L53.7967264,40 L53.7967264,40 Z" id="Rectangle-6-Copy-4" fill="#FFFFFF"></path>
                            <path d="M45.1347083,43.4453467 C45.4761933,43.4453467 45.7530217,43.844825 45.7530217,44.3453467 L45.7530217,44.3453467 C45.7530217,44.8424029 45.4801644,45.2453467 45.1347083,45.2453467 L9.86529169,45.2453467 C9.52380665,45.2453467 9.24697834,44.8458683 9.24697834,44.3453467 L9.24697834,44.3453467 C9.24697834,43.8482904 9.51983557,43.4453467 9.86529169,43.4453467 L45.1347083,43.4453467 L45.1347083,43.4453467 Z" id="Rectangle-6-Copy-4" fill="#FFFFFF"></path>
                            <path d="M14.8425065,10.4476426 C14.9084499,10.0933017 15.0216007,9.74043502 15.1888834,9.42027777 C15.537328,8.75339987 16.068463,8.31191211 16.8809476,8.1391242 C17.5619141,7.99430574 18.2235325,7.82660882 18.8625877,7.64046494 C19.6639203,7.40705293 20.3908703,7.1565372 21.031422,6.90510449 C21.4219231,6.75182295 21.7012285,6.63010011 21.8571841,6.5560066 C22.3742724,6.31034116 22.5943042,5.69200702 22.3486387,5.17491864 C22.1029733,4.65783027 21.4846392,4.43779851 20.9675508,4.68346396 C20.8536848,4.737561 20.6182343,4.84017161 20.2739324,4.97531881 C19.6898124,5.20460065 19.0218182,5.43479949 18.2828213,5.65005439 C17.6916959,5.82223727 17.0794875,5.97741048 16.4497074,6.11134334 C14.9971762,6.42024745 13.9721685,7.27225003 13.3514535,8.460218 C12.8882169,9.34679273 12.7270709,10.2126954 12.7158693,10.8384134 C12.7056224,11.4108004 13.161327,11.8831185 13.7337141,11.8933653 C14.3061011,11.9036122 14.7784192,11.4479076 14.788666,10.8755206 C14.7898415,10.8098597 14.8036459,10.6564558 14.8425065,10.4476426 L14.8425065,10.4476426 Z" id="Shape" fill="#FFFFFF"></path>
                            <path d="M24,2 C22.8954305,2 22,2.8954305 22,4 C22,5.1045695 22.8954305,6 24,6 L29,6 C30.1045695,6 31,5.1045695 31,4 C31,2.8954305 30.1045695,2 29,2 L24,2 Z" id="Oval-1" stroke="#FFFFFF" stroke-width="1.8" transform="translate(26.500000, 4.000000) rotate(-15.000000) translate(-26.500000, -4.000000) "></path>
                        </g>
                    </g>
                </g>
            </g>
        </g>
    </g>
</svg>