<?xml version="1.0" encoding="UTF-8" standalone="no"?>
<svg width="65px" height="65px" viewBox="0 0 65 65" version="1.1" xmlns="http://www.w3.org/2000/svg" xmlns:xlink="http://www.w3.org/1999/xlink" xmlns:sketch="http://www.bohemiancoding.com/sketch/ns">
    <!-- Generator: Sketch 3.3 (11970) - http://www.bohemiancoding.com/sketch -->
    <title>icon-item-all</title>
    <desc>Created with Sketch.</desc>
    <defs>
        <path id="path-1" d="M7.68505859,25.4536133 C7.68505859,25.4536133 15.5541992,25.9536133 20.8427734,18.6772461 C26.1313477,11.4008789 32.4516602,6.03076172 44.9731445,11.6235352"></path>
    </defs>
    <g id="Page-1" stroke="none" stroke-width="1" fill="none" fill-rule="evenodd" sketch:type="MSPage">
        <g id="Group" sketch:type="MSLayerGroup" transform="translate(0.827378, -0.211007)"></g>
        <g id="map" sketch:type="MSLayerGroup" transform="translate(7.827378, 10.788993)">
            <path d="M33.4502625,18.4905617 C34.6832695,18.1137493 35.9922754,17.9110188 37.3486314,17.9110188 C40.0893152,17.9110188 42.6366719,18.7387502 44.7543504,20.1578618 L44.7543504,1.94489612 C44.7543504,0.831627039 43.8749123,0.105060747 42.7900704,0.303985688 L29.736261,2.69763237 L16.6824517,0.303985688 C16.5929796,0.287579401 16.5049047,0.277468385 16.4186052,0.27335038 L16.4186052,0.27335038 C16.2429901,0.134622105 16.0048584,0.0750410835 15.7426193,0.123127268 L2.66556831,2.52103571 C1.58537331,2.71910856 0.701288265,3.78073505 0.701288265,4.89034164 L0.701288265,39.764382 C0.701288265,40.8693831 1.5807264,41.6181096 2.66556831,41.4264228 L15.7193776,39.1198719 L28.773187,41.4264228 C28.7745161,41.4266576 28.775845,41.4268911 28.7771736,41.4271231 L28.7771736,41.4271231 C26.2091448,39.2660408 24.4691241,36.1525624 24.1013131,32.6308896 C24.9035865,39.0407943 30.372651,44 37,44 C44.1797017,44 50,38.1797017 50,31 C50,23.8202983 44.1797017,18 37,18 C35.769324,18 34.5785893,18.1710094 33.4502625,18.4905617 Z M33.4502625,18.4905617 C27.9958415,20.1574568 24.0286318,25.2309419 24.0286318,31.2310185 C24.0286318,31.7037996 24.0532633,32.1708277 24.1013131,32.6308896 C24.0344481,32.0966596 24,31.5523527 24,31 C24,25.0509743 27.9959875,20.0352615 33.4502625,18.4905617 Z" id="Rectangle-5" stroke="#1A1A1A" stroke-width="2" stroke-linecap="round" sketch:type="MSShapeGroup"></path>
            <polygon id="Triangle-1" fill="#1A1A1A" sketch:type="MSShapeGroup" points="37.1726219 41.2110066 39.1726219 44.2110066 35.1726219 44.2110066 "></polygon>
            <path d="M35.1726219,18.2110066 L39.1726219,18.2110066 L37.1726219,21.2110066 L35.1726219,18.2110066 Z" id="Triangle-1-Copy" fill="#1A1A1A" sketch:type="MSShapeGroup"></path>
            <path d="M24.1726219,33.2110066 L24.1726219,29.2110066 L27.1726219,31.2110066 L24.1726219,33.2110066 Z" id="Triangle-1-Copy-3" fill="#1A1A1A" sketch:type="MSShapeGroup"></path>
            <path d="M46.6726219,29.7110066 L50.6726219,29.7110066 L48.6726219,32.7110066 L46.6726219,29.7110066 Z" id="Triangle-1-Copy-2" fill="#1A1A1A" sketch:type="MSShapeGroup" transform="translate(48.672622, 31.211007) rotate(-270.000000) translate(-48.672622, -31.211007) "></path>
            <g id="Triangle-3-+-Triangle-3-Copy" transform="translate(37.000000, 31.000000) rotate(-315.000000) translate(-37.000000, -31.000000) translate(34.000000, 21.000000)" fill="#1A1A1A" sketch:type="MSShapeGroup">
                <path d="M3.95900583,10.0352554 L5,10.0352554 L3,0.0705107262 L1,10.0352554 L1.9873328,10.0352554 C1.97801945,10.0900858 1.97316932,10.1464359 1.97316932,10.2039188 C1.97316932,10.7562035 2.42088457,11.2039188 2.97316932,11.2039188 C3.52545407,11.2039188 3.97316932,10.7562035 3.97316932,10.2039188 C3.97316932,10.1464359 3.96831919,10.0900858 3.95900583,10.0352554 Z M1.9873328,10.0352554 L1,10.0352554 L3,20 L5,10.0352554 L3.95900583,10.0352554 C3.87883828,9.56328594 3.46797115,9.20391879 2.97316932,9.20391879 C2.47836749,9.20391879 2.06750035,9.56328594 1.9873328,10.0352554 Z" id="Triangle-3"></path>
            </g>
            <g id="Path-77">
                <use stroke="#1A1A1A" stroke-width="2" stroke-dasharray="3,2" sketch:type="MSShapeGroup" xlink:href="#path-1"></use>
                <use stroke="none" xlink:href="#path-1"></use>
            </g>
        </g>
    </g>
</svg>