<?xml version="1.0" encoding="UTF-8" standalone="no"?>
<svg width="64px" height="64px" viewBox="0 0 64 64" version="1.1" xmlns="http://www.w3.org/2000/svg" xmlns:xlink="http://www.w3.org/1999/xlink" xmlns:sketch="http://www.bohemiancoding.com/sketch/ns">
    <!-- Generator: Sketch 3.3.2 (12043) - http://www.bohemiancoding.com/sketch -->
    <title>icon-logo-udncwc</title>
    <desc>Created with Sketch.</desc>
    <defs></defs>
    <g id="Page-1" stroke="none" stroke-width="1" fill="none" fill-rule="evenodd" sketch:type="MSPage">
        <path d="M44.7977204,11.7227957 C41.4344946,8.20077419 36.6991398,6 31.4566452,6 C21.2791828,6 13,14.2797419 13,24.4566452 C13,27.8629247 14.0372043,31.2507527 15.9986667,34.2533333 C18.296172,37.7697634 21.5028387,41.3594409 22.7754409,42.7388387 C24.852086,44.992172 26.6474839,47.8935484 28.1101935,51.3613333 C28.8510538,53.1192688 29.3503656,54.5529032 29.6830538,55.8724731 C29.8888172,56.6888172 30.6173763,57.2591398 31.4566452,57.2591398 C32.2953548,57.2591398 33.0244731,56.6888172 33.2291183,55.8735914 C33.5623656,54.5529032 34.0622366,53.1192688 34.8030968,51.3624516 C35.0586237,50.7557849 35.328129,50.1737204 35.6037849,49.6022796 C36.9054624,46.9055484 38.424086,44.5985376 40.1378495,42.7388387 C41.1420645,41.6496344 43.3512258,39.1827097 45.3663656,36.4630538 C45.4429677,36.3607312 45.5190108,36.2584086 45.5944946,36.1549677 C46.0524301,35.5276129 46.4980645,34.8896344 46.9135054,34.2538925 C48.876086,31.2513118 49.9132903,27.8629247 49.9132903,24.4566452 C49.9132903,19.5222366 47.9630108,15.0373763 44.7977204,11.7227957 L44.7977204,11.7227957 Z M31.9956559,50.1787527 C31.8010753,50.6389247 31.6221505,51.0806452 31.4566452,51.5067097 C31.2911398,51.0806452 31.1116559,50.6389247 30.9176344,50.1781935 C29.3173763,46.3844301 27.331871,43.1867097 25.0153548,40.6739355 C22.4735054,37.9168172 20.0563441,34.8941075 18.5494624,32.5870968 C16.9117419,30.0804731 16.0461935,27.2691183 16.0461935,24.4566452 C16.0461935,15.9593978 22.9593978,9.04675269 31.4566452,9.04675269 C32.5145376,9.04675269 33.547828,9.15410753 34.5464516,9.35819355 C27.3782796,10.3523441 21.8366452,16.5051183 21.8366452,23.9416774 C21.8366452,26.6630108 22.6652903,29.3698065 24.232,31.7685161 C25.4145806,33.5778925 27.119957,35.6729892 29.5986237,38.3613333 C31.1821075,40.0790108 32.5575914,42.2803441 33.688172,44.9077419 L33.796086,45.1615914 C33.9073548,45.4255054 34.0052043,45.6726452 34.1024946,45.9181075 C33.3415054,47.2404731 32.6364301,48.6595699 31.9956559,50.1787527 L31.9956559,50.1787527 Z M37.8979355,40.6739355 C37.1984516,41.4326882 36.5336344,42.2613333 35.8956559,43.1419785 C34.7013333,40.5302366 33.2660215,38.2942366 31.6148817,36.5027527 C29.2737634,33.9642581 27.6097634,31.9250753 26.527828,30.2689032 C25.2524301,28.3169462 24.5792258,26.1290323 24.5792258,23.9416774 C24.5792258,17.3264946 29.9609462,11.9447742 36.5766882,11.9447742 C37.7497634,11.9447742 38.8809032,12.1214624 39.9533333,12.4368172 C34.6191398,13.2783226 30.5223226,17.8940215 30.5223226,23.4613763 C30.5223226,25.5285161 31.1502366,27.5822366 32.3378495,29.4 C33.3068387,30.8828387 34.6482151,32.3287742 35.831914,33.6047312 L36.3105376,34.1219355 C37.4534194,35.3609892 38.4464516,36.9573333 39.2622366,38.8656774 L39.3421935,39.0541075 C39.3427527,39.0552258 39.3433118,39.0563441 39.3433118,39.0574624 C38.8691613,39.6009462 38.3877419,40.1427527 37.8979355,40.6739355 L37.8979355,40.6739355 Z M44.3632688,32.5870968 C43.5597849,33.8172043 42.4923871,35.2536344 41.2896774,36.7426237 C40.4448172,35.0031398 39.4573763,33.4895484 38.3262366,32.2633548 L37.8420215,31.74 C36.7326882,30.5434409 35.4751828,29.188086 34.6336774,27.9003871 C33.7379355,26.5293763 33.2643441,24.9950968 33.2643441,23.4613763 C33.2643441,18.8115699 37.0469247,15.0289892 41.696172,15.0289892 C42.4443011,15.0289892 43.1655914,15.1363441 43.8566882,15.3203011 C43.8583656,15.3225376 43.8594839,15.3247742 43.8611613,15.3270108 C41.1292043,16.5509677 39.2068817,19.4171183 39.2068817,22.7507097 C39.2068817,24.2313118 39.6267957,25.7024086 40.4213333,27.0035269 C40.9402151,27.8556559 41.5860215,28.5372473 42.2111398,29.1964731 C42.4756129,29.476043 42.7406452,29.7550538 42.9911398,30.0463656 C43.5424516,30.6871398 44.0322581,31.4917419 44.4644731,32.4204731 C44.4292473,32.4752688 44.3990538,32.5323011 44.3632688,32.5870968 L44.3632688,32.5870968 Z M45.9484301,29.4430538 C45.6705376,29.0186667 45.3797849,28.6183226 45.0694624,28.2582366 C44.7915699,27.9344946 44.4963441,27.6224946 44.2005591,27.3099355 C43.6503656,26.7295484 43.1303656,26.1810323 42.7618925,25.576043 C42.2301505,24.7043441 41.9489032,23.7275269 41.9489032,22.7507097 C41.9489032,20.3967312 43.360172,18.4022796 45.3059785,17.7055914 C46.304043,19.7458925 46.8665376,22.0366882 46.8665376,24.4566452 C46.8665376,26.1418925 46.5495054,27.8249032 45.9484301,29.4430538 L45.9484301,29.4430538 Z" id="Imported-Layers" fill="#4D4D4C" sketch:type="MSShapeGroup"></path>
    </g>
</svg>