<?xml version="1.0" encoding="UTF-8" standalone="no"?>
<svg width="33px" height="33px" viewBox="0 0 33 33" version="1.1" xmlns="http://www.w3.org/2000/svg" xmlns:xlink="http://www.w3.org/1999/xlink" xmlns:sketch="http://www.bohemiancoding.com/sketch/ns">
    <!-- Generator: Sketch 3.3 (11970) - http://www.bohemiancoding.com/sketch -->
    <title>icon-sns-gplus-wt</title>
    <desc>Created with Sketch.</desc>
    <defs></defs>
    <g id="Page-1" stroke="none" stroke-width="1" fill="none" fill-rule="evenodd" sketch:type="MSPage">
        <g id="Group" sketch:type="MSLayerGroup" transform="translate(-267.000000, -385.000000)"></g>
        <path d="M17.9488759,5.90848698 L11.6690278,5.90848698 C8.85348377,5.90848698 6.20406738,8.20144464 6.20406738,10.8572121 C6.20406738,13.5714322 8.12334737,15.7619969 10.9872671,15.7619969 C11.1863952,15.7619969 11.3798982,15.7575625 11.5696512,15.7430501 C11.3836483,16.1256129 11.2508962,16.5565502 11.2508962,17.0040156 C11.2508962,17.7582568 11.6281521,18.3697928 12.1055346,18.8692609 C11.744779,18.8692609 11.3967735,18.8805483 11.0168926,18.8805483 C7.52971309,18.8805483 4.84579615,21.2678365 4.84579615,23.7438115 C4.84579615,26.1822962 7.78809213,27.7073066 11.2756466,27.7073066 C15.2514587,27.7073066 17.447118,25.282528 17.447118,22.8440433 C17.447118,20.8889019 16.9104847,19.7178326 15.2514587,18.4568671 C14.6836999,18.0247204 13.5984329,16.9745877 13.5984329,16.3570049 C13.5984329,15.633401 13.7904359,15.2770412 14.8037017,14.4260507 C15.842468,13.5536948 16.5774795,12.3273978 16.5774795,10.9007492 C16.5774795,9.20239645 15.8739685,7.54717771 14.5531978,7.00135059 L16.5444789,7.00135059 L17.9500009,5.90929322 L17.9488759,5.90848698 Z M15.7554666,22.4227809 C15.8053424,22.6489323 15.8323428,22.8815337 15.8323428,23.1189725 C15.8323428,25.0894326 14.6514494,26.6289553 11.2625214,26.6289553 C8.85198375,26.6289553 7.11120655,24.9886521 7.11120655,23.0185951 C7.11120655,21.087641 9.27049029,19.4799906 11.6806529,19.5082092 C12.2431617,19.5146591 12.7674199,19.6118115 13.2433024,19.7774946 C14.5516978,20.7558716 15.4903375,21.3085518 15.7550916,22.423184 L15.7554666,22.4227809 Z M11.8959063,15.0738677 C10.277756,15.021865 8.740232,13.127998 8.46122765,10.8447153 C8.18184828,8.56022318 9.26674023,6.8122864 10.8845155,6.86428913 C12.5019158,6.91669498 14.0401898,8.74928738 14.3195692,11.0329732 C14.5989485,13.3166591 13.5136816,15.1262735 11.8962813,15.0738677 L11.8959063,15.0738677 Z M24.3457258,10.7459504 L24.3457258,5.90848698 L22.8457024,5.90848698 L22.8457024,10.7459504 L18.3456321,10.7459504 L18.3456321,12.3584382 L22.8457024,12.3584382 L22.8457024,17.1959017 L24.3457258,17.1959017 L24.3457258,12.3584382 L28.8457962,12.3584382 L28.8457962,10.7459504 L24.3457258,10.7459504 Z" id="google" stroke="#FFFFFF" fill="#FFFFFF" sketch:type="MSShapeGroup"></path>
    </g>
</svg>