<?xml version="1.0" encoding="UTF-8" standalone="no"?>
<svg width="64px" height="64px" viewBox="0 0 64 64" version="1.1" xmlns="http://www.w3.org/2000/svg" xmlns:xlink="http://www.w3.org/1999/xlink" xmlns:sketch="http://www.bohemiancoding.com/sketch/ns">
    <!-- Generator: Sketch 3.3.2 (12043) - http://www.bohemiancoding.com/sketch -->
    <title>icon-item-camp-wt</title>
    <desc>Created with Sketch.</desc>
    <defs></defs>
    <g id="Page-1" stroke="none" stroke-width="1" fill="none" fill-rule="evenodd" sketch:type="MSPage">
        <g id="icon-item-camp-copy" sketch:type="MSLayerGroup" transform="translate(10.000000, 8.000000)" fill="#FFFFFF">
            <g id="Page-1" sketch:type="MSShapeGroup">
                <path d="M39.7791466,32.3267232 C41.8486154,29.1496937 43.0291776,25.4172755 43.0291776,21.4853286 C43.0291776,15.8234486 40.5517126,10.360583 36.2310264,6.49754551 C31.8508297,2.58051196 26.1313757,0.648478983 20.1293803,1.05267859 C9.59599892,1.76439902 1.10045458,9.92038598 0.368634681,20.0253761 C0.0651840804,24.2195899 1.1160024,28.2600431 3.18922402,31.7075675 C3.20691639,31.737394 3.22407265,31.7672204 3.24176493,31.7970468 C3.30073942,31.8942399 3.36185846,31.9898902 3.42244138,32.0860547 C3.51197539,32.2285016 3.60258162,32.3709486 3.69747697,32.5113385 C6.48107324,36.6901248 10.8162349,39.8923524 16.0735433,41.2587116 C17.1710051,41.5441198 18.0470444,42.2681822 18.488817,43.2714817 C19.0587251,44.5684174 19.4699382,45.6426832 19.7830392,46.6526679 C20.0334127,47.4590102 20.7925753,48 21.6729037,48 C22.552696,48 23.3123948,47.4590102 23.5622322,46.6526679 C23.8769415,45.638055 24.2881546,44.5637891 24.8661047,43.2488547 C25.2960824,42.2722962 26.1898141,41.542577 27.3178354,41.2463697 C32.5735353,39.8681827 36.9258533,36.6489848 39.707305,32.4383151 C39.731967,32.4012893 39.7550207,32.3637491 39.7791466,32.3267232 L39.7791466,32.3267232 L39.7791466,32.3267232 Z M11.7179602,31.5092743 C12.0474819,27.8176209 15.9429602,24.8305038 20.7789602,24.5597982 C21.020308,24.5463506 21.2599602,24.5393345 21.4996124,24.5393345 C24.5184384,24.5393345 27.3784384,25.6011088 29.2606124,27.4451814 C30.6160037,28.7741533 31.3326993,30.3586291 31.3326993,32.0296372 C31.3326993,34.5952018 29.5810906,36.9409278 26.8527863,38.3020569 C26.5944819,38.3733875 26.3299602,38.4365327 26.0648732,38.4985084 C26.3282645,37.9606052 26.4763515,37.368327 26.4763515,36.7450608 C26.4763515,34.3145567 24.2505254,32.3371775 21.514308,32.3371775 C18.7775254,32.3371775 16.5511341,34.3145567 16.5511341,36.7450608 C16.5511341,37.3677423 16.6986558,37.9600205 16.9620471,38.4973391 C16.699221,38.4359479 16.4375254,38.3733875 16.1814819,38.3026415 C13.2626993,36.8450406 11.4726558,34.2607664 11.7179602,31.5092743 L11.7179602,31.5092743 L11.7179602,31.5092743 Z M21.4865159,38.9369867 C19.8347713,38.9369867 18.4401307,37.9668669 18.4401307,36.8181195 C18.4401307,35.6701196 19.8347713,34.7 21.4865159,34.7 C23.1367658,34.7 24.5314064,35.6701196 24.5314064,36.8181195 C24.5314064,37.9668669 23.1367658,38.9369867 21.4865159,38.9369867 L21.4865159,38.9369867 L21.4865159,38.9369867 Z M33.5670037,35.332291 C33.8422645,34.513291 33.9920471,33.6581171 33.9920471,32.7803345 C33.9920471,30.4510736 32.9616558,28.1907693 31.0896558,26.4176823 C28.4998297,23.9646388 24.6857428,22.6810301 20.635395,22.9031606 C14.4920471,23.2360736 9.520395,27.1609432 9.0699167,32.0325519 C8.9647863,33.1720301 9.1134384,34.2849432 9.4689602,35.3385084 C7.0096993,33.1341606 5.6627863,30.2781171 5.9436993,27.2898127 C6.4744384,21.6523345 12.6703515,17.093291 20.3578732,16.6857693 C25.5900906,16.4088127 30.6436993,18.0643345 33.864308,21.1187693 C35.9957428,23.1405519 37.122221,25.5534649 37.122221,28.0969432 C37.122221,30.7969867 35.7990471,33.3325519 33.5670037,35.332291 L33.5670037,35.332291 L33.5670037,35.332291 Z M39.766308,28.5351171 C39.6086124,25.4891606 38.1774819,22.5449432 35.6939167,20.1891171 C31.9538732,16.6429432 26.1660471,14.7149867 20.2171341,15.0298127 C11.223395,15.5068562 3.9490471,21.1002475 3.296221,28.0405519 C3.2809602,28.199378 3.2730471,28.3570736 3.2651341,28.5153345 C3.0814384,28.038291 2.9175254,27.5522041 2.7711341,27.0593345 C2.5902645,26.0018127 2.5376993,24.918291 2.6315254,23.8206388 C3.2826558,16.1636388 10.8034384,9.9773345 20.1250037,9.4307693 C20.5918732,9.4036388 21.0564819,9.3900736 21.5188297,9.3900736 C27.0087863,9.3900736 32.1488732,11.3016388 35.7911341,14.7364649 C38.791308,17.5670736 40.4440037,21.1901171 40.4440037,24.9386388 C40.4440037,25.6960301 40.3648732,26.4409867 40.2337428,27.1746388 C40.0941341,27.6347258 39.9381341,28.0885954 39.766308,28.5351171 L39.766308,28.5351171 L39.766308,28.5351171 Z M21.5284384,2.95520405 C26.501221,2.95520405 31.1857428,4.7910301 34.847221,8.204378 C37.3912645,10.5748997 39.2321776,13.5784649 40.2269602,16.8567258 C39.4876558,15.7732041 38.6177863,14.7473345 37.6150906,13.802291 C33.136308,9.5778562 26.706395,7.3791606 19.9690037,7.7759432 C12.6279602,8.2066388 6.2607863,11.7878562 2.7700037,16.914378 C5.0529167,9.2929867 11.8982645,3.58259535 20.0950471,3.00607362 C20.5749167,2.97159535 21.0530906,2.95520405 21.5284384,2.95520405 Z" id="Imported-Layers-Copy"></path>
            </g>
        </g>
    </g>
</svg>