<?xml version="1.0" encoding="UTF-8" standalone="no"?>
<svg width="32px" height="32px" viewBox="0 0 32 32" version="1.1" xmlns="http://www.w3.org/2000/svg" xmlns:xlink="http://www.w3.org/1999/xlink" xmlns:sketch="http://www.bohemiancoding.com/sketch/ns">
    <!-- Generator: Sketch 3.2.2 (9983) - http://www.bohemiancoding.com/sketch -->
    <title>sns-mail-white</title>
    <desc>Created with Sketch.</desc>
    <defs></defs>
    <g id="Page-1" stroke="none" stroke-width="1" fill="none" fill-rule="evenodd" sketch:type="MSPage">
        <path d="M16,0 C7.1635,0 0,7.1635 0,16 C0,24.8365 7.1635,32 16,32 C24.8365,32 32,24.8365 32,16 C32,7.1635 24.8365,0 16,0 L16,0 Z M8,8 L24,8 C24.2855,8 24.5625,8.0615 24.817,8.177 L16,18.4635 L7.183,8.177 C7.4375,8.0615 7.7145,8 8,8 L8,8 Z M6,22 L6,10 C6,9.958 6.002,9.9165 6.0045,9.875 L11.869,16.717 L6.069,22.517 C6.024,22.35 6,22.177 6,22 L6,22 Z M24,24 L8,24 C7.8235,24 7.65,23.976 7.483,23.931 L13.174,18.24 L15.9995,21.537 L18.825,18.2405 L24.516,23.932 C24.349,23.977 24.176,24.001 23.999,24.001 L24,24 Z M26,22 C26,22.1765 25.976,22.35 25.931,22.517 L20.131,16.717 L25.9955,9.875 C25.998,9.9165 26,9.958 26,10 L26,22 L26,22 Z" id="Shape" fill="#FFFFFF" sketch:type="MSShapeGroup"></path>
    </g>
</svg>