<?xml version="1.0" encoding="UTF-8" standalone="no"?>
<svg width="32px" height="32px" viewBox="0 0 32 32" version="1.1" xmlns="http://www.w3.org/2000/svg" xmlns:xlink="http://www.w3.org/1999/xlink" xmlns:sketch="http://www.bohemiancoding.com/sketch/ns">
    <!-- Generator: Sketch 3.2.2 (9983) - http://www.bohemiancoding.com/sketch -->
    <title>sns-fb-black</title>
    <desc>Created with Sketch.</desc>
    <defs></defs>
    <g id="Page-1" stroke="none" stroke-width="1" fill="none" fill-rule="evenodd" sketch:type="MSPage">
        <path d="M16,0 C7.1635,0 0,7.1635 0,16 C0,24.8365 7.1635,32 16,32 L16,20 L12,20 L12,16 L16,16 L16,13 C16,10.2385 18.2385,8 21,8 L26,8 L26,12 L21,12 C20.4475,12 20,12.4475 20,13 L20,16 L25.5,16 L24.5,20 L20,20 L20,31.496 C26.901,29.72 32,23.4555 32,16 C32,7.1635 24.8365,0 16,0 L16,0 Z" id="Shape" fill="#000000" sketch:type="MSShapeGroup"></path>
    </g>
</svg>