<?xml version="1.0" encoding="UTF-8" standalone="no"?>
<svg width="32px" height="32px" viewBox="0 0 32 32" version="1.1" xmlns="http://www.w3.org/2000/svg" xmlns:xlink="http://www.w3.org/1999/xlink" xmlns:sketch="http://www.bohemiancoding.com/sketch/ns">
    <!-- Generator: Sketch 3.2.2 (9983) - http://www.bohemiancoding.com/sketch -->
    <title>sns-gplus-white</title>
    <desc>Created with Sketch.</desc>
    <defs></defs>
    <g id="Page-1" stroke="none" stroke-width="1" fill="none" fill-rule="evenodd" sketch:type="MSPage">
        <path d="M13.6557866,25.5671005 C13.6557866,27.9130639 12.2063093,29.7670349 8.10087341,29.9160326 C5.69541099,28.5475539 3.67944249,26.5740848 2.25996467,24.2016218 C3.0004531,22.3736504 5.31291697,20.9816722 7.95737565,21.0106717 C8.70786392,21.0186716 9.40785299,21.1391697 10.0433431,21.3451665 C11.7903158,22.5596475 13.1997937,23.3186356 13.5532882,24.702614 C13.6192872,24.9826096 13.6557866,25.2716051 13.6557866,25.5666005 L13.6557866,25.5671005 Z M15.99925,0 C11.3763222,0 7.2118873,1.96146935 4.29093294,5.09692036 C5.44491491,4.45793034 6.80789361,4.0769363 8.25637098,4.0769363 L16.2697458,4.0769363 L14.4792737,5.95640693 L12.3758066,5.95640693 C13.8597834,6.80689364 14.6492711,8.55786628 14.6492711,10.4878361 C14.6492711,12.2593084 13.6677864,13.6872861 12.2813081,14.7707692 C10.9288292,15.8272527 10.6723332,16.2697458 10.6723332,17.1687317 C10.6723332,17.9357198 12.288808,19.0782019 13.0317964,19.6356932 C15.6197559,21.5766629 16.1437477,22.7976438 16.1437477,25.2251059 C16.1437477,27.6850674 13.9892814,30.1345291 10.3353385,30.9670161 C12.096311,31.6340057 14.0047812,32 15.99925,32 C24.8356119,32 31.999,24.8366119 31.999,16.00025 C31.999,7.16388806 24.8356119,0.000499992188 15.99925,0.000499992188 L15.99925,0 Z M23.999125,11.9998125 L23.999125,15.99975 L21.9991562,15.99975 L21.9991562,11.9998125 L17.9992187,11.9998125 L17.9992187,9.99984375 L21.9991562,9.99984375 L21.9991562,5.99990625 L23.999125,5.99990625 L23.999125,9.99984375 L27.9990625,9.99984375 L27.9990625,11.9998125 L23.999125,11.9998125 L23.999125,11.9998125 Z M11.4293214,10.6083342 C11.8018156,13.4452899 10.559335,15.2702614 8.40036873,15.2062624 C6.24040248,15.1412634 4.18793455,13.1597944 3.81494038,10.3238387 C3.4424462,7.48688302 4.89042357,5.31591694 7.05038982,5.38041593 C9.20935609,5.44541492 11.0573272,7.77237856 11.4298214,10.6088342 L11.4293214,10.6083342 Z M6.90189214,20.0641865 C4.56792861,20.0641865 2.58545959,20.8696739 1.18798142,22.0601553 C0.422493383,20.1906845 -0.001,18.1447165 -0.001,15.99975 C-0.001,14.2257777 0.288495477,12.5198044 0.821487149,10.9248293 C1.05198355,14.0322807 3.23894938,16.4307433 6.85189292,16.4307433 C7.11788877,16.4307433 7.37588474,16.4167435 7.62938078,16.3987438 C7.38088466,16.8747363 7.20388742,17.4047281 7.20388742,17.9607194 C7.20388742,18.8972047 7.71887938,19.4316964 8.35586942,20.0511867 C7.87437695,20.0511867 7.4098842,20.0641865 6.90239213,20.0641865 L6.90189214,20.0641865 Z" id="Shape" fill="#FFFFFF" sketch:type="MSShapeGroup"></path>
    </g>
</svg>