<?xml version="1.0" encoding="UTF-8" standalone="no"?>
<svg width="64px" height="64px" viewBox="0 0 64 64" version="1.1" xmlns="http://www.w3.org/2000/svg" xmlns:xlink="http://www.w3.org/1999/xlink" xmlns:sketch="http://www.bohemiancoding.com/sketch/ns">
    <!-- Generator: Sketch 3.2.2 (9983) - http://www.bohemiancoding.com/sketch -->
    <title>empty-icon-follow</title>
    <desc>Created with Sketch.</desc>
    <defs></defs>
    <g id="Page-1" stroke="none" stroke-width="1" fill="none" fill-rule="evenodd" sketch:type="MSPage">
        <g id="empty-icon-follow" sketch:type="MSLayerGroup" transform="translate(1.500000, 4.000000)" stroke="#777777" stroke-dasharray="5">
            <g id="Page-1" sketch:type="MSShapeGroup">
                <path d="M53.0550144,31.5938333 L30.5003534,55.5 L7.94229296,31.5871753 C3.14343199,26.5741553 0.5,20.688643 0.5,15.013819 C0.5,6.1973133 5.88134824,0.5 14.2089874,0.5 C21.5633124,0.5 24.2329507,3.78002 28.6555749,9.2144167 L29.4771764,10.221844 C29.7325812,10.5340298 30.1059847,10.7134995 30.4982287,10.7134995 C30.8906142,10.7134995 31.2651512,10.5340298 31.5199892,10.221844 L32.3478237,9.2065753 C36.7678979,3.777357 39.4365447,0.5 46.7878949,0.5 C55.1175174,0.5 60.4999989,6.1973133 60.4999989,15.013819 C60.5019819,20.688643 57.8585499,26.5741553 53.0550144,31.5938333 L53.0550144,31.5938333 L53.0550144,31.5938333 Z" id="list-title-icon-follow"></path>
            </g>
        </g>
    </g>
</svg>