<?xml version="1.0" encoding="UTF-8" standalone="no"?>
<svg width="65px" height="64px" viewBox="0 0 65 64" version="1.1" xmlns="http://www.w3.org/2000/svg" xmlns:xlink="http://www.w3.org/1999/xlink" xmlns:sketch="http://www.bohemiancoding.com/sketch/ns">
    <!-- Generator: Sketch 3.2.2 (9983) - http://www.bohemiancoding.com/sketch -->
    <title>empty-icon-favorite</title>
    <desc>Created with Sketch.</desc>
    <defs></defs>
    <g id="Page-1" stroke="none" stroke-width="1" fill="none" fill-rule="evenodd" sketch:type="MSPage">
        <g id="empty-icon-favorite" sketch:type="MSLayerGroup" transform="translate(0.500000, -0.500000)" stroke="#777777" stroke-dasharray="5">
            <g id="Page-1" sketch:type="MSShapeGroup">
                <path d="M63.6318747,25.9269107 C63.1891379,26.2397421 48.8094363,37.2273835 45.9316461,39.4252667 L44.8671968,40.2392736 L45.2770984,41.5512307 C47.6569637,49.200928 51.6112275,61.8889859 52.0183541,63.1301528 L52.0152712,63.1301528 C52.0778587,63.325592 52.0920411,63.4550784 52.0920411,63.5286099 C52.0920411,64.0549408 51.6728899,64.5 51.1755816,64.5 C50.9879733,64.5 50.8103853,64.4398525 50.6680989,64.3363277 C50.3371253,64.0897715 39.0104899,55.4623952 33.0686888,50.9356915 L31.9986896,50.1210395 L13.354716,64.3192349 C13.1866856,64.4396912 13.0069395,64.4998387 12.8207187,64.4998387 C12.3180149,64.4998387 11.90688,64.0634872 11.90688,63.5284485 C11.90688,63.4524984 11.9202915,63.322528 11.9833416,63.1211227 L11.9825707,63.1211227 C12.3855352,61.8888245 15.8306208,50.8368432 18.7208976,41.5510693 L19.1298744,40.2391123 L18.0646541,39.4251053 C15.186864,37.2257709 0.809937333,26.2411933 0.3957192,25.9483573 C0.147681867,25.7669475 0,25.4663712 0,25.1459608 C0,24.5810904 0.4139096,24.0849139 0.8871696,24.0849139 L24.0508523,24.0849139 L31.1300189,1.20548336 C31.2237459,0.85378984 31.5292837,0.5 31.9994605,0.5 C32.4691747,0.5 32.7745584,0.85378984 32.8684397,1.20387083 L39.9776667,24.0847525 L63.1408869,24.0847525 C63.6064389,24.0847525 64,24.5633525 64,25.1296741 C63.9970709,25.4620173 63.8492352,25.7669475 63.6318747,25.9269107 L63.6318747,25.9269107 L63.6318747,25.9269107 Z" id="list-title-icon-favorite"></path>
            </g>
        </g>
    </g>
</svg>