<?xml version="1.0" encoding="UTF-8" standalone="no"?>
<svg width="64px" height="64px" viewBox="0 0 64 64" version="1.1" xmlns="http://www.w3.org/2000/svg" xmlns:xlink="http://www.w3.org/1999/xlink" xmlns:sketch="http://www.bohemiancoding.com/sketch/ns">
    <!-- Generator: Sketch 3.2.2 (9983) - http://www.bohemiancoding.com/sketch -->
    <title>favorite</title>
    <desc>Created with Sketch.</desc>
    <defs></defs>
    <g id="Page-1" stroke="none" stroke-width="1" fill="none" fill-rule="evenodd" sketch:type="MSPage">
        <path d="M0,0 L64,0 L64,64 L0,0 Z" id="Rectangle-1" fill-opacity="0.6" fill="#FFFFFF" sketch:type="MSShapeGroup"></path>
        <path d="M56.861953,16.5350915 C56.6959267,16.6524033 51.3035386,20.7727688 50.2243673,21.596975 L49.8251988,21.9022276 L49.9789119,22.3942115 C50.8713614,25.262848 52.3542103,30.0208697 52.5068828,30.4863073 L52.5057267,30.4863073 C52.529197,30.559597 52.5345154,30.6081544 52.5345154,30.6357287 C52.5345154,30.8331028 52.3773337,31 52.1908431,31 C52.12049,31 52.0538945,30.9774447 52.0005371,30.9386229 C51.876422,30.8461643 47.6289337,27.6108982 45.4007583,25.9133843 L44.9995086,25.6078898 L38.0080185,30.9322131 C37.9450071,30.9773842 37.8776023,30.9999395 37.8077695,30.9999395 C37.6192556,30.9999395 37.46508,30.8363077 37.46508,30.6356682 C37.46508,30.6071869 37.4701093,30.558448 37.4937531,30.482921 L37.493464,30.482921 C37.6445757,30.0208092 38.9364828,25.8763162 40.0203366,22.394151 L40.1737029,21.9021671 L39.7742453,21.5969145 C38.695074,20.7721641 33.3037265,16.6529475 33.1483947,16.543134 C33.0553807,16.4751053 33,16.3623892 33,16.2422353 C33,16.0304089 33.1552161,15.8443427 33.3326886,15.8443427 L42.0190696,15.8443427 L44.6737571,7.26455626 C44.7089047,7.13267119 44.8234814,7 44.9997977,7 C45.1759405,7 45.2904594,7.13267119 45.3256649,7.26395156 L47.991625,15.8442822 L56.6778326,15.8442822 C56.8524146,15.8442822 57,16.0237572 57,16.2361278 C56.9989016,16.3607565 56.9434632,16.4751053 56.861953,16.5350915 L56.861953,16.5350915 Z" id="Shape-5" stroke="#989898" stroke-width="2" sketch:type="MSShapeGroup"></path>
    </g>
</svg>