<?xml version="1.0" encoding="UTF-8" standalone="no"?>
<svg width="56px" height="56px" viewBox="0 0 56 56" version="1.1" xmlns="http://www.w3.org/2000/svg" xmlns:xlink="http://www.w3.org/1999/xlink" xmlns:sketch="http://www.bohemiancoding.com/sketch/ns">
    <!-- Generator: Sketch 3.3 (11970) - http://www.bohemiancoding.com/sketch -->
    <title>follow</title>
    <desc>Created with Sketch.</desc>
    <defs></defs>
    <g id="Page-1" stroke="none" stroke-width="1" fill="none" fill-rule="evenodd" sketch:type="MSPage">
        <g id="follow-active" sketch:type="MSLayerGroup">
            <g id="Page-1" sketch:type="MSShapeGroup">
                <g id="follow-active">
                    <g id="Page-1">
                        <path d="M0,0 L56,0 L56,56 L0,0 L0,0 Z" id="Rectangle-3" fill-opacity="0.5" fill="#000000"></path>
                        <path d="M46.3942551,18.7578416 L38.5001237,27.125 L30.6048026,18.7555113 C28.9252012,17.0009543 28,14.9410251 28,12.9548367 C28,9.86905964 29.8834719,7.875 32.7981456,7.875 C35.3721594,7.875 36.3065328,9.023007 37.8544513,10.9250459 L38.1420118,11.2776454 C38.2314034,11.3869104 38.3620947,11.4497248 38.4993801,11.4497248 C38.636715,11.4497248 38.7678029,11.3869104 38.8569962,11.2776454 L39.1467383,10.9223013 C40.6937643,9.02207495 41.6277907,7.875 44.2007633,7.875 C47.1161311,7.875 48.9999997,9.86905964 48.9999997,12.9548367 C49.0006937,14.9410251 48.0754925,17.0009543 46.3942551,18.7578416 L46.3942551,18.7578416 L46.3942551,18.7578416 Z" id="Shape-3" fill="#A9A9A9"></path>
                    </g>
                </g>
            </g>
        </g>
    </g>
</svg>