<?xml version="1.0" encoding="UTF-8" standalone="no"?>
<svg width="100px" height="36px" viewBox="0 0 100 36" version="1.1" xmlns="http://www.w3.org/2000/svg" xmlns:xlink="http://www.w3.org/1999/xlink" xmlns:sketch="http://www.bohemiancoding.com/sketch/ns">
    <!-- Generator: Sketch 3.3.2 (12043) - http://www.bohemiancoding.com/sketch -->
    <title>follow-mobile</title>
    <desc>Created with Sketch.</desc>
    <defs></defs>
    <g id="Page-1" stroke="none" stroke-width="1" fill="none" fill-rule="evenodd" sketch:type="MSPage">
        <g id="follow-mobile" sketch:type="MSLayerGroup">
            <g id="Page-1" sketch:type="MSShapeGroup">
                <g id="Group">
                    <path d="M0,0 L100,0 L100,36 L36.5332031,36 L0,0 L0,0 Z" id="Rectangle-3" fill-opacity="0.5" fill="#000000"></path>
                    <path d="M90.3942551,18.7578416 L82.5001237,27.125 L74.6048026,18.7555113 C72.9252012,17.0009543 72,14.9410251 72,12.9548367 C72,9.86905964 73.8834719,7.875 76.7981456,7.875 C79.3721594,7.875 80.3065328,9.023007 81.8544513,10.9250459 L82.1420118,11.2776454 C82.2314034,11.3869104 82.3620947,11.4497248 82.4993801,11.4497248 C82.636715,11.4497248 82.7678029,11.3869104 82.8569962,11.2776454 L83.1467383,10.9223013 C84.6937643,9.02207495 85.6277907,7.875 88.2007633,7.875 C91.1161311,7.875 92.9999997,9.86905964 92.9999997,12.9548367 C93.0006937,14.9410251 92.0754925,17.0009543 90.3942551,18.7578416 L90.3942551,18.7578416 L90.3942551,18.7578416 Z" id="Shape-3" fill="#A9A9A9"></path>
                    <path d="M39.757,13.537 C39.757,12.9736638 39.7505001,12.5446681 39.7375,12.25 C39.7244999,11.9553319 39.6963335,11.7343341 39.653,11.587 C39.9043346,11.6303335 40.1188324,11.6584999 40.2965,11.6715 C40.4741676,11.6845001 40.6799988,11.6866667 40.914,11.678 C41.0613341,11.6693333 41.1501665,11.6888331 41.1805,11.7365 C41.2108335,11.7841669 41.1523341,11.8513329 41.005,11.938 C40.9356663,11.9813335 40.8880001,12.0744993 40.862,12.2175 C40.8359999,12.3605007 40.823,12.5879984 40.823,12.9 L40.823,20.986 C40.823,21.1333341 40.8251666,21.304499 40.8295,21.4995 C40.8338334,21.694501 40.8424999,21.8981656 40.8555,22.1105 C40.8685001,22.3228344 40.8836666,22.532999 40.901,22.741 C40.9183334,22.949001 40.9356666,23.1439991 40.953,23.326 L39.64,23.326 C39.6573334,23.1699992 39.6724999,22.988001 39.6855,22.78 C39.6985001,22.571999 39.7114999,22.3596677 39.7245,22.143 C39.7375001,21.9263323 39.7461666,21.7161677 39.7505,21.5125 C39.7548334,21.3088323 39.757,21.1333341 39.757,20.986 L39.757,19.699 L38.145,20.167 C38.0236661,20.2103336 37.865501,20.2753329 37.6705,20.362 C37.475499,20.4486671 37.3173339,20.5396662 37.196,20.635 C37.0486659,20.2276646 36.8580012,19.8333352 36.624,19.452 C36.7453339,19.4346666 36.8601661,19.4195001 36.9685,19.4065 C37.0768339,19.3934999 37.1829995,19.3783334 37.287,19.361 L37.287,14.941 C37.287,14.5769982 37.2826667,14.2671679 37.274,14.0115 C37.2653333,13.7558321 37.2523334,13.5630006 37.235,13.433 C37.4516677,13.4763335 37.6531657,13.5023333 37.8395,13.511 C38.0258343,13.5196667 38.2013325,13.5153334 38.366,13.498 C38.5046674,13.4806666 38.5848332,13.5001664 38.6065,13.5565 C38.6281668,13.6128336 38.5913338,13.6669997 38.496,13.719 C38.4179996,13.7623335 38.3573335,13.8164997 38.314,13.8815 C38.2706665,13.9465003 38.249,14.009333 38.249,14.07 L38.249,19.166 C38.4656678,19.1139997 38.6953321,19.057667 38.938,18.997 C39.1806679,18.936333 39.4536651,18.8626671 39.757,18.776 L39.757,13.537 Z M44.632,19.517 C44.9526683,19.0403309 45.2061657,18.4228371 45.3925,17.6645 C45.5788343,16.9061629 45.702333,16.0503381 45.763,15.097 L43.423,15.097 C43.1369986,15.7470032 42.8921677,16.2756646 42.6885,16.683 C42.4848323,17.0903354 42.2833343,17.4456651 42.084,17.749 C41.9193325,17.6363328 41.769834,17.5453337 41.6355,17.476 C41.501166,17.4066663 41.3473342,17.341667 41.174,17.281 C41.4340013,16.9256649 41.6853321,16.509669 41.928,16.033 C42.1706679,15.5563309 42.3873324,15.0645025 42.578,14.5575 C42.7686676,14.0504975 42.9268327,13.5478358 43.0525,13.0495 C43.1781673,12.5511642 43.2583332,12.0940021 43.293,11.678 C43.501001,11.7473337 43.7414986,11.818833 44.0145,11.8925 C44.2875014,11.966167 44.5106658,12.0159999 44.684,12.042 C44.7793338,12.0593334 44.8334999,12.0874998 44.8465,12.1265 C44.8595001,12.1655002 44.8270004,12.215333 44.749,12.276 C44.7143332,12.3020001 44.6775002,12.3409997 44.6385,12.393 C44.5994998,12.4450003 44.5475003,12.5359993 44.4825,12.666 C44.4174997,12.7960006 44.3330005,12.9801655 44.229,13.2185 C44.1249995,13.4568345 43.9863342,13.7753313 43.813,14.174 L46.452,14.174 C46.9286691,14.174 47.2948321,14.1653334 47.5505,14.148 C47.8061679,14.1306666 48.0163325,14.1003336 48.181,14.057 L48.181,15.175 C48.0249992,15.1489999 47.849501,15.1295001 47.6545,15.1165 C47.459499,15.1034999 47.1930017,15.097 46.855,15.097 C46.8029997,15.7730034 46.7250005,16.3861639 46.621,16.9365 C46.5169995,17.4868361 46.397834,17.9764979 46.2635,18.4055 C46.129166,18.8345021 45.9818341,19.2071651 45.8215,19.5235 C45.6611659,19.8398349 45.5030008,20.101999 45.347,20.31 C45.7456687,20.6653351 46.1963308,20.9664988 46.699,21.2135 C47.2016692,21.4605012 47.7563303,21.6489994 48.363,21.779 C47.9209978,22.1950021 47.6523338,22.6456642 47.557,23.131 C46.958997,22.8536653 46.4303356,22.5460017 45.971,22.208 C45.5116644,21.8699983 45.0696688,21.4930021 44.645,21.077 C44.2809982,21.4410018 43.8910021,21.7724985 43.475,22.0715 C43.0589979,22.3705015 42.5606696,22.6629986 41.98,22.949 C41.9019996,22.8016659 41.7915007,22.6478341 41.6485,22.4875 C41.5054993,22.3271659 41.3343343,22.1863339 41.135,22.065 C42.209672,21.7269983 43.149996,21.1463375 43.956,20.323 C43.6353317,19.8896645 43.3796676,19.3761696 43.189,18.7825 C42.9983324,18.1888304 42.8553338,17.4803375 42.76,16.657 L43.657,16.423 C43.7523338,17.6710062 44.0773306,18.7023293 44.632,19.517 L44.632,19.517 Z M59.569,14.902 C59.4909996,14.7719993 59.4086671,14.6593338 59.322,14.564 C59.2353329,14.4686662 59.1443338,14.3733338 59.049,14.278 L59.946,13.836 C60.0413338,13.9400005 60.1279996,14.0374995 60.206,14.1285 C60.2840004,14.2195005 60.3749995,14.3256661 60.479,14.447 L59.569,14.902 Z M56.462,12.822 C56.4533333,12.6053323 56.4403334,12.4060009 56.423,12.224 C56.4056666,12.0419991 56.3840001,11.8773341 56.358,11.73 C56.5313342,11.7473334 56.7068324,11.7646666 56.8845,11.782 C57.0621676,11.7993334 57.2333325,11.808 57.398,11.808 C57.4760004,11.808 57.5214999,11.8274998 57.5345,11.8665 C57.5475001,11.9055002 57.5193337,11.9466664 57.45,11.99 C57.389333,12.0246668 57.3525001,12.0593332 57.3395,12.094 C57.3264999,12.1286668 57.32,12.1849996 57.32,12.263 L57.32,12.822 C58.0566704,12.822 58.7283303,12.8155001 59.335,12.8025 C59.9416697,12.7894999 60.4659978,12.7613335 60.908,12.718 L60.908,13.693 C60.4659978,13.6496664 59.9416697,13.6193334 59.335,13.602 C58.7283303,13.5846666 58.0566704,13.576 57.32,13.576 L57.32,14.421 L56.462,14.421 L56.462,13.576 L54.317,13.576 L54.317,14.538 L53.472,14.538 L53.472,13.576 C52.7873299,13.576 52.1546696,13.5846666 51.574,13.602 C50.9933304,13.6193334 50.4950021,13.6496664 50.079,13.693 L50.079,12.718 C50.5036688,12.7613335 51.0041638,12.7894999 51.5805,12.8025 C52.1568362,12.8155001 52.7829966,12.822 53.459,12.822 C53.459,12.613999 53.4503334,12.4168343 53.433,12.2305 C53.4156666,12.0441657 53.3940001,11.8773341 53.368,11.73 C53.5413342,11.7473334 53.7146658,11.7646666 53.888,11.782 C54.0613342,11.7993334 54.2303325,11.808 54.395,11.808 C54.4730004,11.808 54.5184999,11.8274998 54.5315,11.8665 C54.5445001,11.9055002 54.5163337,11.9466664 54.447,11.99 C54.4036665,12.0160001 54.3711668,12.0484998 54.3495,12.0875 C54.3278332,12.1265002 54.317,12.1849996 54.317,12.263 L54.317,12.822 L56.462,12.822 Z M54.317,17.125 L54.317,18.178 L55.305,18.178 L55.305,17.125 L54.317,17.125 Z M54.317,19.686 L56.319,19.686 L56.319,18.828 L54.317,18.828 L54.317,19.686 Z M55.266,21.532 L55.266,20.336 L54.317,20.336 L54.317,21.532 L55.266,21.532 Z M54.317,22.793 L53.485,22.793 C53.5023334,22.5676655 53.5153333,22.2730018 53.524,21.909 C53.5326667,21.5449982 53.537,21.198335 53.537,20.869 L53.537,18.074 C53.537,17.7706651 53.5305001,17.4630016 53.5175,17.151 C53.5044999,16.8389984 53.4850001,16.5573346 53.459,16.306 C53.6063341,16.3320001 53.814332,16.3536666 54.083,16.371 C54.351668,16.3883334 54.7503307,16.397 55.279,16.397 C55.5216679,16.397 55.7296658,16.3948334 55.903,16.3905 C56.0763342,16.3861666 56.2323326,16.3818334 56.371,16.3775 C56.5096674,16.3731666 56.6331661,16.3666667 56.7415,16.358 C56.8498339,16.3493333 56.9646661,16.3363334 57.086,16.319 L57.086,17.216 C56.9386659,17.1986666 56.7826675,17.1835001 56.618,17.1705 C56.4533325,17.1574999 56.267001,17.1466667 56.059,17.138 L56.059,18.178 C56.3190013,18.1693333 56.5313325,18.1585001 56.696,18.1455 C56.8606675,18.1324999 56.9993328,18.1173334 57.112,18.1 C57.0946666,18.2473341 57.0816667,18.4141657 57.073,18.6005 C57.0643333,18.7868343 57.06,18.983999 57.06,19.192 C57.06,19.4173345 57.0643333,19.633999 57.073,19.842 C57.0816667,20.050001 57.0946666,20.2319992 57.112,20.388 C56.9819994,20.3706666 56.8325008,20.3576667 56.6635,20.349 C56.4944992,20.3403333 56.2843346,20.336 56.033,20.336 L56.033,21.532 C56.1890008,21.532 56.334166,21.5233334 56.4685,21.506 C56.602834,21.4886666 56.7176662,21.4583335 56.813,21.415 L56.813,22.221 C57.0903347,21.9956655 57.3459988,21.7465014 57.58,21.4735 C57.8140012,21.2004986 58.0436655,20.8820018 58.269,20.518 C58.0089987,19.7293294 57.811834,18.9450039 57.6775,18.165 C57.543166,17.3849961 57.4543336,16.5876707 57.411,15.773 L52.926,15.773 C52.9086666,17.0210062 52.8805002,18.0544959 52.8415,18.8735 C52.8024998,19.6925041 52.7440004,20.3836638 52.666,20.947 C52.5879996,21.5103362 52.481834,21.9913313 52.3475,22.39 C52.213166,22.7886687 52.042001,23.1873313 51.834,23.586 C51.6606658,23.4993329 51.5025007,23.4386668 51.3595,23.404 C51.2164993,23.3693332 51.0366678,23.3433334 50.82,23.326 C51.0020009,23.1093323 51.160166,22.8840012 51.2945,22.65 C51.428834,22.4159988 51.5436662,22.1451682 51.639,21.8375 C51.7343338,21.5298318 51.812333,21.1701687 51.873,20.7585 C51.933667,20.3468313 51.9813332,19.8593362 52.016,19.296 L51.262,19.296 C51.2359999,19.6513351 51.2056668,19.9763319 51.171,20.271 C51.1363332,20.5656681 51.088667,20.847332 51.028,21.116 C50.967333,21.384668 50.8980004,21.6468321 50.82,21.9025 C50.7419996,22.1581679 50.6510005,22.4246653 50.547,22.702 C50.4083326,22.6066662 50.2631674,22.5243337 50.1115,22.455 C49.9598326,22.3856663 49.7843343,22.3163337 49.585,22.247 C49.7410008,22.038999 49.8731661,21.8331677 49.9815,21.6295 C50.0898339,21.4258323 50.180833,21.2113345 50.2545,20.986 C50.328167,20.7606655 50.3888331,20.5115014 50.4365,20.2385 C50.4841669,19.9654986 50.5209999,19.6600017 50.547,19.322 C50.4256661,19.3306667 50.3195005,19.3371666 50.2285,19.3415 C50.1374995,19.3458334 50.0486671,19.3566666 49.962,19.374 L49.962,18.425 C50.0660005,18.4423334 50.1743328,18.4553333 50.287,18.464 C50.3996672,18.4726667 50.5361659,18.4791666 50.6965,18.4835 C50.8568341,18.4878334 51.0453323,18.4921666 51.262,18.4965 C51.4786677,18.5008334 51.7429984,18.503 52.055,18.503 C52.0636667,18.3469992 52.0701666,18.1845008 52.0745,18.0155 C52.0788334,17.8464992 52.081,17.6710009 52.081,17.489 L51.6,17.489 L51.184,17.489 C51.0713328,17.489 50.9716671,17.4911666 50.885,17.4955 C50.7983329,17.4998334 50.718167,17.5041666 50.6445,17.5085 C50.570833,17.5128334 50.4863338,17.5193333 50.391,17.528 C50.4343336,17.319999 50.4603333,17.1510007 50.469,17.021 C50.4776667,16.8909994 50.482,16.7350009 50.482,16.553 L50.482,15.656 C50.482,15.447999 50.4755001,15.2746674 50.4625,15.136 C50.4494999,14.9973326 50.4343334,14.8543341 50.417,14.707 C50.5903342,14.7243334 50.7701657,14.7373333 50.9565,14.746 C51.1428343,14.7546667 51.3096659,14.7503334 51.457,14.733 C51.5436671,14.7243333 51.5934999,14.7416665 51.6065,14.785 C51.6195001,14.8283335 51.5783338,14.880333 51.483,14.941 C51.3616661,15.0103337 51.301,15.1576655 51.301,15.383 L51.301,16.774 L52.094,16.774 L52.094,15.8965 C52.094,15.5888318 52.0896667,15.2660017 52.081,14.928 C52.2543342,14.9453334 52.4839986,14.9583333 52.77,14.967 C53.0560014,14.9756667 53.4113312,14.9843333 53.836,14.993 C54.2606688,15.0016667 54.7654971,15.0081666 55.3505,15.0125 C55.9355029,15.0168334 56.6179961,15.019 57.398,15.019 C57.3893333,14.9149995 57.3828334,14.8066672 57.3785,14.694 C57.3741666,14.5813328 57.3676667,14.4556674 57.359,14.317 C57.5236675,14.3430001 57.6774993,14.3603333 57.8205,14.369 C57.9635007,14.3776667 58.1216658,14.3776667 58.295,14.369 C58.4336674,14.3603333 58.5051666,14.3733332 58.5095,14.408 C58.5138334,14.4426668 58.4640005,14.5119995 58.36,14.616 C58.3166664,14.6593335 58.2820001,14.7936655 58.256,15.019 C58.5420014,15.019 58.819332,15.0168334 59.088,15.0125 C59.356668,15.0081666 59.6036655,15.0016667 59.829,14.993 C60.0543345,14.9843333 60.2558324,14.9735001 60.4335,14.9605 C60.6111676,14.9474999 60.7519995,14.9366667 60.856,14.928 L60.856,15.864 C60.7259994,15.8466666 60.5851674,15.8315001 60.4335,15.8185 C60.2818326,15.8054999 60.1063343,15.7968334 59.907,15.7925 C59.7076657,15.7881666 59.473668,15.7838334 59.205,15.7795 C58.936332,15.7751666 58.6200018,15.773 58.256,15.773 C58.2733334,15.9983345 58.2971665,16.245332 58.3275,16.514 C58.3578335,16.782668 58.403333,17.1379978 58.464,17.58 C58.5160003,17.9700019 58.5679997,18.3209984 58.62,18.633 C58.6720003,18.9450016 58.7326663,19.2266654 58.802,19.478 C58.9926676,19.0359978 59.1464994,18.5701691 59.2635,18.0805 C59.3805006,17.5908309 59.4476666,17.0990025 59.465,16.605 C59.6903345,16.6743337 59.8918324,16.7328331 60.0695,16.7805 C60.2471676,16.8281669 60.3793329,16.8606666 60.466,16.878 C60.6480009,16.9040001 60.6610008,16.9646662 60.505,17.06 C60.4529997,17.0946668 60.3988336,17.1921659 60.3425,17.3525 C60.2861664,17.5128341 60.2320003,17.6926657 60.18,17.892 C60.1366665,18.0826676 60.078167,18.2949988 60.0045,18.529 C59.930833,18.7630012 59.8506671,19.0013321 59.764,19.244 C59.6773329,19.4866679 59.5863338,19.7249988 59.491,19.959 C59.3956662,20.1930012 59.3046671,20.4009991 59.218,20.583 C59.4433345,21.0683358 59.6383325,21.4344988 59.803,21.6815 C59.9676675,21.9285012 60.1019995,22.0714998 60.206,22.1105 C60.3100005,22.1495002 60.3879997,22.0931674 60.44,21.9415 C60.4920003,21.7898326 60.5266666,21.5623348 60.544,21.259 C60.6653339,21.4583343 60.8018326,21.6121661 60.9535,21.7205 C61.1051674,21.8288339 61.2546659,21.9003332 61.402,21.935 C61.2633326,22.4030023 61.126834,22.7561655 60.9925,22.9945 C60.858166,23.2328345 60.7130008,23.3736665 60.557,23.417 C60.4009992,23.4603336 60.2276676,23.414834 60.037,23.2805 C59.8463324,23.146166 59.6296679,22.944668 59.387,22.676 C59.2743328,22.5546661 59.1530007,22.390001 59.023,22.182 C58.8929994,21.973999 58.7673339,21.7443346 58.646,21.493 C58.4899992,21.701001 58.3405007,21.8916658 58.1975,22.065 C58.0544993,22.2383342 57.9071674,22.4029992 57.7555,22.559 C57.6038326,22.7150008 57.4413342,22.8644993 57.268,23.0075 C57.0946658,23.1505007 56.8996678,23.2999992 56.683,23.456 C56.4836657,23.3086659 56.3146674,23.1960004 56.176,23.118 C56.0373326,23.0399996 55.8813342,22.9663337 55.708,22.897 C55.8813342,22.8189996 56.0481659,22.7323338 56.2085,22.637 C56.3688341,22.5416662 56.5226659,22.4420005 56.67,22.338 C56.5659995,22.3293333 56.3363351,22.3206667 55.981,22.312 C55.6256649,22.3033333 55.0710038,22.299 54.317,22.299 L54.317,22.793 Z" id="收藏" fill="#A9A9A9"></path>
                </g>
            </g>
        </g>
    </g>
</svg>