<?xml version="1.0" encoding="UTF-8" standalone="no"?>
<svg width="64px" height="64px" viewBox="0 0 64 64" version="1.1" xmlns="http://www.w3.org/2000/svg" xmlns:xlink="http://www.w3.org/1999/xlink" xmlns:sketch="http://www.bohemiancoding.com/sketch/ns">
    <!-- Generator: Sketch 3.2.2 (9983) - http://www.bohemiancoding.com/sketch -->
    <title>follow-active</title>
    <desc>Created with Sketch.</desc>
    <defs></defs>
    <g id="Page-1" stroke="none" stroke-width="1" fill="none" fill-rule="evenodd" sketch:type="MSPage">
        <path d="M0,0 L64,0 L64,64 L0,0 Z" id="Rectangle-3" fill-opacity="0.6" fill="#FFFFFF" sketch:type="MSShapeGroup"></path>
        <path d="M53.0220058,21.4375333 L44.0001414,31 L34.9769172,21.4348701 C33.0573728,19.4296621 32,17.0754572 32,14.8055276 C32,11.2789253 34.1525393,9 37.483595,9 C40.425325,9 41.4931803,10.312008 43.26223,12.4857667 L43.5908706,12.8887376 C43.6930325,13.0136119 43.8423939,13.0853998 43.9992915,13.0853998 C44.1562457,13.0853998 44.3060605,13.0136119 44.4079957,12.8887376 L44.7391295,12.4826301 C46.5071592,10.3109428 47.5746179,9 50.515158,9 C53.847007,9 55.9999996,11.2789253 55.9999996,14.8055276 C56.0007928,17.0754572 54.94342,19.4296621 53.0220058,21.4375333 L53.0220058,21.4375333 Z" id="Shape-3" fill="#CD0000" sketch:type="MSShapeGroup"></path>
    </g>
</svg>