<?xml version="1.0" encoding="UTF-8" standalone="no"?>
<svg width="24px" height="24px" viewBox="0 0 24 24" version="1.1" xmlns="http://www.w3.org/2000/svg" xmlns:xlink="http://www.w3.org/1999/xlink" xmlns:sketch="http://www.bohemiancoding.com/sketch/ns">
    <!-- Generator: Sketch 3.2.2 (9983) - http://www.bohemiancoding.com/sketch -->
    <title>list-title-icon-favorite</title>
    <desc>Created with Sketch.</desc>
    <defs></defs>
    <g id="Page-1" stroke="none" stroke-width="1" fill="none" fill-rule="evenodd" sketch:type="MSPage">
        <path d="M23.861953,9.5350915 C23.6959267,9.6524033 18.3035386,13.7727688 17.2243673,14.596975 L16.8251988,14.9022276 L16.9789119,15.3942115 C17.8713614,18.262848 19.3542103,23.0208697 19.5068828,23.4863073 L19.5057267,23.4863073 C19.529197,23.559597 19.5345154,23.6081544 19.5345154,23.6357287 C19.5345154,23.8331028 19.3773337,24 19.1908431,24 C19.12049,24 19.0538945,23.9774447 19.0005371,23.9386229 C18.876422,23.8461643 14.6289337,20.6108982 12.4007583,18.9133843 L11.9995086,18.6078898 L5.0080185,23.9322131 C4.9450071,23.9773842 4.8776023,23.9999395 4.8077695,23.9999395 C4.6192556,23.9999395 4.46508,23.8363077 4.46508,23.6356682 C4.46508,23.6071869 4.4701093,23.558448 4.4937531,23.482921 L4.493464,23.482921 C4.6445757,23.0208092 5.9364828,18.8763162 7.0203366,15.394151 L7.1737029,14.9021671 L6.7742453,14.5969145 C5.695074,13.7721641 0.3037265,9.6529475 0.1483947,9.543134 C0.0553807,9.4751053 0,9.3623892 0,9.2422353 C0,9.0304089 0.1552161,8.8443427 0.3326886,8.8443427 L9.0190696,8.8443427 L11.6737571,0.26455626 C11.7089047,0.13267119 11.8234814,0 11.9997977,0 C12.1759405,0 12.2904594,0.13267119 12.3256649,0.26395156 L14.991625,8.8442822 L23.6778326,8.8442822 C23.8524146,8.8442822 24,9.0237572 24,9.2361278 C23.9989016,9.3607565 23.9434632,9.4751053 23.861953,9.5350915 L23.861953,9.5350915 L23.861953,9.5350915 Z" id="list-title-icon-favorite" fill="#F28900" sketch:type="MSShapeGroup"></path>
    </g>
</svg>