<?xml version="1.0" encoding="UTF-8" standalone="no"?>
<svg width="24px" height="24px" viewBox="0 0 24 24" version="1.1" xmlns="http://www.w3.org/2000/svg" xmlns:xlink="http://www.w3.org/1999/xlink" xmlns:sketch="http://www.bohemiancoding.com/sketch/ns">
    <!-- Generator: Sketch 3.2.2 (9983) - http://www.bohemiancoding.com/sketch -->
    <title>list-title-icon-follow</title>
    <desc>Created with Sketch.</desc>
    <defs></defs>
    <g id="Page-1" stroke="none" stroke-width="1" fill="none" fill-rule="evenodd" sketch:type="MSPage">
        <path d="M21.0220058,13.4375333 L12.0001414,23 L2.97691719,13.4348701 C1.0573728,11.4296621 -3.55271368e-15,9.0754572 -3.55271368e-15,6.8055276 C-3.55271368e-15,3.2789253 2.1525393,1 5.48359499,1 C8.42532498,1 9.49318028,2.312008 11.26223,4.4857667 L11.5908706,4.8887376 C11.6930325,5.0136119 11.8423939,5.0853998 11.9992915,5.0853998 C12.1562457,5.0853998 12.3060605,5.0136119 12.4079957,4.8887376 L12.7391295,4.4826301 C14.5071592,2.3109428 15.5746179,1 18.515158,1 C21.847007,1 23.9999996,3.2789253 23.9999996,6.8055276 C24.0007928,9.0754572 22.94342,11.4296621 21.0220058,13.4375333 L21.0220058,13.4375333 L21.0220058,13.4375333 Z" id="list-title-icon-follow" fill="#CD0000" sketch:type="MSShapeGroup"></path>
    </g>
</svg>