<?xml version="1.0" encoding="UTF-8" standalone="no"?>
<svg width="196px" height="56px" viewBox="0 0 196 56" version="1.1" xmlns="http://www.w3.org/2000/svg" xmlns:xlink="http://www.w3.org/1999/xlink" xmlns:sketch="http://www.bohemiancoding.com/sketch/ns">
    <!-- Generator: Sketch 3.3 (11970) - http://www.bohemiancoding.com/sketch -->
    <title>logo</title>
    <desc>Created with Sketch.</desc>
    <defs></defs>
    <g id="Page-1" stroke="none" stroke-width="1" fill="none" fill-rule="evenodd" sketch:type="MSPage">
        <g id="logo" sketch:type="MSLayerGroup" fill="#000000">
            <g id="Page-1" sketch:type="MSShapeGroup">
                <g id="ulogo" transform="translate(0.144330, 0.000000)">
                    <path d="M119.620619,11.0268041 C119.101031,12.2391753 118.408247,13.4515464 117.715464,14.6061856 L127.356701,14.6061856 C129.146392,14.6061856 130.589691,16.0494845 130.589691,17.8391753 L130.589691,27.942268 C130.589691,28.8659794 130.358763,29.2701031 129.665979,29.5010309 C128.915464,29.7319588 127.472165,29.7319588 125.220619,29.7319588 C125.162887,29.385567 124.931959,28.8659794 124.758763,28.5195876 C126.663918,28.5773196 128.280412,28.5773196 128.742268,28.5195876 C129.204124,28.5195876 129.319588,28.3463918 129.319588,27.942268 L129.319588,24.5938144 L117.426804,24.5938144 C117.138144,26.4989691 116.445361,28.4041237 114.886598,29.9051546 C114.713402,29.6164948 114.309278,29.1546392 114.020619,28.9237113 C116.156701,26.7876289 116.387629,23.843299 116.387629,21.3608247 L116.387629,16.5113402 C115.002062,18.3010309 113.443299,19.9175258 111.595876,21.1876289 C111.42268,20.956701 111.076289,20.4948454 110.845361,20.2061856 C114.078351,17.9546392 116.560825,14.6061856 118.235052,11.0268041 L111.307216,11.0268041 L111.307216,9.81443299 L118.812371,9.81443299 C119.274227,8.65979381 119.678351,7.50515464 120.024742,6.35051546 L121.237113,6.63917526 C120.890722,7.73608247 120.54433,8.77525773 120.082474,9.81443299 L133.649485,9.81443299 L133.649485,11.0268041 L119.620619,11.0268041 L119.620619,11.0268041 Z M129.319588,23.4391753 L129.319588,20.1484536 L117.657732,20.1484536 L117.657732,21.4185567 C117.657732,22.0536082 117.657732,22.7463918 117.6,23.4391753 L129.319588,23.4391753 L129.319588,23.4391753 Z M127.068041,15.7608247 L117.6,15.7608247 L117.6,18.9938144 L129.319588,18.9938144 L129.319588,17.9546392 C129.319588,16.742268 128.338144,15.7608247 127.068041,15.7608247 L127.068041,15.7608247 L127.068041,15.7608247 Z" id="Shape"></path>
                    <path d="M138.037113,26.8453608 C138.037113,25.9793814 138.672165,25.4020619 139.364948,25.4020619 C140.057732,25.4020619 140.692784,25.9216495 140.692784,26.8453608 C140.692784,27.7113402 140.057732,28.2309278 139.364948,28.2309278 C138.672165,28.2309278 138.037113,27.6536082 138.037113,26.8453608 L138.037113,26.8453608 L138.037113,26.8453608 Z" id="Shape"></path>
                    <path d="M152.470103,12.2391753 C151.604124,13.5670103 150.564948,14.9525773 149.525773,16.2226804 L149.525773,29.9051546 L148.313402,29.9051546 L148.313402,17.6082474 C147.158763,18.8206186 146.004124,19.8597938 144.907216,20.7835052 C144.734021,20.5525773 144.272165,20.0329897 143.983505,19.8020619 C146.696907,17.8391753 149.525773,14.8948454 151.315464,11.9505155 L152.470103,12.2391753 L152.470103,12.2391753 Z M151.430928,6.81237113 C149.814433,9.00618557 147.216495,11.3731959 145.02268,12.9896907 C144.849485,12.7587629 144.503093,12.2391753 144.272165,12.0082474 C146.408247,10.5649485 148.948454,8.19793814 150.276289,6.35051546 L151.430928,6.81237113 L151.430928,6.81237113 Z M167.653608,16.2804124 L163.554639,16.2804124 L163.554639,28 C163.554639,28.9237113 163.323711,29.3278351 162.573196,29.5587629 C161.82268,29.7319588 160.437113,29.7319588 157.839175,29.7319588 C157.781443,29.443299 157.608247,28.9237113 157.37732,28.5773196 C159.397938,28.6350515 161.187629,28.6350515 161.649485,28.5773196 C162.11134,28.5773196 162.342268,28.4618557 162.342268,28 L162.342268,16.2804124 L153.047423,16.2804124 L153.047423,15.0680412 L167.653608,15.0680412 L167.653608,16.2804124 L167.653608,16.2804124 Z M166.903093,9.17938144 L154.202062,9.17938144 L154.202062,7.96701031 L166.903093,7.96701031 L166.903093,9.17938144 L166.903093,9.17938144 Z" id="Shape"></path>
                    <path d="M181.162887,15.8762887 L181.162887,16.5690722 C180.931959,25.2865979 180.758763,27.942268 180.181443,28.8082474 C179.835052,29.2701031 179.430928,29.443299 178.853608,29.5010309 L176.54433,29.5010309 C176.54433,29.1546392 176.428866,28.6927835 176.197938,28.3463918 C177.179381,28.4618557 178.103093,28.4618557 178.449485,28.4618557 C178.795876,28.4618557 178.969072,28.4041237 179.2,28.1154639 C179.661856,27.5381443 179.892784,24.8247423 180.065979,17.1463918 L176.486598,17.1463918 C176.428866,21.3030928 175.851546,25.8061856 172.791753,29.7896907 C172.560825,29.5587629 172.156701,29.2123711 171.868041,29.0391753 C174.985567,25.1134021 175.331959,20.2061856 175.331959,16.3381443 L175.331959,12.1237113 L172.329897,12.1237113 L172.329897,10.9690722 L182.259794,10.9690722 L182.259794,12.1237113 L176.486598,12.1237113 L176.486598,15.9917526 L181.162887,15.9917526 L181.162887,15.8762887 L181.162887,15.8762887 Z M177.410309,10.3340206 C177.121649,9.35257732 176.486598,7.90927835 175.909278,6.75463918 L177.006186,6.40824742 C177.641237,7.50515464 178.276289,8.94845361 178.564948,9.92989691 L177.410309,10.3340206 L177.410309,10.3340206 Z M185.030928,11.2 C184.280412,12.643299 183.472165,14.028866 182.548454,15.0680412 C182.317526,14.8371134 181.85567,14.4907216 181.56701,14.3175258 C183.356701,12.3546392 184.742268,9.41030928 185.550515,6.40824742 L186.762887,6.63917526 C186.416495,7.85154639 186.012371,8.94845361 185.550515,10.0453608 L194.960825,10.0453608 L194.960825,11.2 L185.030928,11.2 L185.030928,11.2 Z M194.903093,17.3773196 C193.63299,18.5896907 191.901031,19.9752577 190.515464,20.956701 C191.612371,24.3051546 193.228866,26.9608247 195.42268,28.4041237 C195.134021,28.6350515 194.729897,29.0391753 194.556701,29.385567 C190.97732,26.7876289 189.014433,21.4185567 188.090722,15.0680412 C187.16701,15.2989691 186.243299,15.5298969 185.37732,15.7030928 L185.37732,27.4226804 L189.707216,25.3443299 C189.707216,25.6907216 189.82268,26.2103093 189.938144,26.4412371 C185.204124,28.8082474 184.569072,29.0969072 184.164948,29.5010309 C184.049485,29.2123711 183.703093,28.7505155 183.472165,28.5195876 C183.760825,28.2886598 184.22268,27.7690722 184.22268,26.6721649 L184.22268,14.8948454 C187.513402,14.1443299 191.381443,13.1051546 193.459794,12.0659794 L194.556701,12.9896907 C193.113402,13.6247423 191.150515,14.2597938 189.187629,14.7793814 C189.476289,16.5113402 189.82268,18.243299 190.284536,19.8597938 C191.612371,18.8783505 193.171134,17.6082474 194.094845,16.5690722 L194.903093,17.3773196 L194.903093,17.3773196 Z" id="Shape"></path>
                    <g id="Group" transform="translate(113.154639, 36.948454)">
                        <path d="M1.90515464,14.028866 C1.90515464,14.7216495 1.90515464,15.5876289 2.36701031,16.1649485 C2.6556701,16.5113402 3.17525773,16.9154639 4.15670103,16.9154639 C5.13814433,16.9154639 5.65773196,16.4536082 5.94639175,16.1649485 C6.40824742,15.5298969 6.40824742,14.7216495 6.40824742,14.028866 L6.40824742,8.14020619 L8.14020619,8.14020619 L8.14020619,14.2020619 C8.14020619,15.414433 8.02474227,16.3381443 7.21649485,17.2618557 C6.29278351,18.185567 5.13814433,18.5319588 4.15670103,18.5319588 C3.17525773,18.5319588 1.9628866,18.243299 1.09690722,17.2618557 C0.288659794,16.3958763 0.173195876,15.4721649 0.173195876,14.2020619 L0.173195876,8.14020619 L1.90515464,8.14020619 L1.90515464,14.028866 L1.90515464,14.028866 Z" id="Shape"></path>
                        <path d="M16.9154639,3.69484536 L16.9154639,18.185567 L15.1257732,18.185567 L15.1257732,3.69484536 L11.2,3.69484536 L11.2,2.02061856 L20.8989691,2.02061856 L20.8989691,3.69484536 L16.9154639,3.69484536 L16.9154639,3.69484536 Z" id="Shape"></path>
                        <path d="M23.9587629,8.14020619 L25.6907216,8.14020619 L25.6907216,9.2371134 C25.8639175,8.94845361 26.614433,7.90927835 28,7.90927835 C28.5195876,7.90927835 29.0969072,8.08247423 29.5587629,8.31340206 L28.7505155,9.87216495 C28.3463918,9.58350515 28,9.5257732 27.7113402,9.5257732 C27.0185567,9.5257732 26.556701,9.81443299 26.3257732,10.1608247 C26.0371134,10.5649485 25.7484536,11.257732 25.7484536,12.8742268 L25.7484536,18.185567 L24.0164948,18.185567 L24.0164948,8.14020619 L23.9587629,8.14020619 L23.9587629,8.14020619 Z" id="Shape"></path>
                        <path d="M40.8164948,8.14020619 L42.5484536,8.14020619 L42.5484536,18.243299 L40.8164948,18.243299 L40.8164948,16.857732 C40.2391753,17.6082474 39.142268,18.5319588 37.3525773,18.5319588 C34.8123711,18.5319588 32.4453608,16.742268 32.4453608,13.1628866 C32.4453608,9.69896907 34.7546392,7.90927835 37.3525773,7.90927835 C39.3154639,7.90927835 40.3546392,9.00618557 40.8164948,9.58350515 L40.8164948,8.14020619 L40.8164948,8.14020619 Z M34.2927835,13.1628866 C34.2927835,15.2989691 35.5051546,16.9731959 37.5835052,16.9731959 C39.7195876,16.9731959 40.9319588,15.1835052 40.9319588,13.2206186 C40.9319588,10.6226804 39.142268,9.46804124 37.5835052,9.46804124 C35.8515464,9.46804124 34.2927835,10.7381443 34.2927835,13.1628866 L34.2927835,13.1628866 L34.2927835,13.1628866 Z" id="Shape"></path>
                        <path d="M48.6680412,8.14020619 L51.6701031,14.9525773 L54.6721649,8.14020619 L56.6350515,8.14020619 L51.6701031,18.8783505 L46.7051546,8.14020619 L48.6680412,8.14020619 L48.6680412,8.14020619 Z" id="Shape"></path>
                        <path d="M68.1237113,8.14020619 L69.8556701,8.14020619 L69.8556701,18.243299 L68.1237113,18.243299 L68.1237113,16.857732 C67.5463918,17.6082474 66.4494845,18.5319588 64.6597938,18.5319588 C62.1195876,18.5319588 59.7525773,16.742268 59.7525773,13.1628866 C59.7525773,9.69896907 62.0618557,7.90927835 64.6597938,7.90927835 C66.6226804,7.90927835 67.6618557,9.00618557 68.1237113,9.58350515 L68.1237113,8.14020619 L68.1237113,8.14020619 Z M61.542268,13.1628866 C61.542268,15.2989691 62.7546392,16.9731959 64.8329897,16.9731959 C66.9690722,16.9731959 68.1814433,15.1835052 68.1814433,13.2206186 C68.1814433,10.6226804 66.3917526,9.46804124 64.8329897,9.46804124 C63.1010309,9.46804124 61.542268,10.7381443 61.542268,13.1628866 L61.542268,13.1628866 L61.542268,13.1628866 Z" id="Shape"></path>
                        <path d="M77.0721649,0.519587629 L77.0721649,18.243299 L75.3402062,18.243299 L75.3402062,0.519587629 L77.0721649,0.519587629 L77.0721649,0.519587629 Z" id="Shape"></path>
                    </g>
                    <g id="Group">
                        <path d="M78.9773196,15.8762887 C73.1463918,11.257732 65.9298969,9.2371134 58.771134,10.1608247 C51.4391753,11.0845361 44.742268,15.1257732 39.8927835,21.5340206 C34.5814433,28.5195876 23.2082474,45.5505155 16.9154639,54.9608247 L21.5917526,54.9608247 C28.057732,45.3195876 38.2185567,30.1938144 43.0103093,23.843299 C47.1670103,18.3010309 52.9402062,14.8371134 59.2329897,14.028866 C65.3525773,13.2206186 71.5298969,14.9525773 76.5525773,18.9360825 C86.5979381,26.8453608 88.3298969,41.5092784 80.4206186,51.5546392 L77.8226804,54.9608247 L82.7298969,54.9608247 L83.4804124,53.9793814 C92.7752577,42.2020619 90.6969072,25.1134021 78.9773196,15.8762887 L78.9773196,15.8762887 L78.9773196,15.8762887 Z" id="Shape"></path>
                        <path d="M5.54226804,54.9608247 C12.2391753,47.1670103 31.8680412,24.4206186 39.5463918,15.7608247 C51.6701031,2.07835052 69.8556701,0.230927835 82.6721649,11.3731959 C88.6762887,16.5690722 92.2556701,23.785567 92.7752577,31.6948454 C93.3525773,39.6041237 90.7546392,47.2247423 85.5587629,53.228866 L84,54.9608247 L89.1381443,54.9608247 C94.5649485,48.3216495 97.2783505,40.0082474 96.643299,31.4061856 C96.0082474,22.457732 91.9670103,14.3175258 85.2123711,8.42886598 C70.6639175,-4.21443299 50.2268041,-2.25154639 36.6020619,13.1628866 C27.5958763,23.3237113 2.30927835,52.7670103 0.404123711,54.9608247 L5.54226804,54.9608247 L5.54226804,54.9608247 Z" id="Shape"></path>
                        <path d="M72.3958763,54.9608247 L73.6659794,51.4969072 C76.956701,44.1072165 73.6659794,35.3896907 66.2762887,32.0412371 C62.4082474,30.3092784 58.0206186,30.2515464 54.2103093,31.8680412 C50.6309278,33.3690722 47.8597938,36.2556701 46.4742268,39.9505155 C45.2618557,43.2412371 43.7030928,49.014433 42.2020619,54.9608247 L46.243299,54.9608247 C47.628866,49.4185567 49.0721649,44.2804124 50.1690722,41.2783505 C51.1505155,38.6226804 53.1134021,36.5443299 55.7113402,35.4474227 C58.5402062,34.2350515 61.8309278,34.2927835 64.7175258,35.6206186 C70.1443299,38.0453608 72.5690722,44.4536082 70.0865979,50.0536082 L68.8164948,53.4597938 L68.8164948,49.4762887 C68.8164948,46.9360825 67.8350515,44.5690722 66.0453608,42.7216495 C64.2556701,40.9319588 61.8886598,39.8927835 59.3484536,39.8927835 C56.7505155,39.8350515 54.3835052,40.8742268 52.5938144,42.6639175 C50.8041237,44.4536082 49.7649485,46.8206186 49.7649485,49.3608247 L49.7649485,55.0185567 L53.6329897,55.0185567 L53.6329897,49.4185567 C53.6329897,47.9175258 54.2103093,46.5319588 55.3072165,45.4927835 C56.3463918,44.4536082 57.7896907,43.8762887 59.2329897,43.8762887 L59.2907216,43.8762887 C60.7917526,43.8762887 62.1773196,44.4536082 63.2742268,45.5505155 C64.3134021,46.5896907 64.8907216,48.0329897 64.8907216,49.5340206 L64.8907216,55.0762887 L72.3958763,55.0762887 L72.3958763,54.9608247 L72.3958763,54.9608247 Z" id="Shape"></path>
                        <path d="M81.5752577,37.4103093 C80.4783505,31.9835052 77.3030928,27.3072165 72.6845361,24.2474227 C67.8350515,21.014433 61.8309278,19.9175258 56.2309278,21.1876289 C50.7463918,22.457732 46.1278351,25.9216495 43.1835052,30.8865979 C40.2391753,35.8515464 35.2742268,46.243299 31.2329897,54.9608247 L35.5628866,54.9608247 C39.4309278,46.7051546 43.9340206,37.3525773 46.5319588,32.9072165 C48.956701,28.8082474 52.7092784,26.0371134 57.0969072,24.9979381 C61.6,23.9587629 66.5072165,24.8824742 70.4907216,27.5381443 C74.243299,30.0206186 76.8412371,33.8309278 77.7072165,38.2762887 C78.6309278,42.7216495 77.7072165,47.2247423 75.1670103,51.0350515 L72.742268,55.0185567 L77.3030928,55.0185567 L78.457732,53.1134021 C81.6329897,48.3793814 82.7298969,42.8371134 81.5752577,37.4103093 L81.5752577,37.4103093 L81.5752577,37.4103093 Z" id="Shape"></path>
                    </g>
                </g>
            </g>
        </g>
    </g>
</svg>