<?xml version="1.0" encoding="UTF-8" standalone="no"?>
<svg width="196px" height="55px" viewBox="0 0 196 55" version="1.1" xmlns="http://www.w3.org/2000/svg" xmlns:xlink="http://www.w3.org/1999/xlink" xmlns:sketch="http://www.bohemiancoding.com/sketch/ns">
    <!-- Generator: Sketch 3.3.2 (12043) - http://www.bohemiancoding.com/sketch -->
    <title>logo</title>
    <desc>Created with Sketch.</desc>
    <defs></defs>
    <g id="Page-1" stroke="none" stroke-width="1" fill="none" fill-rule="evenodd" sketch:type="MSPage">
        <g id="Imported-Layers" sketch:type="MSLayerGroup" transform="translate(0.000000, -0.340909)">
            <path d="M38.9542576,16.5389848 C50.7372727,3.24439394 68.3215909,1.45589394 80.7601667,12.2804394 C91.9588939,22.0255 93.7756061,38.6023485 85.4203636,50.4803939 C88.0129091,45.6590909 89.0723485,40.1718333 88.4130758,34.6229545 C87.5659697,27.4904848 83.9919394,21.1145455 78.3487727,16.6703939 C72.5563788,12.1067121 65.4380152,10.1006818 58.3196515,11.0220303 C51.028303,11.9634242 44.3902879,15.9561818 39.6268939,22.2638182 C34.5115909,29.0384394 23.5779091,45.3116364 17.3734697,54.6238636 L22.7315455,54.6238636 C29.0629394,45.1490455 38.6194242,30.9902727 43.1823636,24.9476818 C47.2174394,19.6037121 52.7960152,16.2264242 58.8890909,15.4394545 C64.8158636,14.6762424 70.7485758,16.3533788 75.5921515,20.1694394 C80.3006061,23.8778485 83.2821818,29.1973182 83.9897121,35.1485909 C84.6356212,40.5801667 83.3089091,45.9412121 80.2382424,50.4365909 C84.5465303,41.301803 81.6117273,30.1186667 72.9483788,24.3812121 C68.1018333,21.1724545 62.1468485,20.0617879 56.6046515,21.3395 C51.1686212,22.5904848 46.5514848,26.0279091 43.604803,31.0184848 C40.7331061,35.8821061 35.8464697,46.1060303 31.8952879,54.6238636 L36.8131061,54.6238636 C40.552697,46.6071667 44.8847424,37.6112121 47.4401667,33.2836212 C49.7602424,29.3554545 53.3691667,26.6552576 57.604697,25.6797121 C61.9597576,24.6789242 66.6563333,25.5579545 70.4887273,28.0948182 C77.8402121,32.9636364 79.924197,42.8267424 75.2565758,50.2524697 C77.7147424,43.1355909 74.3760606,35.1686364 67.3787121,32.0252121 C63.5299848,30.2990758 59.1214697,30.2292879 55.2890758,31.8358939 C51.6697576,33.3526667 48.9220455,36.2251061 47.5515303,39.9216364 C46.3577121,43.1430152 44.8179242,48.7824697 43.3486667,54.6238636 L47.9465,54.6238636 C49.2954848,49.3081061 50.6704545,44.3242121 51.7284091,41.4703333 C52.6653485,38.9416364 54.5414545,36.9794091 57.0107576,35.9444697 C59.7124394,34.8115303 62.8254242,34.8649848 65.5545758,36.0892424 C70.6424091,38.3744242 72.9550606,44.3167879 70.805,49.4313485 L70.805,49.3474545 C70.8213333,46.7734697 69.8339091,44.3464848 68.0253636,42.5149242 C66.2160758,40.6826212 63.8017121,39.6655 61.2277273,39.6499091 L61.1661061,39.6499091 C58.609197,39.6499091 56.2022576,40.6395606 54.3833182,42.4399394 C52.5547273,44.2492273 51.5413182,46.6621061 51.5309242,49.2316364 C51.5249848,50.6236818 51.5190455,52.4908788 51.5131061,54.6238636 L55.9676515,54.6238636 C55.9735909,52.4990455 55.9795303,50.6377879 55.9854697,49.250197 C55.9914091,47.8715152 56.5348636,46.5774697 57.5163485,45.6056364 C58.4956061,44.6367727 59.7911364,44.1044545 61.1668485,44.1044545 L61.2002576,44.1044545 C62.5848788,44.1133636 63.8833788,44.6597879 64.8552121,45.6449848 C65.8285303,46.6294394 66.3593636,47.9346212 66.3504545,49.3333485 L66.3504545,54.6238636 L87.8740758,54.6238636 C98.8597273,40.8192273 97.1209697,20.6134091 83.6838333,8.92022727 C69.3149545,-3.58590909 49.1017121,-1.62368182 35.6200303,13.5833939 C26.6901515,23.6566061 1.2985,53.2058333 0.0801818182,54.6238636 L5.95498485,54.6238636 C12.7927121,46.6739848 31.5537727,24.886803 38.9542576,16.5389848" id="Fill-1" fill="#424242" sketch:type="MSShapeGroup"></path>
            <path d="M116.135939,50.0163788 C116.135939,50.7885 116.135939,51.695 115.602879,52.3876818 C115.309621,52.7611212 114.723848,53.2407273 113.657727,53.2407273 C112.591606,53.2407273 112.005833,52.7611212 111.712576,52.3876818 C111.179515,51.695 111.179515,50.7885 111.179515,50.0163788 L111.179515,43.5691667 L109.261091,43.5691667 L109.261091,50.2287121 C109.261091,51.5888333 109.394727,52.6000152 110.273758,53.5599697 C111.258955,54.5993636 112.564879,54.9460758 113.657727,54.9460758 C114.749833,54.9460758 116.055015,54.5993636 117.041697,53.5599697 C117.920727,52.6000152 118.053621,51.5888333 118.053621,50.2287121 L118.053621,43.5691667 L116.135939,43.5691667 L116.135939,50.0163788" id="Fill-2" fill="#4D4D4C" sketch:type="MSShapeGroup"></path>
            <path d="M121.594242,38.7189091 L125.910697,38.7189091 L125.910697,54.6260909 L127.882576,54.6260909 L127.882576,38.7189091 L132.199773,38.7189091 L132.199773,36.8539394 L121.594242,36.8539394 L121.594242,38.7189091" id="Fill-3" fill="#4D4D4C" sketch:type="MSShapeGroup"></path>
            <path d="M137.767212,44.7674394 L137.767212,43.5691667 L135.848045,43.5691667 L135.848045,54.6260909 L137.767212,54.6260909 L137.767212,48.7913788 C137.767212,46.9791212 138.086455,46.2322424 138.406439,45.8053485 C138.699697,45.4333939 139.179303,45.1134091 139.952167,45.1134091 C140.245424,45.1134091 140.644848,45.1928485 141.071,45.4868485 L141.976758,43.7547727 C141.497152,43.5142273 140.857924,43.3018939 140.272152,43.3018939 C138.779879,43.3018939 137.953561,44.4741818 137.767212,44.7674394" id="Fill-4" fill="#4D4D4C" sketch:type="MSShapeGroup"></path>
            <path d="M154.586833,45.1401364 C154.0805,44.4741818 152.934197,43.3018939 150.803439,43.3018939 C147.978515,43.3018939 145.420864,45.2745152 145.420864,49.0831515 C145.420864,52.9734545 148.005242,54.9460758 150.803439,54.9460758 C152.748591,54.9460758 153.947606,53.9066818 154.586833,53.0803636 L154.586833,54.6260909 L156.505258,54.6260909 L156.505258,43.5691667 L154.586833,43.5691667 L154.586833,45.1401364 L154.586833,45.1401364 Z M151.016515,53.2407273 C148.725394,53.2407273 147.392742,51.4544545 147.392742,49.0831515 C147.392742,46.3933485 149.124818,45.0072424 151.016515,45.0072424 C152.721864,45.0072424 154.693742,46.2589697 154.693742,49.1098788 C154.693742,51.2948333 153.361091,53.2407273 151.016515,53.2407273 L151.016515,53.2407273 Z" id="Fill-5" fill="#4D4D4C" sketch:type="MSShapeGroup"></path>
            <path d="M169.998076,43.5691667 L166.69503,51.8204697 L163.3905,43.5691667 L161.259742,43.5691667 L165.997894,54.6260909 L167.392167,54.6260909 L172.130318,43.5691667 L169.998076,43.5691667" id="Fill-6" fill="#4D4D4C" sketch:type="MSShapeGroup"></path>
            <path d="M185.257864,45.3272273 C184.591909,44.3672727 183.23253,43.3018939 181.075045,43.3018939 C177.74453,43.3018939 175.718455,45.8602879 175.718455,49.1633333 C175.718455,53.2674545 178.516652,54.9460758 181.181212,54.9460758 C182.593303,54.9460758 183.846515,54.493197 184.857697,53.586697 C185.417485,53.0803636 185.897091,52.4144091 186.217818,51.8011667 L184.618636,50.9213939 C184.378091,51.4544545 183.979409,52.0142424 183.473076,52.4411364 C182.833848,52.9734545 182.112955,53.2407273 181.207939,53.2407273 C179.290258,53.2407273 177.717803,51.7751818 177.691076,49.4833182 L186.297258,49.4833182 C186.350712,48.0170303 185.950545,46.3124242 185.257864,45.3272273 L185.257864,45.3272273 Z M177.82397,47.8841364 C178.116485,46.2322424 179.449879,45.0072424 181.075045,45.0072424 C182.700955,45.0072424 184.006136,46.152803 184.324636,47.8841364 L177.82397,47.8841364 L177.82397,47.8841364 Z" id="Fill-7" fill="#4D4D4C" sketch:type="MSShapeGroup"></path>
            <path d="M191.901818,35.2020455 L193.8195,35.2020455 L193.8195,54.6260909 L191.901818,54.6260909 L191.901818,35.2020455 Z" id="Fill-8" fill="#4D4D4C" sketch:type="MSShapeGroup"></path>
            <path d="M135.329091,27.5766061 C134.258515,27.5766061 133.709121,26.9455455 133.709121,25.9299091 C133.709121,24.9135303 134.258515,24.2817273 135.329091,24.2817273 C136.400409,24.2817273 136.949803,24.9135303 136.949803,25.9299091 C136.949803,26.9455455 136.400409,27.5766061 135.329091,27.5766061" id="Fill-9" fill="#4D4D4C" sketch:type="MSShapeGroup"></path>
            <path d="M129.945773,9.94551515 L129.945773,8.24239394 L116.076545,8.24239394 C116.59847,7.28243939 117.010515,6.34772727 117.4775,5.05665152 L115.801848,4.56293939 C115.224985,6.07377273 114.731273,7.14434848 114.153667,8.24239394 L105.503682,8.24239394 L105.503682,9.94551515 L113.247909,9.94551515 C111.270833,13.1312576 108.523864,16.1803939 104.707061,19.3653939 L106.079803,20.7106667 C108.277379,18.7343333 109.897348,16.9495455 111.435652,15.1632727 L111.435652,29.9115303 L113.19297,29.9115303 L113.19297,23.980303 L124.398379,23.980303 L124.398379,25.8430455 C124.398379,27.2016818 123.437682,28.2611212 122.087955,28.1542121 C121.609833,28.1163485 120.182152,27.9470758 120.182152,27.9470758 L120.450909,29.811303 C120.450909,29.811303 122.047864,29.9664697 122.672242,29.9924545 C124.594379,30.0718939 126.155697,28.6746515 126.155697,25.8430455 L126.155697,16.0779394 C126.155697,14.3896667 124.788152,13.0213788 123.099879,13.0213788 L113.110561,13.0213788 C113.769833,12.1148788 114.648864,10.8520152 115.170788,9.94551515 L129.945773,9.94551515 L129.945773,9.94551515 Z M113.19297,14.7237576 L122.632894,14.7237576 C123.607697,14.7237576 124.398379,15.5144394 124.398379,16.4899848 L124.398379,17.634803 L113.19297,17.634803 L113.19297,14.7237576 L113.19297,14.7237576 Z M113.19297,19.2829848 L124.398379,19.2829848 L124.398379,22.3321212 L113.19297,22.3321212 L113.19297,19.2829848 Z" id="Fill-10" fill="#4D4D4C" sketch:type="MSShapeGroup"></path>
            <path d="M151.890348,6.51328788 L164.798136,6.51328788 L164.798136,8.18819697 L151.890348,8.18819697 L151.890348,6.51328788 Z" id="Fill-11" fill="#4D4D4C" sketch:type="MSShapeGroup"></path>
            <path d="M149.666045,5.68845455 L148.32003,4.61713636 C146.204864,7.25422727 144.0355,9.34118182 140.987106,11.6478939 L142.030955,13.1587273 C145.326576,10.6040455 147.331121,8.51783333 149.666045,5.68845455" id="Fill-12" fill="#4D4D4C" sketch:type="MSShapeGroup"></path>
            <path d="M140.877227,19.5302121 L141.976015,20.9586364 C143.293818,19.8873182 144.420076,18.7343333 145.491394,17.634803 L145.491394,30.0214091 L147.276924,30.0214091 L147.276924,15.8232879 C148.512318,14.4223333 149.528697,13.1587273 150.490136,11.7577727 L149.089182,10.687197 C146.781727,14.1194242 144.0355,16.8938636 140.877227,19.5302121" id="Fill-13" fill="#4D4D4C" sketch:type="MSShapeGroup"></path>
            <path d="M150.736621,13.0213788 L150.736621,14.7237576 L158.967879,14.7237576 L158.967879,25.7480152 C158.967879,27.3828333 158.0985,28.5454697 156.376076,28.3398182 C155.776197,28.267803 153.996606,28.0101818 153.996606,28.0101818 L154.316591,29.8343182 C154.316591,29.8343182 156.246152,30.0726364 157.003424,30.1246061 C159.069591,30.2664091 160.752667,28.9330152 160.752667,25.7480152 L160.752667,14.7237576 L166.089212,14.7237576 L166.089212,13.0213788 L150.736621,13.0213788" id="Fill-14" fill="#4D4D4C" sketch:type="MSShapeGroup"></path>
            <path d="M181.975606,15.1365455 C183.074394,13.4059545 183.980152,11.8127121 184.721833,10.3300909 L195.2405,10.3300909 L195.2405,8.71012121 L185.490985,8.71012121 C186.067848,7.47398485 186.479894,6.34772727 186.891939,5.24893939 L185.408576,4.70028788 C184.419667,7.44577273 182.991985,10.6597273 180.547182,14.1751061 L181.975606,15.1365455" id="Fill-15" fill="#4D4D4C" sketch:type="MSShapeGroup"></path>
            <path d="M180.030455,9.42433333 L170.880076,9.42433333 L170.880076,11.0435606 L174.14897,11.0435606 C174.14897,16.8114545 174.258106,21.3439545 170.742727,28.6761364 L172.363439,29.527697 C176.051061,23.6877879 175.74147,14.3094848 175.74147,11.0435606 L182.250303,11.0435606 L182.250303,9.42433333 L180.030455,9.42433333" id="Fill-16" fill="#4D4D4C" sketch:type="MSShapeGroup"></path>
            <path d="M176.710333,16.6466364 L178.426076,16.6466364 C178.90197,16.6466364 179.285061,17.0334394 179.280606,17.5085909 C179.251652,20.7797121 179.062333,24.8548788 178.734924,26.3412121 C178.625788,26.8356667 178.24047,27.0828939 177.609409,27.0828939 C176.812045,27.0828939 176.016167,26.9455455 175.164606,26.7532576 L175.329424,28.6204545 C175.961227,28.7310758 176.730379,28.8409545 177.609409,28.8409545 C179.421667,28.8409545 180.025258,28.2633485 180.383106,26.5884394 C180.68453,25.2884545 180.888697,21.5340152 180.944379,17.351197 C180.961455,16.0734848 179.929485,15.0266667 178.651773,15.0266667 L176.694742,15.0266667 C176.694742,15.5634394 176.710333,16.1239697 176.710333,16.6466364" id="Fill-17" fill="#4D4D4C" sketch:type="MSShapeGroup"></path>
            <path d="M189.967803,20.7938182 C191.532833,19.7781818 193.290152,18.5962424 194.718576,17.3066515 L193.62053,16.0155758 C192.219576,17.3066515 190.791894,18.4039545 189.473348,19.3104545 C189.061303,17.7996212 188.814076,16.2895303 188.621788,14.5322121 C190.407318,14.1751061 192.192106,13.7355909 194.005106,13.2411364 L193.181015,11.6478939 C190.738439,12.3747273 188.191182,12.9419394 185.311318,13.4631212 C184.035091,13.6947576 183.101121,14.8009697 183.101121,16.0979848 L183.101121,27.2952273 C183.101121,28.2707727 183.892545,29.062197 184.868091,29.062197 L188.623273,28.8409545 L188.750227,27.0984848 L185.789439,27.3256667 C185.263803,27.3256667 184.837652,26.9002576 184.836909,26.3746212 L184.832455,16.2100909 C184.832455,15.6369394 185.243758,15.1454545 185.808,15.0452273 L187.001076,14.8336364 C187.962515,21.8643939 189.583227,25.4079848 194.526288,30.0496212 L195.982182,28.7028636 C192.71403,25.9299091 190.984182,23.4583788 189.967803,20.7938182" id="Fill-18" fill="#4D4D4C" sketch:type="MSShapeGroup"></path>
        </g>
    </g>
</svg>