<?xml version="1.0" encoding="UTF-8" standalone="no"?>
<svg width="737px" height="324px" viewBox="0 0 737 324" version="1.1" xmlns="http://www.w3.org/2000/svg" xmlns:xlink="http://www.w3.org/1999/xlink" xmlns:sketch="http://www.bohemiancoding.com/sketch/ns">
    <!-- Generator: Sketch 3.3.2 (12043) - http://www.bohemiancoding.com/sketch -->
    <title>mytravel-help</title>
    <desc>Created with Sketch.</desc>
    <defs>
        <rect id="path-1" x="2.27373675e-13" y="0" width="264.973196" height="251"></rect>
    </defs>
    <g id="Page-1" stroke="none" stroke-width="1" fill="none" fill-rule="evenodd" sketch:type="MSPage">
        <g id="big-item-2" sketch:type="MSLayerGroup" transform="translate(-0.432990, -6.000000)">
            <g id="Group" transform="translate(37.000000, 0.000000)">
                <rect id="bg" fill="#BABABA" sketch:type="MSShapeGroup" x="5.68434189e-13" y="43" width="662.43299" height="251"></rect>
                <g id="description" transform="translate(397.459794, 43.000000)">
                    <g id="bg-blur-layer">
                        <use fill-opacity="0.200000003" fill="#FFFFFF" fill-rule="evenodd" sketch:type="MSShapeGroup" xlink:href="#path-1"></use>
                        <use fill="none" xlink:href="#path-1"></use>
                    </g>
                    <g id="more-btn" transform="translate(64.000000, 182.000000)" fill="#6E6E6E" sketch:type="MSShapeGroup" opacity="0.9">
                        <rect id="Rectangle-14" x="0" y="0" width="135.591753" height="30.0164948"></rect>
                    </g>
                    <g id="icon" transform="translate(34.000000, 86.000000)" sketch:type="MSShapeGroup">
                        <path d="M0.258762887,10.5041237 L77.3770523,10.5041237" id="Line-2" stroke-opacity="0.225911458" stroke="#FFFFFF" stroke-linecap="square"></path>
                        <path d="M117.974227,10.5041237 L195.092516,10.5041237" id="Line-3" stroke-opacity="0.225911458" stroke="#FFFFFF" stroke-linecap="square"></path>
                        <g id="music-note-2" transform="translate(85.356701, 0.000000)" fill="#FFFFFF">
                            <path d="M21.7497599,5.48231405 L21.7497599,5.48135237 L21.7497599,-8.8817842e-15 L5.5207105,3.28318557 L5.5207105,8.51738542 L5.5207105,8.51834711 L5.5207105,18.0613674 C4.93571547,17.5692261 4.18309871,17.2711044 3.36083968,17.2711044 C1.50763498,17.2711044 1.77635684e-15,18.7802254 1.77635684e-15,20.6355522 C1.77635684e-15,22.490879 1.50763498,24 3.36083968,24 C5.21404439,24 6.72143922,22.490879 6.72143922,20.6355522 L6.72143922,9.01145004 L20.5492713,6.21415477 L20.5492713,15.0214876 C19.9642763,14.5283847 19.2111792,14.2307438 18.3889202,14.2307438 C16.5352352,14.2307438 15.0278403,15.7393839 15.0278403,17.5947107 C15.0278403,19.4500376 16.5352352,20.9591585 18.3889202,20.9591585 C20.2402037,20.9591585 21.746638,19.4526822 21.7495197,17.5992787 C21.7495197,17.5973554 21.75,17.5959128 21.75,17.5944703 L21.75,5.48231405 L21.7497599,5.48231405 Z M3.36059954,22.7976559 C2.16947665,22.7976559 1.20048857,21.8275582 1.20048857,20.6353118 C1.20048857,19.4430654 2.16947665,18.4729677 3.36059954,18.4729677 C4.55148228,18.4729677 5.52047035,19.4430654 5.52047035,20.6353118 C5.52047035,21.8275582 4.55148228,22.7976559 3.36059954,22.7976559 L3.36059954,22.7976559 Z M6.72143922,7.78506386 L6.72143922,4.26626597 L20.5490311,1.46945154 L20.5490311,4.98824944 L6.72143922,7.78506386 L6.72143922,7.78506386 Z M18.38868,19.7577761 C17.197317,19.7577761 16.2283289,18.7876784 16.2283289,17.595432 C16.2283289,16.4031856 17.197317,15.4330879 18.38868,15.4330879 C19.5795628,15.4330879 20.5485508,16.4031856 20.5485508,17.595432 C20.5485508,18.7876784 19.5795628,19.7577761 18.38868,19.7577761 L18.38868,19.7577761 Z" id="Shape"></path>
                        </g>
                    </g>
                    <rect id="Rectangle-4" fill="#F8F8F8" sketch:type="MSShapeGroup" x="78" y="53" width="108" height="16"></rect>
                    <rect id="Rectangle-4-Copy" fill="#F8F8F8" sketch:type="MSShapeGroup" x="92" y="130" width="80" height="10"></rect>
                    <rect id="Rectangle-4-Copy-2" fill="#F8F8F8" sketch:type="MSShapeGroup" x="68" y="155" width="128" height="10"></rect>
                </g>
                <g id="follow-active" transform="translate(606.432990, 43.000000)" sketch:type="MSShapeGroup">
                    <g id="Page-1">
                        <g id="follow-active">
                            <g id="Page-1">
                                <path d="M0,0 L56,0 L56,56 L0,0 L0,0 Z" id="Rectangle-3" fill-opacity="0.5" fill="#000000"></path>
                                <path d="M46.3942551,18.7578416 L38.5001237,27.125 L30.6048026,18.7555113 C28.9252012,17.0009543 28,14.9410251 28,12.9548367 C28,9.86905964 29.8834719,7.875 32.7981456,7.875 C35.3721594,7.875 36.3065328,9.023007 37.8544513,10.9250459 L38.1420118,11.2776454 C38.2314034,11.3869104 38.3620947,11.4497248 38.4993801,11.4497248 C38.636715,11.4497248 38.7678029,11.3869104 38.8569962,11.2776454 L39.1467383,10.9223013 C40.6937643,9.02207495 41.6277907,7.875 44.2007633,7.875 C47.1161311,7.875 48.9999997,9.86905964 48.9999997,12.9548367 C49.0006937,14.9410251 48.0754925,17.0009543 46.3942551,18.7578416 L46.3942551,18.7578416 L46.3942551,18.7578416 Z" id="Shape-3" fill="#FF4B4B"></path>
                            </g>
                        </g>
                    </g>
                </g>
                <g transform="translate(613.432990, 28.000000)" stroke="#FF4B4B" stroke-width="3" sketch:type="MSShapeGroup" stroke-linecap="round">
                    <path d="M31.5,10 L31.5,0" id="Line"></path>
                    <path d="M15.7426407,16.7426407 L8.67157288,9.67157288" id="Line-Copy"></path>
                    <path d="M10.5,30.5 L0.5,30.5" id="Line-Copy-2"></path>
                    <path d="M16.3890873,45.4038059 L9.31801948,52.4748737" id="Line-Copy-3"></path>
                    <path d="M53.3284271,16.7426407 L46.2573593,9.67157288" id="Line-Copy-7" transform="translate(49.792893, 13.207107) scale(-1, 1) translate(-49.792893, -13.207107) "></path>
                    <path d="M61.5,30.5 L51.5,30.5" id="Line-Copy-5"></path>
                    <path d="M52.9748737,45.4038059 L45.9038059,52.4748737" id="Line-Copy-6" transform="translate(49.439340, 48.939340) scale(-1, 1) translate(-49.439340, -48.939340) "></path>
                    <path d="M31,52 L31,62" id="Line-Copy-4"></path>
                </g>
                <path d="M689.43299,23 L697.43299,23 L684.93299,5 L672.43299,23 L681.43299,23 L681.43299,37 L689.43299,37 L689.43299,23 Z" id="Triangle-1" fill="#FF4B4B" sketch:type="MSShapeGroup" transform="translate(684.932990, 21.000000) rotate(-135.000000) translate(-684.932990, -21.000000) "></path>
            </g>
        </g>
    </g>
</svg>