<?xml version="1.0" encoding="UTF-8" standalone="no"?>
<svg width="10px" height="16px" viewBox="0 0 10 16" version="1.1" xmlns="http://www.w3.org/2000/svg" xmlns:xlink="http://www.w3.org/1999/xlink" xmlns:sketch="http://www.bohemiancoding.com/sketch/ns">
    <!-- Generator: Sketch 3.3.2 (12043) - http://www.bohemiancoding.com/sketch -->
    <title>slider-next</title>
    <desc>Created with Sketch.</desc>
    <defs></defs>
    <g id="Page-1" stroke="none" stroke-width="1" fill="none" fill-rule="evenodd" sketch:type="MSPage">
        <path d="M5.84932457,1.85355339 L-2.56511496,1.85355339 C-3.38110571,1.85355339 -4.06066017,2.52512627 -4.06066017,3.35355339 C-4.06066017,4.18775616 -3.39108177,4.85355339 -2.56511496,4.85355339 L4.85355339,4.85355339 L4.85355339,12.2722217 C4.85355339,13.0882125 5.52512627,13.767767 6.35355339,13.767767 C7.18775616,13.767767 7.85355339,13.0981886 7.85355339,12.2722217 L7.85355339,3.85251474 C7.90903984,3.69641888 7.93933983,3.52848305 7.93933983,3.35355339 C7.93933983,2.89563436 7.7375796,2.48846001 7.41894383,2.2143019 C7.14713187,1.93963939 6.77017836,1.76776695 6.35355339,1.76776695 C6.17628115,1.76776695 6.00661382,1.79800402 5.84932457,1.85355339 Z" id="slider-prev-copy" fill="#626262" sketch:type="MSShapeGroup" transform="translate(1.939340, 7.767767) rotate(-315.000000) translate(-1.939340, -7.767767) "></path>
    </g>
</svg>