<?xml version="1.0" encoding="UTF-8" standalone="no"?>
<svg width="10px" height="16px" viewBox="0 0 10 16" version="1.1" xmlns="http://www.w3.org/2000/svg" xmlns:xlink="http://www.w3.org/1999/xlink" xmlns:sketch="http://www.bohemiancoding.com/sketch/ns">
    <!-- Generator: Sketch 3.3.2 (12043) - http://www.bohemiancoding.com/sketch -->
    <title>slider-prev</title>
    <desc>Created with Sketch.</desc>
    <defs></defs>
    <g id="Page-1" stroke="none" stroke-width="1" fill="none" fill-rule="evenodd" sketch:type="MSPage">
        <path d="M11.8493246,1.85355339 L3.43488504,1.85355339 C2.61889429,1.85355339 1.93933983,2.52512627 1.93933983,3.35355339 C1.93933983,4.18775616 2.60891823,4.85355339 3.43488504,4.85355339 L10.8535534,4.85355339 L10.8535534,12.2722217 C10.8535534,13.0882125 11.5251263,13.767767 12.3535534,13.767767 C13.1877562,13.767767 13.8535534,13.0981886 13.8535534,12.2722217 L13.8535534,3.85251474 C13.9090398,3.69641888 13.9393398,3.52848305 13.9393398,3.35355339 C13.9393398,2.89563436 13.7375796,2.48846001 13.4189438,2.2143019 C13.1471319,1.93963939 12.7701784,1.76776695 12.3535534,1.76776695 C12.1762811,1.76776695 12.0066138,1.79800402 11.8493246,1.85355339 Z" id="slider-prev" fill="#626262" sketch:type="MSShapeGroup" transform="translate(7.939340, 7.767767) scale(-1, 1) rotate(-315.000000) translate(-7.939340, -7.767767) "></path>
    </g>
</svg>